<?xml version="1.0" encoding="utf-8"?>
<!-- Generator: Adobe Illustrator 23.0.6, SVG Export Plug-In . SVG Version: 6.00 Build 0)  -->
<svg version="1.1" id="_x33_rd_x5F_african_x5F_remain"
	 xmlns="http://www.w3.org/2000/svg" xmlns:xlink="http://www.w3.org/1999/xlink" x="0px" y="0px" viewBox="0 0 491.2 227.4"
	 style="enable-background:new 0 0 491.2 227.4;" xml:space="preserve">
<style type="text/css">
	.st0{fill:none;stroke:url(#line_2_);stroke-miterlimit:10;}
	.st1{fill:url(#bg_x5F_border_1_);}
	.st2{enable-background:new    ;}
	.st3{fill:#FFFFFF;}
	.st4{fill:none;stroke:#FFFFFF;stroke-width:2;stroke-miterlimit:10;}
</style>
<linearGradient id="line_2_" gradientUnits="userSpaceOnUse" x1="247.9959" y1="204.0547" x2="248.9959" y2="204.0547" gradientTransform="matrix(1 0 0 -1 0 230)">
	<stop  offset="0" style="stop-color:#AD2537"/>
	<stop  offset="1" style="stop-color:#AD2537;stop-opacity:0"/>
</linearGradient>
<line id="line" class="st0" x1="248.5" y1="0" x2="248.5" y2="51.9"/>
<linearGradient id="bg_x5F_border_1_" gradientUnits="userSpaceOnUse" x1="0" y1="-1228.6414" x2="486.6883" y2="-1228.6414" gradientTransform="matrix(1 0 0 1 0 1368)">
	<stop  offset="0" style="stop-color:#AD2537"/>
	<stop  offset="1" style="stop-color:#AD2537;stop-opacity:0"/>
</linearGradient>
<path id="bg_x5F_border" class="st1" d="M445.4,226.8H41.3C18.6,226.8,0,208.3,0,185.7V93.1c0-22.6,18.6-41.2,41.3-41.2h404.1
	c22.7,0,41.3,18.5,41.3,41.2v92.6C486.7,208.3,468.1,226.8,445.4,226.8z"/>
<g id="_x33_rd_x5F_african_x5F_remain_1_">
	<g class="st2">
		<path class="st3" d="M54.5,136.3H67c5.8,0,10-1.4,12.5-4.3c2.6-2.9,3.8-6.9,3.8-12.2c0-5.2-1.4-9.1-4.1-12
			c-2.8-2.8-6.8-4.2-12.2-4.2c-4.9,0-8.8,1.4-11.9,4.2c-3.1,2.8-4.6,6.4-4.6,10.9H33.3l-0.1-0.4c-0.3-8.2,2.8-15.1,9.2-20.7
			c6.4-5.6,14.6-8.4,24.5-8.4c10.5,0,18.8,2.7,25.1,8c6.2,5.3,9.4,12.8,9.4,22.6c0,4.6-1.4,9-4.2,13.3c-2.8,4.3-6.8,7.6-11.9,9.9
			c6.1,2.2,10.6,5.5,13.4,9.9c2.9,4.4,4.3,9.5,4.3,15.1c0,9.8-3.4,17.6-10.1,23.2c-6.8,5.6-15.4,8.4-25.9,8.4
			c-9.9,0-18.3-2.6-25-7.9c-6.8-5.3-10-12.6-9.7-21.9l0.1-0.4h17.2c0,4.7,1.6,8.6,4.8,11.5c3.2,2.9,7.4,4.4,12.7,4.4
			c5.6,0,9.9-1.5,13.1-4.5c3.2-3,4.8-7.2,4.8-12.7c0-6-1.5-10.5-4.4-13.3c-2.9-2.9-7.5-4.3-13.6-4.3H54.5V136.3z"/>
	</g>
	<g class="st2">
		<path class="st3" d="M125.8,92.3h11.5c8,0,11.4,4.6,11.4,10.3c0,4.5-2.2,8.4-7.2,9.7l10.6,15h-5.4l-10-14.5h-6.2v14.5h-4.7V92.3z
			 M137.4,108.9c5.2,0,6.8-3.1,6.8-6.4c0-3.2-1.6-6.4-6.8-6.4h-6.9v12.7H137.4z"/>
		<path class="st3" d="M156.2,92.3h10.8c13.6,0,19.5,7.9,19.5,17.5s-5.9,17.5-19.5,17.5h-10.8V92.3z M167.2,123.2
			c11.4,0,14.6-6.4,14.6-13.4s-3.2-13.4-14.6-13.4h-6.2v26.8H167.2z"/>
	</g>
	<g class="st2">
		<path class="st3" d="M117.7,177.1c0-12.6,9.3-21.7,21.9-21.7c12.6,0,21.8,9.1,21.8,21.7s-9.3,21.7-21.8,21.7
			C126.9,198.8,117.7,189.7,117.7,177.1z M155.7,177.1c0-10-6.7-17.2-16.1-17.2c-9.5,0-16.2,7.1-16.2,17.2c0,9.9,6.7,17.2,16.2,17.2
			C148.9,194.2,155.7,187,155.7,177.1z"/>
		<path class="st3" d="M168.7,156.5h24.9v4.6h-19.4v12.6h16v4.6h-16v19.4h-5.5V156.5z"/>
	</g>
	<g class="st2">
		<path class="st3" d="M220.5,87.9h2.5l12.4,28.8h-3.9l-3.5-8.1h-12.7l-3.5,8.1h-3.7L220.5,87.9z M226.7,105.5l-5-11.9l-5,11.9
			H226.7z"/>
		<path class="st3" d="M239.1,87.9h17.4v3.2h-13.6v8.8h11.2v3.2h-11.2v13.6h-3.8V87.9z"/>
		<path class="st3" d="M260.4,87.9h9.5c6.6,0,9.4,3.8,9.4,8.5c0,3.7-1.8,6.9-6,8l8.7,12.3h-4.5l-8.3-11.9h-5.1v11.9h-3.8V87.9z
			 M269.9,101.6c4.3,0,5.6-2.6,5.6-5.2s-1.3-5.2-5.6-5.2h-5.7v10.5H269.9z"/>
		<path class="st3" d="M285.5,87.9h3.8v28.8h-3.8V87.9z"/>
		<path class="st3" d="M294.5,102.3c0-9.3,7-15,15.3-15c3.6,0,7.6,1.2,10,3v4c-2.4-2.1-5.5-3.8-10-3.8c-6.6,0-11.3,4.6-11.3,11.8
			c0,7.2,4.7,11.8,11.3,11.8c4.5,0,7.6-1.7,10-3.8v4c-2.4,1.8-6.3,3-10,3C301.5,117.3,294.5,111.6,294.5,102.3z"/>
		<path class="st3" d="M334.8,87.9h2.5l12.4,28.8h-3.9l-3.5-8.1h-12.7l-3.5,8.1h-3.7L334.8,87.9z M340.9,105.5l-5-11.9l-5,11.9
			H340.9z"/>
		<path class="st3" d="M348.5,97c1.6-0.9,2.2-3,2.2-4.9h-1.9v-4.2h4.2v3.7c0,3.3-1.3,5.9-3.8,6.6L348.5,97z"/>
		<path class="st3" d="M358.3,113.8l0.9-3.6c1.7,1.9,4.6,3.9,8.7,3.9c3.4,0,6-1.9,6-5c0-2.9-1.4-4.6-6.8-6c-5.4-1.4-8-4.4-8-8.4
			c0-4.1,3.4-7.5,9.3-7.5c3.3,0,6.2,1.3,7.8,2.6l-0.9,3c-1.9-1.4-4.6-2.5-7-2.5c-3.6,0-5.7,1.7-5.7,4.4c0,2.1,1.3,3.8,5.8,5
			c6.2,1.6,9,4.3,9,9.1c0,5.6-4.7,8.5-9.7,8.5C363.2,117.3,359.9,115.5,358.3,113.8z"/>
	</g>
	<g class="st2">
		<path class="st3" d="M210.9,129.1h9.5c6.6,0,9.4,3.8,9.4,8.5c0,3.7-1.8,6.9-6,8l8.7,12.3h-4.5l-8.3-11.9h-5.1v11.9h-3.8V129.1z
			 M220.4,142.8c4.3,0,5.6-2.6,5.6-5.2c0-2.6-1.3-5.2-5.6-5.2h-5.7v10.5H220.4z"/>
		<path class="st3" d="M235.9,129.1h17.4v3.2h-13.6v8.8H251v3.2h-11.2v10.4h13.6v3.2h-17.4V129.1z"/>
		<path class="st3" d="M259,129.1h3.7l11.1,23.9l11.1-23.9h3.6v28.8h-3.7v-19.6c0-0.7,0.1-2.4,0.1-2.4c-0.1,0.1-0.7,1.7-1,2.4
			l-9,19.6h-2.6l-9-19.6c-0.3-0.7-1-2.3-1-2.4c0,0,0.1,1.7,0.1,2.4v19.6H259V129.1z"/>
		<path class="st3" d="M304.7,129.1h2.5l12.4,28.8h-3.9l-3.5-8.1h-12.7l-3.5,8.1h-3.7L304.7,129.1z M310.9,146.7l-5-11.9l-5,11.9
			H310.9z"/>
		<path class="st3" d="M323.3,129.1h3.8v28.8h-3.8V129.1z"/>
		<path class="st3" d="M333.7,129.1h2.2l17.1,21.5v-21.5h3.5v28.8h-2.2l-17.1-21.5v21.5h-3.5V129.1z"/>
		<path class="st3" d="M363.1,129.1h3.8v28.8h-3.8V129.1z"/>
		<path class="st3" d="M373.5,129.1h2.2l17.1,21.5v-21.5h3.5v28.8h-2.2L377,136.4v21.5h-3.5V129.1z"/>
		<path class="st3" d="M401.5,143.5c0-9.3,7-15,15.3-15c3.6,0,7.6,1.2,10,3v4c-2.4-2.1-5.5-3.8-10-3.8c-6.6,0-11.3,4.6-11.3,11.8
			c0,7.2,4.7,12,11.3,12c2.8,0,5.4-0.6,7.3-1.7v-6.5h-5.9v-3.2h9.7v11.6c-1.6,0.7-5.9,3-11.2,3C408.5,158.7,401.5,152.8,401.5,143.5
			z"/>
	</g>
	<g class="st2">
		<path class="st3" d="M210.9,170.2h9.5c6.6,0,9.4,4,9.4,8.7s-2.8,8.7-9.4,8.7h-5.7V199h-3.8V170.2z M220.4,184.4
			c4.3,0,5.6-2.8,5.6-5.5s-1.3-5.5-5.6-5.5h-5.7v10.9H220.4z"/>
		<path class="st3" d="M233.1,184.6c0-8.8,6.5-15.2,15.3-15.2c8.8,0,15.3,6.4,15.3,15.2c0,8.8-6.5,15.2-15.3,15.2
			C239.6,199.9,233.1,193.5,233.1,184.6z M259.7,184.6c0-7-4.7-12-11.3-12c-6.6,0-11.3,5-11.3,12c0,7,4.7,12,11.3,12
			C255,196.6,259.7,191.6,259.7,184.6z"/>
		<path class="st3" d="M268.9,170.2h9.5c6.6,0,9.4,4,9.4,8.7s-2.8,8.7-9.4,8.7h-5.7V199h-3.8V170.2z M278.4,184.4
			c4.3,0,5.6-2.8,5.6-5.5s-1.3-5.5-5.6-5.5h-5.7v10.9H278.4z"/>
		<path class="st3" d="M291.8,185.7v-15.5h3.9v15.6c0,7.4,3.4,10.7,8.6,10.7s8.6-3.3,8.6-10.7v-15.6h3.7v15.5
			c0,9.7-5,14.1-12.5,14.1C296.9,199.9,291.8,195.5,291.8,185.7z"/>
		<path class="st3" d="M323.3,170.2h3.8v25.6h13.6v3.2h-17.4V170.2z"/>
		<path class="st3" d="M354.3,170.2h2.5l12.4,28.8h-3.9l-3.5-8.1h-12.7l-3.5,8.1h-3.7L354.3,170.2z M360.4,187.9l-5-11.9l-5,11.9
			H360.4z"/>
		<path class="st3" d="M376.6,173.4h-10.2v-3.2h24.3v3.2h-10.2V199h-3.8V173.4z"/>
		<path class="st3" d="M394.5,170.2h3.8V199h-3.8V170.2z"/>
		<path class="st3" d="M403.5,184.6c0-8.8,6.5-15.2,15.3-15.2c8.8,0,15.3,6.4,15.3,15.2c0,8.8-6.5,15.2-15.3,15.2
			C410,199.9,403.5,193.5,403.5,184.6z M430.1,184.6c0-7-4.7-12-11.3-12c-6.6,0-11.3,5-11.3,12c0,7,4.7,12,11.3,12
			C425.4,196.6,430.1,191.6,430.1,184.6z"/>
		<path class="st3" d="M439.3,170.2h2.2l17.1,21.5v-21.5h3.5V199h-2.2l-17.1-21.5V199h-3.5V170.2z"/>
	</g>
	<line id="line_1_" class="st4" x1="120.6" y1="139.4" x2="192.6" y2="139.4"/>
</g>
</svg>
