<?xml version="1.0" encoding="utf-8"?>
<!-- Generator: Adobe Illustrator 23.0.6, SVG Export Plug-In . SVG Version: 6.00 Build 0)  -->
<svg version="1.1" id="africa_x5F_map" xmlns="http://www.w3.org/2000/svg" xmlns:xlink="http://www.w3.org/1999/xlink" x="0px"
	 y="0px" viewBox="0 0 181.1 174" style="enable-background:new 0 0 181.1 174;" xml:space="preserve">
<style type="text/css">
	.st0{fill:#F9F9FA;}
</style>
<g id="africa">
	<path class="st0" d="M20.7,61.4c-0.1,0-0.2-0.1-0.3,0c0,0-0.1,0.1-0.2,0.1s-0.2,0-0.2,0.1s0,0.2,0,0.2s0,0.1,0.1,0.2
		c0.1,0,0.2,0,0.3,0c0,0,0-0.1,0.1-0.1l0.2-0.1c0.1,0,0.2-0.1,0.2-0.2C20.9,61.6,20.8,61.5,20.7,61.4z"/>
	<path class="st0" d="M28.1,70.8c-0.1,0-0.2,0-0.3,0l-0.1,0.1c0,0.1,0,0.2,0.1,0.2l0.2,0.1c0.1,0,0.2,0,0.3,0c0,0,0.1-0.1,0.1-0.2
		s0-0.2-0.1-0.2C28.2,70.7,28.1,70.8,28.1,70.8z"/>
	<path class="st0" d="M1.6,50.8c-0.1,0-0.2,0-0.3,0S1.2,51,1.2,51v0.2c0,0,0.1,0.1,0.2,0.1s0.2,0,0.3,0s0.1-0.1,0.2-0.1L2,51.1
		c0-0.1-0.1-0.2-0.1-0.2C1.7,50.9,1.6,50.8,1.6,50.8z"/>
	<path class="st0" d="M3.8,50.5C3.8,50.5,3.7,50.5,3.8,50.5c-0.2-0.2-0.2-0.3-0.2-0.4C3.6,50,3.4,50,3.4,50s-0.1,0-0.2,0
		c-0.1,0.1,0,0.3,0,0.3c0,0.1-0.1,0.2-0.1,0.3s0,0.3,0,0.4s0.2,0.1,0.2,0.1c0.1,0,0.4,0,0.5-0.1l0.1-0.1c0-0.1,0.1-0.2,0.1-0.2
		S3.8,50.6,3.8,50.5z"/>
	<path class="st0" d="M5.8,47.9c-0.1,0-0.2,0-0.3,0c-0.1,0-0.2,0.1-0.2,0.2s0,0.2,0,0.3s0.1,0.2,0.1,0.3c0.1,0.1,0.2,0.1,0.3,0.1
		c0.1,0,0.2-0.1,0.3-0.1l0.1-0.2c0-0.1-0.1-0.2-0.1-0.3C5.9,48,5.8,47.9,5.8,47.9z"/>
	<path class="st0" d="M5.7,46.9c0.1,0,0-0.2,0-0.3s0.2-0.2,0.2-0.2c0-0.1-0.1-0.2-0.1-0.3L5.7,46c-0.1,0-0.1,0.2-0.1,0.2
		s-0.1,0.1-0.1,0.2s-0.1,0.3,0,0.4C5.5,46.8,5.6,46.9,5.7,46.9z"/>
	<path class="st0" d="M3.2,46.8c0-0.1-0.1-0.2-0.1-0.3c0,0-0.1-0.1-0.2-0.2c-0.1,0-0.2-0.1-0.3-0.2c0,0-0.1-0.1-0.1-0.2
		c-0.1,0-0.2,0-0.2,0v0.2c0,0.1-0.1,0.1-0.1,0.2s0.1,0.2,0.2,0.3c0.1,0,0.2,0,0.3,0.1c0,0,0.1,0,0.2,0c0,0,0.1,0,0.1-0.1
		C3,46.8,3.1,46.8,3.2,46.8z"/>
	<path class="st0" d="M0.7,44.9c-0.1,0-0.3,0-0.4,0S0.1,45,0,45.1c0,0.1-0.1,0.2,0,0.3c0,0.1,0,0.3,0.1,0.3s0.2,0,0.3,0
		s0.1-0.1,0.2-0.2c0.1,0,0.2,0,0.3,0L1,45.4c0,0,0-0.1,0-0.2S1,45,1,45C0.9,44.9,0.8,44.9,0.7,44.9z"/>
	<path class="st0" d="M84.9,8.2c0,0.1,0,0.2,0,0.2s0,0.1,0,0.2c0,0,0.1,0.1,0.2,0.1s0.2,0,0.3-0.1c0,0,0.1-0.1,0.1-0.2s0-0.3,0-0.3
		C85.5,8,85.3,8,85.2,8C85,8,84.9,8.1,84.9,8.2z"/>
	<path class="st0" d="M176.9,128.5c0-0.2-0.1-0.6-0.2-0.8c0-0.3-0.1-0.8-0.1-1.1c0-0.2,0-0.6,0-0.8c0-0.3-0.2-0.7-0.2-1
		s0-0.8-0.1-1.1c0-0.3,0-0.8,0-1c0-0.1-0.1-0.4-0.1-0.5s0-0.2-0.1-0.2c-0.1-0.1-0.3-0.3-0.3-0.4c-0.1-0.1-0.1-0.3-0.2-0.4
		c0-0.1-0.2-0.1-0.2-0.2c0,0-0.1-0.1-0.2-0.1l-0.1-0.2H175l-0.1,0.1c-0.1,0-0.2,0-0.3,0.1c0,0,0,0.2-0.1,0.2c0,0-0.1,0.1-0.2,0.1
		l-0.1-0.1l-0.1-0.1c0,0-0.1,0-0.1,0.1s0,0.2,0.1,0.3c0,0,0.2,0,0.2,0.1s0,0.3,0,0.3c0,0.1-0.1,0.2-0.1,0.3c0,0.1-0.1,0.3-0.2,0.4
		c0,0.1,0,0.4,0,0.5s-0.1,0.3-0.1,0.3l-0.2,0.1l-0.1,0.2l-0.1,0.1c0,0,0-0.1,0-0.2s-0.1-0.2-0.1-0.3c0,0-0.1,0-0.2,0.1
		c0,0.1,0,0.2,0,0.3c0,0.1-0.1,0.2-0.1,0.3c0,0.1-0.1,0.1-0.2,0.2c0,0.1-0.1,0.2-0.1,0.2c0,0.1-0.2,0.1-0.2,0.2s0.1,0.2,0,0.2
		c0,0-0.1,0-0.2,0c0,0,0-0.2-0.1-0.2c0,0,0-0.1,0-0.2s0-0.2-0.1-0.2L172,124c-0.1,0-0.2,0-0.2,0s-0.1,0.1-0.1,0.2s0,0.2,0,0.3
		c0,0.1,0.1,0.2,0.1,0.3c0,0.1,0.1,0.2,0.2,0.3c0,0.1,0,0.3-0.1,0.4c0,0.1-0.1,0.2-0.1,0.2l-0.1-0.1v-0.1l-0.1-0.1
		c-0.1,0-0.1,0.1-0.1,0.2s-0.1,0.2-0.1,0.3c0,0.1-0.1,0.4-0.1,0.5s0.1,0.2,0.2,0.2c0,0,0.1,0,0.2,0c0,0,0.1,0.1,0.1,0.2s0,0.2,0,0.2
		h-0.1c0,0-0.1-0.1-0.2-0.1c-0.1,0-0.2,0-0.3,0s-0.2,0.2-0.2,0.3c0,0.1,0,0.2,0,0.3c0,0.1-0.2,0.2-0.2,0.2l-0.1,0.1
		c0,0-0.1,0-0.2-0.1c0,0,0-0.1,0-0.2l0.1-0.1v-0.1c0,0,0.1-0.1,0.1-0.2c0,0,0.1-0.1,0.1-0.2s-0.1-0.2-0.2-0.2h-0.2
		c-0.1,0-0.1,0.1-0.2,0.2c0,0.1,0.1,0.2,0.1,0.3c0,0.1-0.2,0.2-0.2,0.3c-0.1,0.1-0.2,0.2-0.3,0.3c0,0-0.2,0-0.2,0.1v0.2
		c0,0,0.1,0,0.1,0.1c0,0,0,0.1,0,0.2s0.2,0.2,0.2,0.2c0,0.1,0,0.2-0.1,0.3c0,0-0.1,0.1-0.2,0.1c0,0-0.1,0-0.2,0c0,0-0.1,0-0.2,0
		c-0.1,0-0.1-0.2-0.1-0.3s0.1-0.1,0.1-0.2s0-0.2,0-0.2l-0.1-0.1c-0.1,0-0.2,0-0.3,0s-0.3,0.1-0.3,0.2c-0.1,0.1-0.2,0.3-0.3,0.4
		c0,0.1-0.1,0.2-0.2,0.2c0,0-0.1,0.1-0.1,0.2s-0.1,0.2-0.1,0.2s0.1,0.1,0.1,0.2c0,0,0.1,0,0.1,0.1c0.1,0.1,0.1,0.2,0.1,0.3
		s0.1,0.3,0,0.4h-0.2c-0.1,0-0.2,0-0.2,0c-0.1,0-0.1-0.2-0.2-0.2l-0.2-0.1c0,0-0.1-0.1-0.1-0.2s0-0.2,0-0.3s-0.1-0.2-0.2-0.2h-0.2
		c0,0-0.1,0.1-0.1,0.2c0,0,0,0.2-0.1,0.2h-0.2c-0.1,0-0.1-0.2-0.2-0.2c0,0-0.1,0-0.2,0c-0.1,0-0.2,0.1-0.3,0.2c0,0.1,0,0.3,0,0.4
		s-0.1,0.2-0.2,0.2h-0.1c0,0,0-0.2-0.1-0.2h-0.1v0.2c0,0.1-0.1,0.2-0.2,0.2c-0.1,0-0.1-0.1-0.1-0.2s0-0.2,0-0.2s-0.1,0-0.2,0
		c-0.1,0-0.1,0.2-0.2,0.2c-0.1,0.1-0.3,0.1-0.3,0.1c-0.1,0.1-0.1,0.2-0.2,0.3c-0.1,0-0.2,0.1-0.3,0c-0.1,0-0.2-0.3-0.3-0.3
		c0,0-0.1-0.1-0.1,0c-0.1,0-0.3,0.2-0.3,0.3c-0.1,0.1,0,0.4,0,0.5s0,0.2,0,0.3s-0.1,0.2-0.1,0.2c-0.1,0.1-0.2,0.3-0.2,0.4
		c-0.1,0.1-0.2,0.4-0.3,0.6s-0.3,0.5-0.4,0.6c-0.1,0.1-0.2,0.3-0.3,0.5c0,0.1,0,0.3,0.1,0.4c0,0.1,0.2,0.2,0.3,0.3s0.1,0.5,0.1,0.6
		c0,0.2,0.1,0.6,0.1,0.8c0,0.3-0.1,0.8,0,1.1c0,0.2,0.2,0.5,0.2,0.7c0,0.1,0,0.3,0,0.4s0.2,0.4,0.2,0.6c0,0.1,0.1,0.3,0,0.4
		c0,0.1-0.2,0-0.3,0.1c0,0.1,0.1,0.2,0.1,0.3s0,0.2,0,0.3s-0.2,0.3-0.2,0.4c-0.1,0.1-0.3,0.3-0.4,0.4c-0.2,0.3-0.4,0.9-0.6,1.2
		c-0.1,0.2-0.5,0.7-0.7,0.9c0,0.1-0.1,0.2-0.1,0.2c0,0.1-0.1,0.2-0.2,0.3c-0.1,0.1-0.4,0.1-0.4,0.2c-0.1,0.1-0.3,0.5-0.4,0.6
		c-0.1,0.1-0.2,0.4-0.3,0.5s-0.2,0.2-0.2,0.3c0,0.2,0,0.5,0,0.7s0,0.5-0.1,0.7c0,0.1-0.1,0.4-0.1,0.5s0.1,0.4,0.1,0.5
		c0,0,0.1,0.1,0.1,0.2c0.1,0.1,0.3,0.1,0.3,0.2c0.1,0.1,0.1,0.4,0.1,0.5s0,0.3,0,0.4s0.2,0.2,0.2,0.3s0,0.2-0.1,0.3
		c0,0.1-0.2,0.3-0.2,0.4s-0.1,0.2-0.1,0.3c0,0.2,0.1,0.5,0.1,0.7c0,0.1,0,0.4,0,0.5c0,0.2,0,0.5,0,0.6s0.1,0.4,0.1,0.5
		c0.1,0.2,0.3,0.4,0.5,0.5c0.1,0.1,0.4,0.4,0.5,0.5s0.5,0.4,0.6,0.5s0.4,0.5,0.5,0.6s0.4,0.2,0.5,0.2s0.3,0,0.4,0
		c0.1,0,0.2-0.1,0.3-0.1s0.2-0.1,0.2-0.2c0.1-0.1,0.3-0.2,0.4-0.2c0.1,0,0.4-0.1,0.5-0.1s0.2-0.1,0.2-0.1c0.1,0,0.2,0,0.3,0
		s0.3,0,0.4,0c0.1,0,0.1-0.1,0.2-0.1c0.1,0,0.2-0.1,0.3-0.1s0.2,0,0.3,0s0.2,0.1,0.2,0.1c0.1,0,0.2-0.1,0.2-0.1s0-0.2,0.1-0.2
		s0.2,0,0.3,0s0.2-0.2,0.2-0.2c0-0.1,0.1-0.2,0.1-0.2c0-0.1,0-0.2,0.1-0.3c0-0.1,0.2-0.4,0.3-0.5c0.1-0.2,0.3-0.7,0.4-1
		c0.2-0.4,0.6-1.3,0.8-1.7c0.3-0.6,0.8-1.7,1.1-2.3c0.4-0.8,1-2.3,1.4-3c0.2-0.4,0.6-1.3,0.8-1.8c0.3-0.6,0.8-1.8,1.1-2.3
		c0.2-0.4,0.6-1.1,0.7-1.5c0.2-0.4,0.3-1.3,0.5-1.7c0.1-0.3,0.3-0.8,0.4-1c0-0.1,0.1-0.3,0.1-0.5c0-0.1,0.1-0.4,0.1-0.5
		c0.1-0.2,0.2-0.5,0.2-0.6c0.1-0.1,0.3-0.4,0.3-0.5c0.1-0.1,0.3-0.3,0.4-0.5c0.1-0.1,0.2-0.2,0.3-0.4c0-0.1,0-0.4,0-0.5s0-0.3,0-0.3
		c0-0.1-0.2-0.3-0.2-0.3c0-0.1,0-0.3,0-0.4s0.1-0.2,0.1-0.3s0-0.2,0-0.3s0.1-0.2,0.1-0.3s0-0.3,0.1-0.4c0-0.1,0.1-0.2,0.1-0.2
		s0.1,0,0.2,0c0.1,0,0.2,0,0.2,0.1c0,0,0.1,0.2,0.1,0.3s0,0.3,0,0.4s0,0.3,0,0.4s0.1,0.2,0.1,0.3c0.1,0.1,0.2,0.1,0.3,0.1
		s0.2,0,0.2,0c0.1-0.1,0.1-0.2,0.1-0.3s0-0.3,0-0.4s0-0.3,0-0.5C177.1,128.9,177,128.6,176.9,128.5z"/>
	<path class="st0" d="M152.8,50.6L152.8,50.6L152.8,50.6v0.2c0,0.1,0.2,0.1,0.2,0.1s0.1,0.1,0.2,0.1l0.1,0.1c0.1,0,0.2-0.1,0.3-0.1
		s0.2,0,0.2,0l0.1-0.2c0,0-0.1-0.1-0.1-0.2c0,0-0.1-0.1-0.2-0.1c0,0-0.1,0.1-0.2,0.1c-0.1,0-0.2-0.1-0.2-0.1s0-0.2-0.1-0.2l-0.1-0.1
		c-0.1,0-0.2,0-0.2,0l-0.1,0.1h-0.1c0,0,0,0.1,0,0.2C152.7,50.6,152.7,50.6,152.8,50.6z"/>
	<path class="st0" d="M152.9,50c0.1,0,0.2,0,0.3,0l0.1-0.1c0-0.1-0.1-0.2-0.1-0.2c-0.1,0-0.2-0.1-0.3-0.1h-0.2c0,0-0.1,0.2,0,0.2
		C152.8,49.9,152.9,50,152.9,50z"/>
	<path class="st0" d="M180.8,62.9c0,0-0.1,0-0.2,0c0,0-0.1,0-0.1,0.1c0,0-0.1,0.2,0,0.2c0,0.1,0.1,0.2,0.2,0.3c0.1,0,0.2,0,0.2,0
		c0.1,0,0.2-0.2,0.2-0.3C181,63.1,180.9,63,180.8,62.9z"/>
	<path class="st0" d="M180.3,61.6c0-0.1,0-0.3-0.1-0.4c0-0.1-0.2-0.2-0.3-0.3c0-0.1,0-0.3,0-0.4s0-0.2,0.1-0.3
		c0-0.1,0.2-0.1,0.2-0.2c0.1-0.1,0.1-0.3,0.1-0.4s0-0.2,0-0.2c-0.1-0.1-0.2,0-0.3,0c0,0-0.1-0.1-0.2-0.1c0,0-0.1-0.1-0.2-0.1
		c-0.1,0-0.2-0.1-0.3-0.1s-0.2,0-0.3,0s-0.3,0.1-0.3,0.1c-0.1,0.1-0.1,0.3-0.2,0.4c-0.1,0.1-0.2,0.2-0.3,0.3s-0.2,0.2-0.3,0.2
		s-0.3,0-0.4,0c-0.2,0-0.4,0.2-0.6,0.2c-0.2,0-0.5,0.1-0.7,0.1c0,0-0.1,0.1-0.2,0.1c-0.1,0-0.2,0-0.3,0s-0.3,0.1-0.4,0.1
		c-0.1,0-0.2,0.1-0.3,0.2c-0.1,0-0.2,0.1-0.3,0.1s-0.2,0-0.3,0s-0.2-0.1-0.3-0.1s-0.2,0-0.3,0.1c-0.1,0-0.2,0.2-0.3,0.3
		c-0.1,0-0.2,0.1-0.3,0.1s-0.2,0-0.3,0s-0.2,0-0.3,0s-0.2,0.1-0.2,0.1c-0.1,0-0.3,0.1-0.4,0.1c-0.1,0-0.2,0-0.2-0.1l-0.1-0.1
		c-0.1,0-0.3,0-0.4,0c-0.1,0-0.2,0-0.2,0c-0.1,0-0.1,0.2-0.2,0.3c0,0.1-0.1,0.2-0.2,0.2c-0.1,0-0.2,0.1-0.2,0.1s-0.1,0-0.2,0
		c-0.1,0-0.1,0.2-0.2,0.2c0,0.1-0.1,0.2-0.2,0.2c-0.1,0.1-0.4,0-0.5,0.1c-0.1,0-0.3,0-0.4,0c-0.1,0-0.2,0-0.2,0
		c-0.1,0-0.2-0.1-0.2-0.1c-0.1,0-0.2,0-0.3,0s-0.2,0.1-0.2,0.1c-0.1,0-0.3-0.1-0.3-0.1c-0.1,0-0.1-0.1-0.2-0.2c0,0-0.1,0-0.2,0
		c-0.1,0-0.1,0.2-0.2,0.3c-0.1,0.1-0.2,0.2-0.3,0.2c-0.1,0.1-0.2,0.2-0.3,0.2s-0.2,0.1-0.3,0.2c-0.1,0-0.2,0.1-0.3,0.1
		s-0.2,0.1-0.3,0.2c0,0-0.1,0.1-0.2,0.1c-0.1,0-0.4,0-0.5,0s-0.2-0.1-0.2-0.1c-0.1,0-0.2,0-0.2,0c-0.1,0-0.3,0-0.4,0
		c-0.1,0-0.4-0.1-0.5-0.2c-0.2-0.1-0.4-0.5-0.6-0.7c-0.2-0.2-0.7-0.7-0.9-0.9c-0.1-0.1-0.3-0.3-0.4-0.4c-0.1-0.1-0.2-0.3-0.3-0.3
		c0,0-0.1,0-0.1-0.1l-0.1-0.1c-0.1,0-0.3-0.1-0.4-0.1c-0.1,0-0.2,0.2-0.3,0.2s-0.3,0-0.4,0c0,0,0,0.1-0.1,0.1s-0.2,0.1-0.2,0.1
		c-0.1,0-0.2-0.1-0.2-0.2c0,0,0-0.1,0-0.2c0,0,0.1,0,0.2,0c0.1,0,0.2,0,0.3,0c0.1-0.1,0.1-0.3,0.1-0.3h0.2c0.1,0,0.1-0.2,0.1-0.2
		c0-0.1,0.1-0.2,0.1-0.3c0.1-0.1,0.3,0,0.4,0c0.1,0,0.3-0.1,0.4-0.2c0,0,0-0.1,0-0.2s0-0.3,0-0.4c0-0.2-0.2-0.5-0.3-0.7
		c0-0.1-0.1-0.4-0.2-0.5c-0.1-0.1-0.3-0.2-0.3-0.2l-0.1-0.1v-0.1c0-0.1-0.1-0.2-0.1-0.2l-0.1,0.1c-0.1,0-0.2,0-0.3,0
		S160,57.1,160,57c0,0,0-0.2-0.1-0.2c0-0.1-0.2-0.2-0.2-0.2c-0.1,0-0.3,0-0.4,0c-0.1,0-0.2-0.1-0.2-0.2s0-0.2,0-0.3
		s-0.1-0.2-0.1-0.2c0-0.1-0.1-0.2-0.2-0.3c0,0-0.1-0.1-0.2-0.1c-0.1,0-0.2,0-0.2,0c-0.1,0-0.1-0.2-0.2-0.3c0-0.1,0-0.2-0.1-0.3
		c0-0.1-0.2-0.1-0.3-0.1s-0.3,0.1-0.4,0.1c-0.1,0-0.1-0.3-0.2-0.4c0-0.1,0-0.2-0.1-0.2c0-0.1-0.1-0.1-0.2-0.2
		c-0.1-0.1-0.2-0.2-0.3-0.2c-0.1-0.1-0.2-0.2-0.3-0.3s-0.1-0.3-0.2-0.4c-0.1-0.1-0.2-0.2-0.3-0.2s-0.2,0-0.3,0s-0.2,0-0.3,0
		s-0.1-0.1-0.2-0.1c-0.1,0-0.2-0.1-0.3-0.1c0,0-0.1-0.1-0.2-0.1c0,0-0.1-0.1-0.1-0.2l-0.1-0.1c-0.1-0.1-0.1-0.2-0.2-0.2
		c0,0-0.1-0.1-0.2-0.1c-0.1,0-0.2,0-0.3,0.1c0,0-0.1,0.1-0.1,0.2c0,0-0.1,0-0.2,0c0,0-0.1-0.1-0.1-0.2c0,0,0-0.2-0.1-0.2
		c0,0-0.1,0-0.2,0l-0.1-0.2c0-0.1-0.1-0.2-0.1-0.3c0,0,0-0.1-0.1-0.2l-0.1-0.1c0,0-0.1-0.1-0.2-0.1c-0.1,0-0.2,0-0.2,0.1l-0.1,0.2
		c0,0.1,0,0.2,0.1,0.3c0,0,0.1,0,0.2,0c0,0,0.1,0.1,0.1,0.2s0,0.2-0.1,0.2c0,0-0.1,0.1-0.2,0.1c-0.1,0-0.2,0-0.2-0.1
		c-0.1-0.1-0.1-0.3-0.1-0.3c0-0.1,0-0.2,0-0.2c0-0.1-0.1-0.2-0.1-0.2c0-0.1-0.1-0.2-0.1-0.3c0,0-0.1-0.1-0.2-0.1
		c-0.1,0-0.2-0.1-0.2-0.2s0-0.2-0.1-0.3c0-0.1-0.1-0.2-0.1-0.2c-0.1-0.1-0.2-0.1-0.2-0.2c-0.1-0.1-0.1-0.2-0.2-0.3
		c-0.1-0.2-0.3-0.6-0.3-0.9c-0.1-0.2-0.2-0.6-0.2-0.8c-0.1-0.2-0.2-0.7-0.3-1c-0.1-0.2-0.2-0.7-0.3-0.9c0-0.1-0.1-0.4-0.2-0.5
		c-0.1-0.2-0.2-0.5-0.4-0.6c-0.1-0.1-0.3-0.1-0.3-0.2c0,0,0-0.1-0.1-0.1l0,0c0-0.1-0.1-0.2-0.1-0.2c-0.1,0-0.2-0.1-0.3-0.1
		s-0.2-0.1-0.3-0.1c0,0-0.1-0.1-0.2-0.1c0-0.1-0.1-0.2-0.1-0.3c-0.1-0.1-0.2-0.2-0.3-0.2s-0.2-0.1-0.3-0.1s-0.3-0.1-0.4-0.1
		c-0.1,0-0.3-0.1-0.4-0.1c-0.1,0-0.2-0.1-0.3-0.2s-0.2-0.3-0.2-0.4c-0.1-0.2-0.1-0.5-0.1-0.6c0-0.2-0.1-0.7-0.1-0.9
		s-0.1-0.7-0.2-0.9c0-0.2-0.1-0.6-0.1-0.8c-0.1-0.3-0.2-0.8-0.2-1.1c0-0.2-0.1-0.5-0.1-0.7c0-0.1,0.1-0.2,0-0.3
		c0-0.1-0.1-0.3-0.1-0.3c-0.1-0.1-0.2-0.2-0.3-0.3s-0.3-0.2-0.4-0.4c-0.1-0.1-0.1-0.3-0.1-0.5c0-0.1,0-0.3,0-0.4s-0.1-0.2-0.1-0.3
		c-0.1-0.1-0.2-0.3-0.3-0.4s-0.3-0.2-0.4-0.2c-0.1-0.1-0.4-0.4-0.6-0.5c-0.1-0.1-0.2-0.2-0.3-0.3s-0.3-0.1-0.4-0.1
		c-0.1,0-0.3,0-0.4-0.1c-0.1,0-0.2-0.2-0.3-0.3s-0.3-0.4-0.4-0.5c0,0-0.1-0.1-0.1-0.2c0,0,0,0.1-0.1,0.1c0,0,0-0.1,0.1-0.1
		c0,0,0-0.1-0.1-0.1c-0.1-0.1-0.2-0.2-0.2-0.2c0-0.1,0-0.4,0-0.5s0-0.3,0-0.3c0-0.1-0.2-0.3-0.2-0.5c0-0.1,0-0.2,0.1-0.2
		c0,0,0.1,0,0.2,0c0.1,0,0.1,0.1,0.2,0.1c0,0,0.1,0,0.2-0.1c0,0,0.1-0.1,0.1-0.2s-0.1-0.2-0.1-0.2c-0.1-0.1-0.3-0.1-0.3-0.2
		c-0.1-0.1-0.3-0.2-0.4-0.3c-0.1-0.1-0.5-0.3-0.6-0.4s-0.3-0.4-0.4-0.5c-0.2-0.3-0.5-0.9-0.7-1.1c-0.2-0.3-0.5-0.8-0.7-1.1
		c-0.2-0.3-0.6-1-0.8-1.4c-0.2-0.3-0.6-1-0.8-1.4c-0.2-0.3-0.5-0.9-0.7-1.2c-0.1-0.1-0.2-0.2-0.2-0.3c-0.1-0.1-0.2-0.2-0.3-0.3
		c-0.1-0.1-0.1-0.3-0.1-0.5c0-0.1,0-0.2,0-0.3c0-0.1,0-0.2-0.1-0.2c-0.1-0.1-0.2-0.1-0.3-0.1c-0.1-0.1-0.3-0.2-0.3-0.3
		c-0.2-0.1-0.5-0.4-0.6-0.6s-0.4-0.6-0.5-0.7s-0.2-0.3-0.2-0.4s-0.1-0.2-0.2-0.3c0-0.1,0-0.2,0-0.3c0-0.1,0-0.2-0.1-0.3
		c0-0.1-0.1-0.2-0.1-0.3c0-0.1-0.1-0.2-0.2-0.2c-0.1,0-0.2-0.1-0.3-0.1c0-0.1,0-0.2,0-0.3c0-0.1,0-0.2,0.1-0.2c0,0,0.1-0.1,0.1-0.2
		s0-0.2,0-0.2c0-0.1,0.2-0.2,0.2-0.1l0.1,0.1c0,0.1,0,0.3,0,0.3c0,0.1,0.2,0.3,0.2,0.4s0.1,0.2,0.1,0.3c0,0.1,0.1,0.2,0.2,0.3
		c0,0.1,0.1,0.2,0.2,0.2c0.1,0.1,0.2,0.2,0.3,0.2c0.1,0.1,0.2,0.2,0.3,0.3c0.1,0.1,0.2,0.4,0.2,0.5s0,0.3,0,0.3
		c0,0.1,0.2,0.1,0.2,0.2c0.1,0.1,0.2,0.2,0.3,0.3c0.1,0.1,0.2,0.2,0.3,0.2c0.1,0.1,0.4,0.4,0.5,0.5s0.3,0.4,0.4,0.5
		c0.1,0.1,0.2,0.3,0.2,0.3c0.1,0.1,0.4,0,0.5,0s0.3,0,0.3-0.1c0.1-0.1,0.1-0.3,0.1-0.4s-0.1-0.4-0.1-0.6c0-0.1-0.1-0.3-0.1-0.4
		c0-0.2,0.1-0.6,0.2-0.8c0-0.1,0.2-0.4,0.2-0.6c0-0.1,0-0.4,0-0.6s0.1-0.5,0.1-0.6s0-0.3-0.1-0.4c-0.1-0.2-0.3-0.5-0.4-0.7
		c-0.1-0.1-0.1-0.4-0.2-0.5c-0.1-0.1-0.2-0.3-0.3-0.5c0-0.1-0.2-0.2-0.2-0.3c-0.1-0.1-0.1-0.3-0.2-0.4c0-0.1-0.1-0.4-0.1-0.5
		c-0.1-0.1-0.2-0.4-0.3-0.5s-0.2-0.3-0.3-0.5c0-0.1-0.1-0.3-0.2-0.3c-0.1,0-0.2,0-0.2,0.1c-0.1,0.1-0.3,0.2-0.4,0.3
		c-0.1,0.1-0.2,0.1-0.3,0.2c-0.2,0.1-0.5,0.2-0.7,0.2c-0.1,0-0.2,0-0.3,0s-0.1-0.2-0.1-0.3c-0.1,0-0.2,0-0.2,0
		c-0.1,0-0.2,0.2-0.3,0.2s-0.2,0.1-0.3,0.1s-0.3-0.1-0.4-0.1c-0.1,0-0.3-0.2-0.4-0.2l-0.1-0.2c-0.1-0.1-0.3-0.1-0.3-0.1
		c-0.1-0.1-0.3-0.2-0.4-0.2c-0.1-0.1-0.2-0.3-0.3-0.3s-0.2,0.1-0.3,0.1c0,0-0.1,0.1-0.2,0.1c-0.1,0-0.3,0-0.4,0c-0.1,0-0.3,0-0.3,0
		c-0.1,0-0.3,0-0.4,0c-0.1,0-0.2-0.2-0.3-0.1c-0.1,0,0,0.3,0,0.3c0,0.1-0.2,0.1-0.3,0.1s-0.2,0.1-0.2,0.1c-0.1,0-0.2,0.1-0.2,0.1
		c-0.1,0-0.3,0-0.3-0.1v-0.2l0.2-0.1c0.1,0,0.2-0.1,0.2-0.1l0.2-0.1c0-0.1-0.2,0-0.3,0s-0.2,0-0.3,0s-0.2,0.1-0.2,0.2
		c-0.1,0.1-0.3,0.1-0.4,0.2c-0.1,0.1-0.4,0.2-0.5,0.3c-0.2,0.1-0.4,0.3-0.6,0.4c-0.2,0.1-0.4,0.4-0.6,0.5c-0.1,0.1-0.5,0.3-0.6,0.4
		c-0.1,0-0.3,0.1-0.4,0.1s-0.3-0.2-0.4-0.2c-0.1-0.1-0.3-0.2-0.4-0.2c-0.2-0.1-0.6,0-0.8,0c-0.1,0-0.3,0-0.4,0s-0.3-0.2-0.5-0.3
		c-0.1,0-0.4,0-0.5-0.1c-0.3-0.1-1-0.2-1.4-0.3s-1.2-0.3-1.6-0.4c-0.3,0-0.8-0.1-1.1-0.1c-0.1,0-0.2,0-0.3,0s-0.3,0.1-0.4,0.1
		s-0.3,0-0.4,0s-0.3-0.1-0.4-0.1c0,0-0.1-0.1-0.1-0.2V13c0-0.1,0-0.3-0.1-0.3c-0.1-0.1-0.3-0.2-0.4-0.3c-0.1,0-0.3-0.1-0.4-0.1
		c-0.2,0-0.5,0-0.6,0c-0.2,0-0.7-0.1-0.9-0.1c-0.1,0-0.3,0-0.4,0s-0.3,0-0.4,0s-0.2-0.1-0.3-0.2c-0.1,0-0.4,0-0.5,0
		s-0.2-0.1-0.3-0.1s-0.2-0.1-0.3-0.2l-0.1-0.2l0.1-0.1c0-0.1,0-0.2-0.1-0.3c0-0.1-0.1-0.2-0.1-0.2c-0.1-0.1-0.5,0-0.6,0
		c-0.2,0-0.4-0.2-0.6-0.3s-0.6-0.1-0.8-0.1s-0.6,0.1-0.8,0.1s-0.6,0-0.8,0s-0.6,0-0.8,0.1s-0.5,0.5-0.7,0.6
		c-0.2,0.2-0.6,0.5-0.8,0.6s-0.5,0.4-0.6,0.5s-0.1,0.3-0.1,0.4s0,0.4,0,0.5s0.2,0.1,0.2,0.2c0.1,0.1,0,0.5,0.1,0.6
		c0,0.1,0.3,0.3,0.3,0.4s0,0.5-0.1,0.6s-0.3,0.3-0.4,0.4c-0.1,0.1-0.3,0.5-0.4,0.6c-0.2,0.2-0.7,0.4-1,0.5c-0.1,0-0.3,0.1-0.4,0.1
		s-0.4,0-0.5-0.1s-0.4-0.3-0.5-0.4s-0.3-0.3-0.5-0.4c-0.1-0.1-0.5-0.3-0.6-0.3c-0.2-0.1-0.5-0.1-0.7-0.2s-0.7-0.2-0.9-0.2
		c-0.3-0.1-0.8-0.3-1.1-0.4s-1-0.3-1.4-0.4c-0.2-0.1-0.7-0.2-0.9-0.3c-0.1-0.1-0.3-0.3-0.3-0.4c-0.1-0.1-0.3-0.3-0.4-0.4
		c-0.1-0.1-0.3-0.3-0.3-0.4s0-0.4,0-0.5s-0.1-0.3-0.1-0.4c-0.1-0.1-0.4-0.2-0.6-0.3c-0.1-0.1-0.4-0.1-0.6-0.2
		c-0.3-0.1-1-0.2-1.3-0.3c-0.2,0-0.5-0.1-0.7-0.2c-0.1,0-0.4-0.2-0.5-0.2s-0.3,0-0.3-0.1c-0.1,0-0.2-0.1-0.2-0.1
		c-0.1,0-0.2-0.1-0.3-0.1s-0.2,0-0.3,0s-0.3,0.1-0.3,0.1c-0.1,0-0.3,0.1-0.3,0.1c-0.1,0-0.4,0-0.6,0c-0.1,0-0.3,0-0.4,0
		c-0.2,0-0.5-0.2-0.6-0.3s-0.4-0.2-0.5-0.2c-0.1-0.1-0.4-0.2-0.5-0.2s-0.2-0.1-0.3-0.1l0,0c-0.1,0-0.2-0.1-0.2-0.1
		c-0.1,0-0.2,0-0.3,0s-0.2,0-0.2-0.1c-0.1-0.1-0.1-0.3-0.1-0.4S84.6,9,84.6,9l-0.1-0.1c0,0-0.1,0-0.2,0c0,0-0.1,0.1-0.2,0.1
		s-0.2,0-0.2,0l-0.1-0.1l-0.1-0.1c-0.1,0-0.2,0-0.3,0s-0.2,0-0.2,0c-0.1,0-0.2-0.2-0.2-0.2c-0.1,0-0.2,0-0.2-0.1
		c-0.1-0.1-0.1-0.2-0.1-0.3s0-0.2,0-0.3c0-0.1,0-0.2,0.1-0.3c0,0,0.1,0,0.2,0.1l0.1,0.1h0.1V7.6c0,0-0.1-0.1-0.1-0.2
		s0.1-0.2,0.1-0.2c0.1-0.1,0.3,0,0.3-0.1c0.1,0,0.1-0.2,0.2-0.3c0.1-0.1,0.5-0.3,0.7-0.4s0.5-0.5,0.6-0.7c0.1-0.1,0.3-0.4,0.3-0.6
		c0-0.1,0-0.4,0-0.6c0-0.1-0.1-0.3-0.1-0.3C85.2,4.1,85,4,85,4l-0.1-0.1c0-0.1,0-0.2-0.1-0.3c0,0-0.1-0.1-0.2-0.1s-0.2-0.1-0.3-0.1
		s-0.2-0.1-0.2-0.2c-0.1-0.1-0.1-0.5,0-0.6c0-0.1,0-0.2,0.1-0.3c0-0.1,0.1-0.3,0.1-0.3c0.1-0.1,0.2-0.1,0.3-0.1s0.2,0,0.3,0
		s0.2-0.2,0.2-0.3c0.1-0.1,0.2-0.2,0.2-0.3c0-0.1,0.1-0.2,0.1-0.3c0-0.1,0-0.2,0-0.3s-0.1-0.2-0.2-0.2s-0.2,0-0.2,0
		c-0.1,0-0.1,0.2-0.2,0.2c-0.1,0.1-0.1,0.2-0.2,0.3s-0.2,0.2-0.2,0.2c-0.1,0-0.2,0.1-0.3,0.1s-0.2-0.1-0.2-0.1S83.8,1.1,83.8,1
		s0-0.2,0-0.2s0-0.1-0.1-0.1c0-0.1-0.1-0.2-0.1-0.2c0-0.1,0-0.2,0-0.3s-0.2-0.1-0.3-0.1s-0.3,0-0.4,0S82.6,0,82.6,0
		c-0.1,0-0.3,0-0.4,0s-0.4,0.1-0.5,0.1c-0.1,0.1-0.4,0.2-0.6,0.3c-0.1,0.1-0.3,0.2-0.4,0.3c0,0,0,0-0.1,0s-0.2,0.1-0.2,0.1
		c-0.1,0-0.3,0-0.4,0s-0.3,0-0.4-0.1l-0.1-0.1c-0.1,0-0.2,0.1-0.3,0.2c-0.1,0-0.4,0.1-0.5,0.1s-0.3,0.1-0.4,0
		c-0.1,0-0.2-0.3-0.3-0.4s-0.2-0.2-0.3-0.2s-0.2,0.1-0.2,0.1c-0.1,0-0.2,0.2-0.3,0.2S77,0.6,77,0.7c-0.1,0-0.2,0-0.3,0
		s-0.1-0.1-0.2-0.2c-0.1,0-0.3,0-0.3,0c-0.1,0-0.2-0.2-0.2-0.2c-0.1,0-0.2-0.1-0.3-0.1s-0.1,0.1-0.2,0.2s-0.1,0.2-0.2,0.2
		S75.1,0.7,75,0.7s-0.4,0.1-0.6,0.1c-0.1,0-0.4,0.1-0.6,0.2c-0.1,0-0.3,0.2-0.4,0.2S73.1,1.1,73,1.1l-0.1-0.2c0-0.1-0.2-0.2-0.2-0.2
		c-0.1,0-0.3,0-0.4,0c-0.2,0-0.5,0-0.6,0s-0.4-0.2-0.5-0.2c-0.2,0-0.5,0.1-0.6,0.1s-0.3,0.1-0.3,0.1c-0.1,0-0.4,0.1-0.6,0.1
		c-0.1,0-0.3,0-0.4,0s-0.3,0-0.4,0.1c-0.2,0-0.5,0.2-0.6,0.2c-0.2,0.1-0.7,0.1-1,0.1c-0.2,0-0.6,0-0.9,0c-0.2,0-0.6,0.1-0.8,0.2
		c-0.1,0-0.3,0-0.4,0c-0.2,0-0.5,0.1-0.7,0.1c-0.1,0-0.3,0-0.4,0.1c-0.1,0-0.2,0.2-0.3,0.2s-0.3,0.1-0.4,0.1s-0.2,0-0.3,0
		s-0.3,0.2-0.3,0.3c-0.1,0.1-0.1,0.3-0.2,0.4s-0.2,0.2-0.3,0.2S62.1,2.9,62,2.9s-0.1-0.1-0.2-0.2c0,0-0.1-0.1-0.2-0.1
		s-0.2,0.2-0.3,0.2s-0.2,0.1-0.2,0.1c-0.1,0-0.2,0-0.3,0s-0.1-0.1-0.2-0.1S60.3,3,60.3,3.1c-0.1,0.1-0.4,0.4-0.6,0.5
		c-0.1,0.1-0.2,0.3-0.3,0.4c-0.1,0.1-0.3,0.1-0.4,0.2c-0.1,0-0.3,0.1-0.4,0.1s-0.3,0.1-0.4,0.1s-0.2,0-0.3,0l0,0
		c-0.1,0-0.2-0.1-0.3-0.1s-0.3,0-0.4,0s-0.2,0-0.3,0s-0.2-0.1-0.3-0.1S56.4,4.1,56.4,4c-0.1,0-0.2-0.1-0.3-0.1C56,3.9,55.8,4,55.7,4
		c-0.2,0-0.5,0-0.7,0s-0.5-0.2-0.7-0.2c-0.1,0-0.3,0.1-0.4,0.1S53.7,4,53.6,4c-0.1,0-0.3,0.1-0.3,0c-0.1,0-0.3-0.2-0.4-0.3
		c-0.1-0.1-0.3-0.2-0.3-0.3c-0.1-0.1-0.4-0.3-0.6-0.5c-0.1-0.1-0.2-0.4-0.3-0.5s-0.1-0.3-0.2-0.3s-0.3,0-0.3,0
		c-0.1,0-0.3,0.1-0.3,0.1c-0.1,0-0.3,0.1-0.3,0.2c-0.1,0.1-0.1,0.3-0.2,0.3c-0.1,0.2-0.3,0.5-0.4,0.6c-0.1,0.2-0.3,0.4-0.4,0.6
		s-0.3,0.5-0.4,0.7c-0.1,0.1-0.3,0.4-0.4,0.5s-0.2,0.3-0.3,0.4s-0.2,0.4-0.3,0.6c-0.1,0.1-0.3,0.4-0.4,0.4c-0.1,0.1-0.3,0.2-0.3,0.2
		c-0.1,0.1-0.4,0.1-0.5,0.2c-0.1,0-0.3,0.2-0.4,0.2s-0.4,0.1-0.5,0.2c-0.2,0.1-0.5,0.2-0.6,0.3c-0.1,0.1-0.4,0.2-0.5,0.2
		s-0.3,0-0.4,0.1c-0.1,0-0.2,0.1-0.2,0.2c-0.1,0.1-0.3,0.2-0.4,0.3c-0.1,0.1-0.2,0.3-0.3,0.4c-0.1,0.1-0.3,0.3-0.4,0.3
		c-0.1,0.1-0.4,0.2-0.5,0.3s-0.2,0.3-0.2,0.3c0,0.1,0,0.3,0,0.4s-0.2,0.3-0.2,0.5c-0.1,0.1-0.2,0.2-0.3,0.3C42,11,41.8,11,41.7,11.1
		s-0.1,0.3-0.2,0.4s-0.3,0.3-0.3,0.4c0,0-0.3,0.4-0.4,0.6s-0.1,0.6-0.2,0.8c0,0.1-0.2,0.4-0.2,0.5s-0.1,0.3-0.1,0.4s0,0.2,0.1,0.3
		c0,0.1,0.1,0.2,0.1,0.3s0.1,0.4,0.1,0.5c0,0.2-0.1,0.5-0.1,0.7c-0.1,0.1-0.3,0.3-0.4,0.4s-0.3,0.4-0.4,0.6
		c-0.1,0.1-0.3,0.4-0.5,0.5c-0.1,0.1-0.4,0.5-0.5,0.6c-0.2,0.1-0.5,0.4-0.7,0.4c-0.1,0.1-0.5,0.1-0.6,0.1s-0.4,0.1-0.5,0.2
		s-0.3,0.3-0.4,0.4s-0.4,0.4-0.6,0.5c-0.1,0.1-0.4,0.2-0.5,0.2c-0.3,0.1-0.9,0.2-1.2,0.2c-0.2,0-0.7,0.2-0.9,0.2
		c-0.1,0-0.4,0-0.6,0.1c-0.1,0.1-0.3,0.3-0.4,0.4c0,0,0,0.1-0.1,0.1c-0.2,0.2-0.6,0.7-0.7,0.9c-0.1,0.2-0.3,0.5-0.4,0.7
		s-0.3,0.5-0.5,0.6s-0.6,0.3-0.8,0.4c-0.2,0.1-0.6,0.2-0.8,0.4c-0.2,0.1-0.5,0.5-0.6,0.7c-0.1,0.1-0.2,0.4-0.3,0.5
		c-0.1,0.2-0.2,0.5-0.3,0.7c-0.1,0.2-0.3,0.6-0.4,0.8c-0.1,0.2-0.2,0.5-0.3,0.6c-0.1,0.2-0.5,0.6-0.7,0.8c-0.3,0.3-0.8,0.8-1.1,1.1
		c-0.1,0.1-0.2,0.3-0.3,0.4c0,0.1-0.2,0.1-0.2,0.2c-0.1,0.1-0.2,0.2-0.2,0.3c0,0.1-0.1,0.3-0.1,0.4c-0.1,0.1-0.3,0.2-0.4,0.3
		c-0.1,0.1-0.2,0.2-0.2,0.3c-0.1,0.1-0.4,0.4-0.5,0.5c0,0.1,0,0.3,0,0.5c0,0.1-0.1,0.3-0.1,0.4s-0.2,0.2-0.2,0.3
		c-0.1,0.1-0.2,0.3-0.3,0.4c-0.1,0.1-0.3,0.4-0.5,0.6c-0.1,0.1-0.3,0.2-0.4,0.2c-0.1,0.1-0.4,0.4-0.5,0.5s-0.1,0.4-0.1,0.5
		c0,0.2-0.1,0.5-0.2,0.7c0,0.1-0.1,0.3-0.1,0.4s0,0.4,0,0.5s-0.2,0.2-0.2,0.3s0,0.3,0,0.3H21v-0.2c0,0,0.1,0,0.2,0c0,0,0,0,0.1,0
		c0.1,0.1,0.1,0.3,0.1,0.4s0.1,0.3,0.1,0.5c0,0.1,0.1,0.2,0.1,0.3c0,0,0.1,0.1,0.2,0.1s0.2-0.1,0.2-0.1c0.1,0.1,0.1,0.3,0.1,0.4
		s0.1,0.2,0.2,0.3c0,0.1,0,0.3,0,0.5s-0.1,0.5-0.1,0.6s-0.1,0.3-0.2,0.4c0,0.1-0.2,0.3-0.2,0.4c0,0-0.2,0.1-0.2,0.2
		c0,0-0.2,0.1-0.2,0.2s0,0.2,0,0.2c0,0.1,0.1,0.2,0.1,0.2c0,0.1,0.2,0.1,0.2,0.2c0.1,0.1,0.2,0.3,0.2,0.5c0,0.1,0.1,0.4,0.1,0.5
		c0,0.3-0.1,0.9-0.1,1.1s0,0.7,0,0.9s-0.1,0.7-0.1,0.9c-0.1,0.2-0.3,0.7-0.4,0.9s-0.3,0.7-0.3,0.9c-0.1,0.2-0.2,0.5-0.3,0.7
		c0,0.1-0.1,0.2-0.1,0.3s-0.1,0.2-0.1,0.3c-0.1,0.2-0.3,0.4-0.4,0.6c0,0.1,0,0.4,0,0.6c0,0.1,0,0.4-0.1,0.6
		c-0.1,0.1-0.2,0.4-0.3,0.5c-0.1,0.1-0.3,0.4-0.5,0.6c-0.1,0.1-0.4,0.4-0.6,0.5c-0.1,0.1-0.4,0.3-0.5,0.3c-0.1,0.1-0.3,0.1-0.3,0.2
		s0,0.3,0,0.3c0,0.1,0.2,0.1,0.2,0.2c0.1,0.1,0.1,0.2,0.2,0.3c0,0.1,0.2,0.1,0.2,0.2s0.1,0.2,0.1,0.3s0.2,0.2,0.2,0.3
		c0.1,0.1,0.2,0.1,0.2,0.2c0.1,0.1,0,0.5,0,0.6s0.1,0.2,0.1,0.2c0,0.1,0.2,0.2,0.2,0.3v0.1c0,0.1-0.1,0.2-0.1,0.3s-0.1,0.3-0.2,0.3
		l-0.2,0.1c0,0.1,0,0.2,0,0.3s-0.1,0.2-0.1,0.3c0,0,0,0.1,0.1,0.1c0,0.1,0.1,0.1,0.1,0.1c0,0.2-0.1,0.5-0.1,0.6
		c0,0.2-0.1,0.5-0.1,0.7c0,0,0,0.1,0,0.2s0,0.1,0.1,0.2c0,0.1,0.1,0.3,0.1,0.4s0.2,0.1,0.2,0.2c0.1,0,0.3,0,0.4,0.1
		c0.1,0,0.2,0.1,0.2,0.1s0,0.2,0.1,0.2c0,0.1,0.1,0.3,0.1,0.3l0.2,0.1c0.1,0,0.2-0.1,0.2-0.1c0.1,0,0.3,0.1,0.3,0.2s0,0.2,0,0.3
		c0,0,0.1,0.1,0.2,0.1s0.2,0,0.2,0c0.1,0,0.1-0.1,0.2-0.1l0.1-0.1l0.1-0.2c0,0,0.1-0.1,0.2-0.1s0.2,0,0.3,0c0.1,0,0.2,0,0.3,0
		c0.1,0,0.2,0,0.2,0c0.1,0,0.1-0.1,0.2-0.1s0.2,0,0.3,0c0.1,0,0.2,0.1,0.2,0.1s0,0.1-0.1,0.2l-0.1,0.1c-0.1,0-0.3,0-0.4,0
		s-0.2,0-0.2,0c-0.1,0-0.3-0.1-0.3,0c0,0-0.1,0-0.2,0.1c0,0-0.1,0.1-0.1,0.2v0.1c0,0.1,0.1,0.2,0.1,0.3s0,0.2-0.1,0.2
		c0,0.1-0.1,0.2-0.1,0.2c0,0.1,0,0.2,0,0.3s0.1,0.2,0.2,0.2H22c0.1,0,0.2,0,0.2,0.1l0.1,0.1v0.1v0.1c0,0.1,0,0.2,0,0.3
		c0,0,0,0.1,0.1,0.2h0.2c0.1,0,0.1-0.1,0.2-0.2c0,0,0-0.2,0.1-0.2l0.2-0.1c0.1,0,0.1,0.1,0.1,0.2s-0.1,0.2-0.1,0.3s0.1,0.2,0.2,0.2
		s0.2,0,0.3,0c0.1,0,0.1,0.2,0.1,0.2c0,0.1-0.1,0.2-0.1,0.3c0,0,0,0.1,0,0.2s0.1,0.3,0.1,0.4s0.1,0.2,0.1,0.2
		c0.1,0.1,0.2,0.1,0.3,0.1c0.1,0,0.3,0.1,0.4,0.2c0.1,0,0.3,0.1,0.4,0.2s0.2,0.3,0.2,0.4s0,0.2,0,0.3c0,0.1,0.1,0.3,0.1,0.3l0.2,0.1
		l0.2,0.1c0.1,0.1,0.1,0.2,0.1,0.3c0,0.1,0.1,0.2,0.1,0.3c0,0,0.2,0.1,0.2,0.2c0,0,0,0.1,0,0.2v0.1c0,0.1,0,0.3,0,0.4
		s0.2,0.2,0.2,0.3c0,0.1,0,0.4,0,0.5s0,0.2,0,0.3c0,0-0.2,0-0.2,0.1c0,0,0.1,0.1,0.2,0.1c0,0,0.1,0.1,0.1,0.2s0,0.2,0,0.2
		c0,0.1,0,0.2,0.1,0.2c0,0.1,0.2,0.2,0.3,0.2c0.1,0,0.2,0,0.2,0c0.1,0.1,0.1,0.3,0.1,0.4s0,0.3,0,0.4s0.2,0.1,0.3,0.2
		c0.1,0.1,0.3,0.2,0.4,0.3c0.1,0.1,0.3,0.1,0.3,0.2c0.1,0.1,0.1,0.3,0.2,0.3c0,0,0,0.1,0.1,0.1c0.1,0.1,0.2,0.1,0.3,0.2
		c0.1,0,0.2,0.1,0.3,0.2c0.1,0.1,0.2,0.2,0.3,0.2c0.1,0.1,0.3,0.1,0.5,0.2c0.1,0,0.4,0.1,0.5,0.2c0.1,0,0.1,0.1,0.2,0.2l0.1,0.1
		c0.1,0,0.1,0.2,0.2,0.2c0,0,0.2,0,0.2,0.1c0.1,0,0.2,0.1,0.2,0.1c0,0.1,0,0.2,0,0.3c0.1,0.1,0.3,0.1,0.3,0.1c0.1,0,0.2,0.1,0.3,0.2
		c0.1,0.1,0.1,0.3,0.1,0.4s0.2,0.1,0.2,0.2c0.1,0,0.3,0,0.4,0s0.3,0.2,0.4,0.2c0.1,0.1,0.3,0.3,0.4,0.4c0.3,0.2,0.9,0.7,1.2,0.9
		c0.3,0.2,0.7,0.7,1,0.9c0.1,0.1,0.4,0.3,0.6,0.4s0.5,0.4,0.6,0.6c0.1,0.1,0.4,0.4,0.5,0.5s0.4,0.2,0.6,0.2c0.1,0,0.3,0.1,0.4,0.1
		s0.3,0.1,0.4,0.1s0.3,0.2,0.3,0.2c0.2,0.1,0.5,0.1,0.6,0.2c0.1,0,0.2,0.1,0.3,0.1s0.1,0,0.2,0c0.2,0,0.5,0.1,0.6,0.1
		c0.2,0,0.6-0.2,0.8-0.3c0.3-0.1,0.8-0.2,1.1-0.3c0.3-0.1,1-0.3,1.3-0.3c0.2,0,0.5-0.1,0.7-0.2c0.3-0.1,0.8-0.3,1.1-0.4
		s1-0.2,1.3-0.3c0.1,0,0.4-0.2,0.5-0.2c0.2,0,0.5,0,0.7,0c0.1,0,0.4,0,0.6,0c0.1,0,0.4,0.1,0.5,0.1s0.3,0.1,0.4,0.1s0.4,0,0.5,0
		s0.3,0,0.4,0c0,0,0,0,0.1,0s0.2,0.2,0.3,0.2c0.2,0.1,0.5,0.2,0.7,0.2c0.1,0,0.4,0.1,0.6,0.2c0.1,0.1,0.4,0.2,0.5,0.3
		c0.1,0,0.3,0.1,0.4,0.1s0.3,0,0.4,0s0.3-0.1,0.4-0.2c0.1,0,0.2-0.1,0.3-0.2s0.1-0.2,0.2-0.3c0.1-0.1,0.4-0.2,0.5-0.2
		s0.4-0.1,0.5-0.1s0.3-0.2,0.4-0.3c0.1,0,0.2-0.1,0.2-0.1c0.1,0,0.2-0.1,0.2-0.1c0.1,0,0.2,0,0.3,0s0.2-0.2,0.3-0.2s0.2,0,0.3,0
		s0.2-0.1,0.3-0.2l0.1-0.2c0.1-0.1,0.3-0.1,0.4-0.1s0.3,0,0.4,0s0.4-0.1,0.5-0.1s0.3,0,0.4,0s0.2-0.1,0.2-0.1c0.1,0,0.3,0,0.3,0
		c0.1,0,0.2,0.1,0.3,0.2h0.2c0.1,0,0.2-0.1,0.3-0.1l0.1-0.2c0-0.1,0.1-0.2,0.1-0.2c0-0.1,0.1-0.1,0.2-0.2l0,0c0.1,0,0.3-0.1,0.4-0.1
		s0.3-0.1,0.4-0.1s0.4-0.1,0.5-0.2c0.1,0,0.2-0.1,0.3-0.1s0.2-0.1,0.3-0.1c0.2,0,0.7,0,0.9-0.1c0.3,0,0.8,0,1,0l0,0
		c0.2,0,0.7-0.1,0.9-0.1c0.2,0,0.7,0,1,0c0.2,0,0.7,0,1,0c0.1,0,0.3,0,0.5,0c0.1,0,0.2,0,0.3,0c0.1,0,0.3,0.2,0.4,0.2
		s0.2,0.1,0.3,0.1c0.1,0,0.3,0.1,0.4,0.1s0.2,0.1,0.3,0.2c0,0.1,0,0.2,0.1,0.2c0.1,0.1,0.3,0.2,0.3,0.3c0.1,0.1,0.2,0.3,0.3,0.5
		c0,0.1,0.1,0.3,0.2,0.4c0,0,0.2,0.1,0.3,0.1s0.2,0.1,0.3,0.1c0,0-0.1,0.1-0.1,0.2L71,77.5c0,0.1,0,0.2,0,0.3c0,0.1,0,0.2,0.1,0.3
		c0,0.1,0.1,0.4,0.2,0.5s0.2,0.2,0.3,0.2c0.1,0.1,0.2,0.2,0.2,0.3c0,0.1,0.1,0.3,0.1,0.3c0.1,0.1,0.3,0.1,0.3,0.1s0.1,0.1,0.2,0.1
		s0.1-0.1,0.2-0.1s0.2-0.1,0.3,0c0.1,0,0,0.2,0.1,0.2c0,0.1,0.1,0.2,0.2,0.2s0.2-0.1,0.3-0.1s0.1-0.1,0.2-0.1s0.2,0,0.2-0.1
		c0.1,0,0.2,0,0.3,0s0.2,0.1,0.2,0.1c0.1,0,0.2,0,0.2-0.1l0.1-0.2c0.1-0.1,0.2-0.1,0.3-0.2s0.1-0.2,0.2-0.3l0.2-0.1
		c0.1,0,0.2,0,0.3,0.1c0.1,0,0.2,0.1,0.3,0.1s0.2,0.2,0.3,0.2s0.3,0.1,0.4,0.1s0.4,0,0.6,0c0.1,0,0.4,0,0.5,0s0.2,0,0.2-0.1
		c0,0,0.1-0.2,0.1-0.3c0-0.1-0.1-0.2-0.1-0.2c0-0.1,0.1-0.2,0.1-0.3c0,0,0.1-0.1,0.2-0.1c0,0,0.1,0,0.1,0.1c0,0,0,0,0.1,0.1v0.2
		c0,0,0.1,0.1,0.2,0.1c0,0.1,0,0.3,0,0.3s0.2,0.1,0.3,0c0.1,0,0.2-0.1,0.2-0.1c0.1,0,0.2,0,0.2,0c0.1,0,0.2,0.1,0.2,0.2
		s0.1,0.2,0.1,0.3c0,0.1,0.1,0.3,0.2,0.4c0,0,0.1,0.1,0.2,0.2s0.3,0.1,0.4,0.2c0.1,0,0.2,0.1,0.3,0.1s0.2,0,0.2,0s0-0.1,0.1-0.2
		l0.1-0.1c0.1,0,0.2,0,0.3,0.1c0.1,0,0.1,0.2,0.1,0.3c0,0.1,0,0.2-0.1,0.3c0,0.1-0.2,0.1-0.3,0.2c0,0,0,0.1,0,0.2s0.1,0.2,0.2,0.3
		c0,0.1,0.2,0.2,0.2,0.2c0.1,0.1,0.3,0.2,0.3,0.3c0.1,0.1,0.1,0.3,0.1,0.4s-0.1,0.2-0.1,0.2c0,0.1-0.1,0.4-0.1,0.6s-0.1,0.7-0.2,0.9
		c0,0.2-0.1,0.5-0.1,0.7l0,0c0,0.2-0.1,0.5-0.1,0.7c0,0.1-0.1,0.2-0.2,0.3c-0.1,0.1-0.1,0.4-0.2,0.6c0,0.1-0.1,0.3-0.2,0.4
		c0,0.1-0.2,0.2-0.1,0.3c0,0.1,0.1,0.1,0.1,0.2c0.1,0,0.2,0,0.2,0.1c0.1,0.1,0.1,0.2,0.1,0.3l0,0L81,87.8c0,0.1,0.1,0.2,0.1,0.3
		c0,0.1,0,0.2,0,0.3L81,88.6h-0.2c-0.1,0-0.2,0.1-0.2,0.1s-0.1,0.1-0.1,0.2s0.1,0.1,0.1,0.2h0.2c0,0,0.1,0.1,0.1,0.2
		s0.1,0.2,0.1,0.2c0,0.1,0.2,0.1,0.2,0.1s0.1,0,0.2,0s0.2,0,0.2,0.1l0.1,0.2c0,0-0.1,0.1-0.2,0.1s-0.2,0-0.2,0c-0.1,0-0.2,0-0.3,0
		l-0.1-0.1c0,0-0.1-0.1-0.2-0.1l-0.1-0.1c-0.1,0-0.2,0-0.2,0.1c-0.1,0.1,0,0.2,0,0.3c0,0.1,0,0.4-0.1,0.5c0,0.2,0,0.5,0,0.6
		s-0.2,0.3-0.2,0.4c-0.1,0.1-0.3,0.3-0.4,0.4s-0.2,0.2-0.2,0.3c0,0.1,0,0.3,0.1,0.4c0,0.1,0.1,0.4,0.2,0.5c0.1,0.2,0.2,0.5,0.3,0.7
		s0.2,0.6,0.3,0.8c0.1,0.1,0.3,0.4,0.4,0.5c0.2,0.2,0.7,0.7,0.9,1c0.2,0.2,0.7,0.7,0.9,1c0.1,0.1,0.4,0.4,0.5,0.6
		c0.2,0.2,0.6,0.6,0.8,0.8c0.1,0.1,0.4,0.4,0.6,0.5c0.1,0.1,0.3,0.3,0.3,0.4l0,0c0,0.1,0,0.4,0.1,0.5s0.4,0.1,0.5,0.1
		c0.1,0.1,0.3,0.3,0.3,0.4c0.1,0.1,0.2,0.3,0.3,0.4s0.4,0.4,0.5,0.5s0.2,0.5,0.3,0.7c0,0.1,0.2,0.3,0.2,0.4c0,0,0,0.1,0.1,0.1
		l0.1,0.1l0.1,0.2c0.1,0.1,0.1,0.4,0.1,0.5s0,0.4,0,0.5s0.1,0.3,0.1,0.4s0.3,0.1,0.3,0.1c0.1,0.1,0,0.4,0.1,0.5c0,0.1,0,0.3,0,0.4
		s0,0.1,0,0.1c0,0.1,0.1,0.3,0.2,0.4s0.3,0.4,0.4,0.5s0.4,0.4,0.4,0.6c0.1,0.2,0.3,0.6,0.3,0.9c0.1,0.2,0.2,0.6,0.3,0.8
		c0,0.2,0.1,0.5,0.1,0.7c0,0.1,0.1,0.2,0.1,0.3c0.1,0.1,0.2,0.3,0.3,0.5s0.1,0.5,0.1,0.7c0,0.1,0,0.4,0,0.6c0,0.1-0.1,0.3-0.1,0.4
		c-0.1,0.1-0.2,0.1-0.3,0.2s-0.1,0.3-0.1,0.4s0,0.3,0,0.4s0.2,0.4,0.2,0.5c0.1,0.2,0.2,0.6,0.3,0.7c0,0.1,0.1,0.4,0.1,0.6
		c0,0.1,0.2,0.3,0.3,0.4c0,0.1,0.1,0.3,0.1,0.4c0.1,0.1,0.3,0.2,0.4,0.3c0.1,0.1,0.2,0.2,0.2,0.2c0.1,0.1,0.1,0.4,0.1,0.5
		s0.1,0.3,0,0.4c0,0.1-0.1,0.2-0.1,0.2c0,0.1,0,0.2,0,0.3c0,0.1,0.1,0.4,0.1,0.5c0,0.2-0.1,0.5-0.1,0.7s-0.1,0.5-0.1,0.7
		c0,0.1,0,0.4-0.1,0.5c0,0.1-0.1,0.4-0.2,0.5s-0.3,0.2-0.4,0.3c-0.1,0.1-0.2,0.3-0.2,0.4s0,0.2-0.1,0.2c-0.1,0.1-0.3,0-0.4,0
		s-0.2,0.1-0.3,0.1s-0.2,0.1-0.2,0.2s0,0.2,0,0.3c0,0.1,0,0.2-0.1,0.3c0,0-0.1,0.1-0.2,0.1c-0.1,0.1-0.3,0.2-0.3,0.2
		c-0.1,0.1-0.2,0.3-0.3,0.5c-0.1,0.1,0,0.4-0.1,0.6c0,0.1-0.1,0.2-0.2,0.2c-0.1,0.2-0.1,0.5-0.1,0.7c-0.1,0.4-0.3,1.1-0.4,1.5
		c-0.1,0.5-0.4,1.4-0.5,1.9c0,0.2-0.1,0.5-0.2,0.7c-0.1,0.1-0.3,0.3-0.3,0.4c-0.1,0.2-0.1,0.6-0.1,0.8s0.1,0.5,0,0.7
		c0,0.1-0.1,0.3-0.1,0.4s-0.1,0.2-0.1,0.3s0.1,0.4,0.1,0.5s0,0.3,0,0.4s0,0.3,0,0.4c0,0.2,0,0.4,0,0.5c0,0.2,0,0.6,0,0.8
		s0.2,0.7,0.3,0.9c0.1,0.2,0.4,0.5,0.5,0.7c0.1,0.1,0.1,0.3,0.2,0.4c0.1,0.1,0.3,0.1,0.4,0.1c0.1,0.1,0.2,0.4,0.2,0.5
		c0.1,0.2,0.4,0.5,0.5,0.7c0.2,0.3,0.4,1,0.6,1.3c0.3,0.5,0.9,1.5,1.2,2c0.1,0.2,0.4,0.6,0.5,0.8c0.2,0.3,0.5,0.8,0.6,1
		s0.1,0.5,0.1,0.7c0.1,0.2,0.3,0.4,0.4,0.5c0.1,0.2,0.4,0.5,0.5,0.7s0.3,0.5,0.4,0.7c0,0,0,0,0,0.1c0.1,0.4,0.1,1,0.1,1.4
		c0,0.2,0,0.4,0,0.7c0,0.1,0,0.3,0,0.4c0,0.2-0.1,0.7-0.1,1c0,0.2,0,0.7,0.1,0.9c0.1,0.3,0.3,0.8,0.4,1c0.1,0.1,0.2,0.3,0.2,0.4
		c0.1,0.3,0.1,0.8,0.1,1.1c0,0.2,0,0.6,0,0.8c0,0.1,0.2,0.3,0.2,0.5c0.1,0.1,0.2,0.4,0.2,0.5s-0.1,0.4-0.1,0.5
		c0,0.2,0.1,0.5,0.2,0.7c0,0.2,0.1,0.6,0.1,0.8s0.1,0.6,0.2,0.8c0.1,0.1,0.2,0.4,0.3,0.5c0.2,0.2,0.5,0.6,0.7,0.8s0.5,0.6,0.6,0.8
		c0.1,0.1,0.3,0.4,0.4,0.5s0.3,0.3,0.5,0.4c0.1,0.1,0.3,0.1,0.3,0.2l0,0c0.1,0.1,0.1,0.4,0.1,0.5c0.1,0.1,0.2,0.2,0.3,0.3
		c0.1,0.1,0.2,0.4,0.3,0.5c0.1,0.2,0.3,0.6,0.4,0.8c0.1,0.3,0.4,1,0.6,1.4s0.6,1.1,0.7,1.4c0.1,0.3,0.3,0.8,0.4,1s0.3,0.6,0.4,0.9
		c0.1,0.2,0.3,0.7,0.4,0.9c0,0.1,0.1,0.4,0.1,0.5c0,0.2,0.1,0.6,0.1,0.8c0,0.1,0,0.4-0.1,0.5c0,0.1-0.1,0.1-0.2,0.2
		c0,0.1-0.1,0.2-0.1,0.2s-0.1-0.1-0.2-0.1c0,0-0.1-0.1-0.2-0.1c0,0-0.1,0-0.2,0s-0.1,0.2-0.1,0.3s0,0.2,0.1,0.3c0,0,0.1,0.1,0.1,0.2
		c0.1,0,0.2,0.1,0.3,0.1v0.2l-0.1,0.1c0,0.1,0.1,0.2,0.1,0.3c0.1,0.1,0.2,0.2,0.3,0.2c0.1,0.1,0.3,0.2,0.3,0.3
		c0.1,0.1,0.2,0.3,0.2,0.4s0.1,0.4,0.1,0.5s0.1,0.3,0.1,0.3h0.2c0.1,0,0.2,0.1,0.2,0.2s0.1,0.2,0.1,0.3s-0.1,0.2-0.1,0.3
		s0.1,0.2,0.2,0.2s0.2,0,0.3-0.1c0,0,0.1-0.1,0.2-0.1s0.2,0,0.3,0.1c0,0,0.1,0.1,0.1,0.2s0,0.2,0,0.2c0,0.1,0.1,0.2,0.2,0.2
		s0.3,0,0.3,0c0.1,0,0.2,0,0.3,0s0.2,0.2,0.2,0.2c0.1,0,0.2,0,0.3,0s0.3-0.1,0.5-0.1c0.1,0,0.2-0.1,0.2-0.1c0.1-0.1,0.1-0.3,0.1-0.3
		c0.1,0,0.2-0.1,0.3-0.1s0.2,0,0.2,0.1c0.1,0,0.2,0.1,0.2,0c0.1,0,0.1-0.2,0.2-0.3c0.1,0,0.3,0,0.4,0s0.3,0,0.3,0s0.1,0.1,0.2,0.1
		s0.2,0,0.3,0s0.2-0.1,0.2-0.1c0.1,0,0.2,0,0.3,0s0.1,0.2,0.1,0.2c0.1,0,0.3,0,0.3-0.1c0.1,0,0.2-0.1,0.2-0.2s0-0.3,0.1-0.3h0.2
		c0,0,0.1,0,0.2,0s0.2-0.1,0.3-0.1c0.1-0.1,0.1-0.2,0.2-0.3s0.4,0,0.5-0.1c0.1,0,0.3,0,0.4,0s0.3,0.1,0.4,0.2
		c0.1,0.1,0.2,0.2,0.2,0.2c0.1,0,0.3,0,0.4,0s0.2,0,0.3,0s0.1-0.3,0.1-0.3c0.1-0.1,0.4,0.1,0.5,0.1s0.4,0,0.5,0
		c0.2,0,0.4,0.2,0.6,0.2c0.1,0,0.4,0,0.6,0c0.1,0,0.2,0.1,0.3,0.1s0.2,0.2,0.3,0.2s0.2,0.1,0.3,0c0.1,0,0.2-0.2,0.3-0.3
		c0-0.1,0.1-0.2,0.1-0.3c0.1-0.1,0.3-0.1,0.4-0.1c0,0,0.1,0.1,0.2,0.1s0.3-0.1,0.4-0.1s0.2,0,0.2,0c0.1,0,0.1,0.2,0.1,0.2
		c0.1,0,0.2-0.1,0.2-0.1s0.1-0.1,0-0.2c0-0.1-0.1-0.1-0.1-0.2c0,0,0-0.1,0-0.2l0.1-0.1c0.1,0,0.2,0,0.3-0.1c0.1,0,0.3,0,0.4,0
		c0.2,0,0.5,0.1,0.7,0.1c0.1,0,0.4,0,0.6,0c0.1,0,0.2-0.1,0.3-0.1c0.1-0.1,0.2-0.2,0.3-0.3c0.1-0.1,0.5-0.4,0.6-0.5
		c0.4-0.4,1.1-1.1,1.5-1.5s1.2-1.1,1.6-1.5c0.5-0.5,1.6-1.5,2.1-2c0.4-0.4,1.2-1.1,1.6-1.5c0.3-0.3,0.8-0.8,1.1-1.1
		c0.2-0.2,0.7-0.6,0.9-0.8s0.7-0.6,0.9-0.9c0.1-0.1,0.3-0.4,0.4-0.5c0.1-0.1,0.2-0.2,0.3-0.2c0.1-0.1,0.2-0.2,0.3-0.2
		s0.2-0.1,0.3-0.1s0.4-0.2,0.5-0.2c0.2-0.1,0.4-0.4,0.5-0.5s0.2-0.3,0.3-0.4s0.2-0.3,0.3-0.4c0-0.1,0.1-0.4,0.1-0.5
		c0.1-0.2,0.2-0.5,0.3-0.7s0.1-0.5,0.2-0.7c0.1-0.2,0.1-0.7,0.2-1c0-0.1,0.2-0.3,0.2-0.5c0-0.1,0-0.3,0.1-0.4c0,0,0,0,0-0.1
		s0.2-0.2,0.2-0.3s0-0.3,0-0.4s0.2-0.3,0.2-0.4s0-0.2,0-0.3s0-0.2,0-0.2l-0.1,0.1c0,0.1,0,0.2,0,0.3s-0.2,0.1-0.3,0.1
		s-0.2-0.1-0.3-0.2c0-0.1-0.1-0.2-0.1-0.3s0-0.3,0-0.3c0-0.1,0.1-0.3,0.1-0.3c0.1-0.1,0.3-0.1,0.3-0.2c0.1-0.1,0.1-0.3,0.2-0.3
		c0.1-0.1,0.3-0.3,0.4-0.3c0.1-0.1,0.4-0.1,0.5-0.1c0.2-0.1,0.6-0.2,0.8-0.2c0.2-0.1,0.6-0.2,0.8-0.3s0.7-0.3,0.9-0.4
		c0.3-0.1,0.8-0.3,1.1-0.4c0.1,0,0.5-0.1,0.6-0.2c0.1,0,0.2-0.1,0.3-0.2s0.2-0.3,0.2-0.4c0.1-0.1,0.3-0.3,0.4-0.4
		c0.1-0.1,0.3-0.2,0.4-0.3c0.1-0.1,0.1-0.3,0.2-0.4c0-0.1,0.1-0.2,0.1-0.3c0,0-0.1-0.1-0.1-0.2c0,0-0.1,0-0.2,0.1
		c0,0-0.1,0.1-0.1,0.2s0,0.2,0,0.3l-0.1,0.1c0,0-0.1,0.1-0.2,0v-0.2c0-0.1,0-0.2,0-0.3s0-0.2,0-0.3s0.1-0.3,0.1-0.3
		c0.1-0.1,0.2-0.4,0.2-0.5c0.1-0.2,0.2-0.6,0.2-0.8c0.1-0.3,0.3-1,0.4-1.3c0-0.1,0.1-0.4,0.1-0.6c0-0.1,0-0.2,0-0.3s0-0.2-0.1-0.2
		c0,0-0.1,0-0.2,0l-0.1,0.1c-0.1,0-0.1-0.2-0.1-0.2c0-0.1,0-0.2,0-0.3s-0.1-0.4-0.1-0.6s-0.1-0.6-0.1-0.8s-0.1-0.7-0.1-0.9
		c0-0.1-0.1-0.4-0.1-0.5s-0.1-0.2-0.1-0.2c0-0.1-0.2-0.2-0.2-0.2c-0.1,0-0.2-0.1-0.3-0.2c0,0-0.1-0.1-0.1-0.2s0-0.2,0-0.3
		s0.1-0.2,0.2-0.3c0-0.1,0-0.3,0-0.4s0-0.2,0-0.3s0.2-0.2,0.3-0.2c0.1-0.1,0.2-0.1,0.3-0.2c0.1,0,0.2-0.1,0.3-0.1
		c0.1-0.1,0.3-0.2,0.3-0.3c0.1-0.1,0.4-0.3,0.5-0.4s0.4-0.5,0.5-0.6s0.3-0.3,0.4-0.4c0.1,0,0.2-0.1,0.2-0.1c0.1,0,0.2,0,0.2,0
		c0.1,0,0.1-0.2,0.1-0.2c0-0.1,0.1-0.2,0.1-0.2l0.1-0.1c0-0.1,0-0.2,0-0.2s0.1-0.1,0.2,0c0,0,0,0.1,0,0.2s0,0.2,0,0.2
		s0.1,0.1,0.1,0.2c0.1,0,0.2,0,0.2-0.1c0.1,0,0.2-0.1,0.2-0.2s0.1-0.2,0.1-0.3l0.2-0.1c0.1-0.1,0.2-0.3,0.3-0.4
		c0-0.1,0.1-0.2,0.1-0.2v-0.1c0,0-0.1,0-0.1-0.1l-0.1-0.1c0,0,0.1-0.1,0.2-0.1h0.1c0,0,0.1,0.1,0.2,0.1c0.1,0,0.2,0,0.2,0
		c0.1-0.1,0.1-0.2,0.1-0.3s0.1-0.2,0.1-0.3c0.1-0.1,0.5-0.2,0.6-0.3c0.3-0.1,0.8-0.5,1.1-0.6c0.2-0.1,0.6-0.3,0.8-0.4
		s0.5-0.2,0.7-0.3c0.1,0,0.3-0.2,0.4-0.2c0.1,0,0.3,0,0.4,0c0.1,0,0.4-0.1,0.5-0.1s0.3-0.1,0.4-0.2c0.1,0,0.2-0.1,0.2-0.2
		c0.1-0.1,0.1-0.2,0.2-0.3c0-0.1,0.1-0.2,0.2-0.2c0.1-0.1,0.3-0.1,0.4-0.1c0.1,0,0.3-0.1,0.4-0.2c0.1,0,0.2-0.2,0.3-0.2
		c0,0,0.1-0.1,0.2-0.1l0.1-0.2c0,0,0-0.1,0-0.2h-0.1c0,0-0.1-0.1-0.1-0.2s0.1-0.1,0.2-0.2c0.1,0,0.2,0.1,0.3,0.1s0.2,0,0.2,0
		c0.1,0,0.1-0.2,0.2-0.2c0.1-0.1,0.2-0.2,0.2-0.3c0.1-0.1,0.1-0.3,0.2-0.4c0.1-0.1,0.2-0.2,0.3-0.3s0.2-0.2,0.3-0.2
		c0.1-0.1,0.2-0.1,0.3-0.2c0-0.1,0-0.2,0-0.3s0.1-0.1,0.1-0.2s0-0.2-0.1-0.2h-0.1c-0.1,0-0.1-0.1-0.1-0.2s0-0.2,0.1-0.2
		c0-0.1,0.2-0.1,0.2-0.1c0.1,0,0.2-0.1,0.2-0.2c0.1-0.1,0.1-0.2,0.2-0.3c0-0.1,0.1-0.2,0.1-0.2c0-0.1,0.1-0.2,0.1-0.3
		c0-0.1,0-0.2,0-0.3c0,0-0.1,0-0.2,0c0,0-0.1,0-0.2-0.1l-0.1-0.1v-0.1h0.1c0,0,0-0.1,0.1-0.2v-0.2l-0.1-0.1l-0.1,0.1
		c0,0-0.1,0-0.2,0l-0.1-0.2c0-0.1,0.1-0.2,0.1-0.2c0-0.1,0.1-0.3,0.1-0.4c0-0.2,0.1-0.5,0.1-0.7s0-0.7,0-0.9c0-0.1,0-0.3,0-0.4
		s-0.2-0.2-0.2-0.2c0-0.1,0-0.3,0-0.3c0-0.1,0.2-0.2,0.2-0.3c0-0.1,0-0.4,0-0.5s0-0.4,0-0.6s-0.1-0.6-0.1-0.8c0-0.1,0-0.4,0-0.6
		c0-0.1,0.2-0.4,0.3-0.5s0.2-0.3,0.3-0.4s0.1-0.4,0.2-0.5c0-0.1,0.2-0.3,0.2-0.3c0-0.1,0-0.4,0-0.6c0-0.1,0-0.3-0.1-0.4
		c0,0,0-0.1-0.1-0.2c0,0,0,0-0.1,0l0,0l-0.1-0.2c0,0-0.1-0.1-0.2-0.2c0,0-0.1-0.1-0.2-0.1c-0.1,0-0.2,0-0.2,0s-0.2,0-0.2-0.1
		c0,0,0-0.2-0.1-0.2c0-0.1-0.1-0.2-0.2-0.3c0,0-0.1,0-0.2,0c-0.1,0-0.1-0.2-0.1-0.2c0-0.1,0-0.2,0-0.2c0-0.1-0.1-0.2-0.2-0.3
		c0-0.1,0.1-0.2,0.1-0.2c0-0.1,0-0.2-0.1-0.2c0,0-0.1-0.1-0.2-0.1c0-0.1-0.1-0.2-0.1-0.3c0,0,0-0.1,0.1-0.2c0-0.1,0-0.2,0-0.2
		c0-0.1-0.2-0.2-0.2-0.3c0-0.1-0.1-0.2-0.1-0.2c-0.1-0.1-0.2-0.2-0.2-0.3c0-0.1-0.1-0.2,0-0.2c0-0.1,0.1-0.1,0.2-0.2v-0.1l-0.1-0.1
		c0-0.1,0-0.2,0-0.2c0-0.1-0.1-0.2-0.1-0.2c0-0.1-0.1-0.2-0.1-0.3c0-0.1,0-0.2,0-0.2c0-0.1,0.1-0.2,0.1-0.2h0.2l0.1-0.2
		c0-0.1,0-0.3,0-0.3c0-0.1-0.1-0.4-0.2-0.5l-0.1-0.1c0-0.1,0-0.3,0-0.4s0.1-0.4,0.1-0.4c0.1-0.1,0.3-0.2,0.4-0.2
		c0.1-0.1,0.2-0.3,0.2-0.4s-0.1-0.3-0.1-0.4c-0.1-0.1-0.3-0.2-0.4-0.3c-0.1-0.1-0.2-0.3-0.3-0.4s-0.3-0.2-0.4-0.2
		c-0.1-0.1-0.2-0.2-0.3-0.3c-0.1-0.1-0.1-0.4-0.1-0.6s0.1-0.5,0.1-0.6s0.1-0.3,0.2-0.4c0.1-0.2,0.2-0.5,0.2-0.7
		c0-0.1,0.1-0.4,0.2-0.5c0-0.1,0.1-0.2,0.1-0.2c0-0.1,0-0.3,0-0.4s0.1-0.1,0.1-0.2s0.1-0.3,0.1-0.4s0.1-0.3,0.1-0.3s0,0,0.1-0.1
		l0.1-0.1c0.1,0,0.2-0.1,0.3-0.1c0.1-0.1,0.2-0.2,0.3-0.3c0.1-0.1,0.2-0.4,0.2-0.5c0.1-0.1,0.1-0.4,0.2-0.6c0.1-0.2,0.2-0.4,0.3-0.6
		s0.3-0.4,0.3-0.6c0.1-0.2,0.3-0.7,0.4-0.9c0.1-0.2,0.3-0.4,0.3-0.6c0.1-0.1,0.1-0.4,0.2-0.6c0-0.1,0.2-0.3,0.2-0.3
		c0.1-0.1,0.3-0.2,0.4-0.2c0.1-0.1,0.4-0.1,0.4-0.1c0.1-0.1,0.2-0.2,0.2-0.3c0-0.1,0-0.3,0-0.4s0.1-0.3,0.2-0.3
		c0.1-0.1,0.3-0.1,0.4-0.1c0.1,0,0.2-0.1,0.3-0.1s0.2-0.1,0.3-0.2s0.2-0.3,0.3-0.4s0.1-0.2,0.2-0.3c0.1-0.1,0.2-0.2,0.2-0.3
		c0.2-0.3,0.6-0.8,0.8-1.1c0.2-0.2,0.7-0.7,0.8-1c0.1-0.1,0.2-0.3,0.2-0.4s0.1-0.3,0.1-0.3c0-0.1,0.1-0.1,0.2-0.2c0-0.1,0-0.3,0-0.3
		c0-0.1,0.2-0.1,0.3-0.1s0.2,0,0.3,0s0.2-0.2,0.3-0.3c0.2-0.2,0.5-0.4,0.7-0.6c0.3-0.3,0.9-0.9,1.2-1.2c0.3-0.3,1-1,1.3-1.3
		c0.2-0.2,0.6-0.6,0.8-0.8c0.2-0.2,0.5-0.5,0.7-0.6c0.1-0.1,0.4-0.3,0.5-0.3s0.2-0.1,0.3-0.1s0.2,0,0.3-0.1c0.1,0,0.2-0.1,0.3-0.1
		c0.1-0.1,0.2-0.2,0.2-0.3c0.1-0.1,0.4-0.3,0.5-0.4s0.2-0.3,0.3-0.3c0.1-0.1,0.4-0.3,0.5-0.4s0.2-0.3,0.3-0.4s0.1-0.2,0.2-0.3
		c0-0.1,0.1-0.2,0.1-0.3c0.1-0.1,0.2-0.2,0.3-0.3c0.1-0.1,0.2-0.3,0.3-0.4c0.2-0.2,0.5-0.4,0.7-0.6c0.2-0.1,0.4-0.4,0.6-0.6
		c0.2-0.2,0.6-0.7,0.8-0.9c0.1-0.1,0.3-0.5,0.4-0.6c0.1-0.2,0.3-0.5,0.4-0.7c0.1-0.2,0.3-0.6,0.4-0.8c0.1-0.1,0.3-0.4,0.4-0.5
		c0.1-0.1,0.3-0.4,0.4-0.5c0.1-0.1,0.3-0.4,0.4-0.5c0.1-0.1,0.3-0.3,0.4-0.4c0.1-0.1,0.2-0.2,0.2-0.3c0-0.1,0.1-0.3,0.1-0.3
		c0-0.1,0.1-0.3,0.1-0.5c0-0.1,0.1-0.4,0.2-0.6c0.1-0.3,0.3-0.9,0.4-1.2c0.1-0.2,0.2-0.6,0.3-0.8c0.1-0.2,0.2-0.6,0.3-0.8
		c0.1-0.2,0.2-0.6,0.2-0.8c0.1-0.2,0.2-0.6,0.3-0.7c0-0.1,0.1-0.3,0.2-0.4c0.1-0.1,0.3-0.2,0.3-0.3c0.1-0.1,0.1-0.4,0.2-0.5
		c0.1-0.2,0.2-0.5,0.3-0.7s0.3-0.5,0.4-0.6c0.1-0.2,0.3-0.6,0.3-0.9c0.1-0.3,0.1-0.8,0.1-1s0-0.6,0-0.8c0-0.2,0.1-0.5,0.1-0.6
		s0.2-0.3,0.2-0.4c0.1-0.1,0.2-0.3,0.2-0.4c0-0.2,0-0.5-0.1-0.7C180.3,61.9,180.3,61.7,180.3,61.6z M141.8,118
		c0,0.1-0.1,0.3-0.1,0.4c-0.1,0.2-0.2,0.5-0.3,0.7c0,0.1-0.1,0.4-0.2,0.5c0,0.1-0.1,0.3-0.2,0.4c0,0.1,0.1,0.4,0.1,0.5
		c0,0.2,0.1,0.5,0.1,0.6c0,0.2,0,0.6,0,0.8c0,0.1,0,0.4,0,0.6v0.1c0,0.1,0,0.3,0,0.3c0,0.1,0,0.2,0.1,0.2c0,0.1,0.1,0.2,0.1,0.2
		s0.2,0,0.2,0.1c0.1,0.1,0,0.3,0.1,0.4c0,0.1,0.1,0.2,0.1,0.2s0.1,0.1,0.1,0.2s0,0.2,0,0.3c0,0.1,0.1,0.3,0.1,0.3s-0.1,0.1-0.2,0.1
		h-0.2c0,0,0-0.2,0-0.3c0-0.1-0.1-0.2-0.2-0.3c0-0.1-0.1-0.2-0.2-0.2c0,0-0.1-0.1-0.2-0.1c0,0-0.1,0.1-0.1,0.2h-0.2
		c0,0,0,0.1-0.1,0.2h-0.2c-0.1,0-0.1-0.2-0.2-0.3c0-0.1,0-0.2,0-0.3c0-0.1,0.1-0.2,0.1-0.3c0-0.1,0.1-0.2,0-0.2
		c0-0.1-0.1-0.3-0.2-0.4c0-0.1-0.2-0.2-0.2-0.2c0-0.1-0.1-0.2-0.1-0.3c0-0.1,0-0.3,0-0.3c0-0.1,0-0.3-0.1-0.4c0-0.1-0.2-0.3-0.2-0.4
		s0-0.3,0-0.4s-0.2-0.3-0.2-0.4s0-0.3,0-0.3c0-0.1-0.1-0.2-0.1-0.3c0-0.1-0.1-0.3-0.1-0.4s0.1-0.2,0.1-0.3c0-0.1,0.1-0.4,0.2-0.5
		c0.1-0.1,0.2-0.3,0.3-0.3c0-0.1,0.1-0.2,0.1-0.3c0-0.1,0-0.3,0.1-0.4c0-0.2,0-0.5,0-0.7s0-0.6,0-0.8c0-0.2-0.1-0.5,0-0.6
		c0-0.1,0.1-0.2,0.1-0.3c0,0,0.1-0.1,0.1-0.2s0-0.2,0-0.2c0-0.1-0.2-0.2-0.3-0.3c-0.1-0.1-0.3-0.2-0.3-0.3c0-0.1-0.1-0.2-0.1-0.3
		c0-0.1,0-0.2,0-0.3c0-0.1-0.1-0.4,0-0.5c0,0,0-0.1,0.1-0.2l0.1-0.1c0,0,0.1-0.1,0.2-0.1c0.1,0,0.2,0,0.3,0s0.2,0.2,0.3,0.2
		c0.1,0.1,0.2,0.2,0.3,0.3c0,0.1,0.1,0.2,0.1,0.3c0.1,0.1,0.1,0.4,0.2,0.5c0,0.2,0.1,0.5,0.1,0.6s0.1,0.4,0.1,0.6s0,0.5,0,0.6
		s0,0.4,0,0.5s0,0.3,0.1,0.4s0.3,0.2,0.4,0.3c0.1,0.1,0.2,0.3,0.2,0.4s0,0.2,0,0.3C141.8,117.9,141.8,118,141.8,118z M115.3,42.5
		v-1.3l2.2-0.1l0,0l-2.2,0.1V42.5l0.2,9l-1.5,0.1l1.5-0.1L115.3,42.5z M137.9,36.2c0-0.1,0.1-0.1,0.1-0.2
		C137.9,36.1,137.9,36.2,137.9,36.2z M143.8,76.1c0.1,0,0.2,0,0.3,0.1C144,76.1,143.9,76.1,143.8,76.1c-0.1,0-0.2,0-0.3,0
		s-0.2,0-0.3,0c0.1,0,0.2,0,0.3,0S143.7,76.1,143.8,76.1z M144.9,53.8c0,0,0,0.1,0,0.2C145,53.9,144.9,53.8,144.9,53.8
		c0-0.1,0-0.3-0.1-0.4C144.9,53.5,144.9,53.7,144.9,53.8z M144.9,53.2c0-0.1,0-0.1,0-0.2C144.9,53.1,144.9,53.1,144.9,53.2z
		 M144.7,78.9c0,0,0.1-0.1,0.1-0.2c0.1,0,0.2-0.1,0.3-0.1s0.2,0.1,0.2,0.2s0,0.2,0.1,0.3c0,0,0.1,0.1,0.2,0.1c0,0.1,0.1,0.2,0.1,0.3
		c0,0.1,0,0.3,0,0.4s0.1,0.2,0.1,0.3s0,0.2,0,0.3c0,0.1-0.1,0.2-0.1,0.2c0,0.1,0,0.2,0,0.3c0,0.1,0.1,0.2,0.1,0.3
		c0,0.1,0,0.4,0.1,0.5c0,0.1,0.1,0.2,0.1,0.3c0.1,0.1,0.3,0.2,0.4,0.3c0.1,0.1,0.2,0.2,0.3,0.3c0,0.1,0.1,0.2,0.1,0.3
		c0,0.1,0,0.2,0,0.3c0,0.1,0,0.2,0,0.2c0,0.1,0,0.2,0,0.2h-0.1c0,0-0.1-0.1-0.1-0.2s-0.1-0.2-0.1-0.3c0-0.1-0.1-0.2-0.1-0.3
		c0-0.1-0.1-0.2-0.1-0.3c-0.1-0.1-0.2-0.2-0.3-0.2c-0.1-0.1-0.3-0.2-0.4-0.3c-0.1-0.1-0.2-0.3-0.2-0.4c-0.1-0.1-0.2-0.3-0.2-0.4
		s-0.1-0.4-0.1-0.5s-0.1-0.3-0.1-0.5c0-0.1,0-0.3-0.1-0.4c0-0.1,0-0.4,0-0.5s0.1-0.3,0.1-0.4C144.7,79.1,144.7,78.9,144.7,78.9z
		 M145,54.5C145,54.5,145,54.6,145,54.5c0,0.1,0,0.2,0,0.2S145,54.6,145,54.5C145,54.6,145,54.5,145,54.5z M131.6,109.3
		c0-0.1,0-0.2-0.1-0.3c0-0.2-0.1-0.5-0.2-0.7c0-0.1-0.1-0.3-0.1-0.5c0-0.1-0.2-0.3-0.2-0.4c-0.1-0.1-0.2-0.2-0.3-0.2
		s-0.3-0.1-0.4-0.1c-0.1-0.1-0.3-0.3-0.4-0.4c-0.1-0.1-0.4-0.4-0.6-0.6c-0.1-0.1-0.2-0.4-0.2-0.5c-0.1-0.2-0.2-0.6-0.2-0.8
		c0-0.1-0.1-0.4-0.2-0.6c0-0.1-0.1-0.4-0.1-0.5s0.1-0.3,0.1-0.5s0-0.5-0.1-0.6c0-0.1-0.2-0.4-0.2-0.6c0-0.1-0.1-0.3-0.1-0.4
		s0.1-0.4,0.1-0.5s0.1-0.3,0.1-0.4s0.1-0.3,0.1-0.4s0-0.3,0-0.4c0,0-0.1-0.1-0.2-0.1c0,0-0.2-0.1-0.2-0.2s0.1-0.1,0.1-0.2
		s0.1-0.2,0.1-0.2c0-0.1,0-0.2,0-0.2c0-0.1,0.1-0.2,0.1-0.3c0-0.1,0-0.3,0-0.4s0-0.3,0-0.3c0-0.1,0-0.2,0-0.2s0-0.2,0.1-0.2l0,0
		c0.1,0,0.1,0.2,0.1,0.2c0,0.1,0.1,0.2,0.1,0.3c0,0.1,0,0.3,0,0.4s0.1,0.4,0.1,0.5s0,0.2,0,0.2c0,0.1,0.1,0.3,0.1,0.3
		c0,0.1,0.2,0.1,0.2,0.2c0.1,0.1,0.2,0.2,0.2,0.2l0,0c0,0.1,0,0.1,0,0.2s0.1,0.4,0,0.6c0,0.1-0.1,0.3-0.1,0.4s0.1,0.3,0.1,0.4
		s0.1,0.1,0.1,0.2s0.1,0.2,0.1,0.3c0,0.1,0,0.4,0,0.5s0,0.2,0,0.3c0,0,0.1,0.1,0.1,0.2s0,0.3,0.1,0.4c0,0.1,0.1,0.2,0.1,0.3
		c0,0.1-0.1,0.2-0.1,0.2l-0.2,0.1c0,0-0.1,0.1-0.1,0.2s0,0.2,0,0.3c0,0.1,0.1,0.2,0.1,0.3c0.1,0.1,0.3,0.2,0.4,0.3
		c0.1,0,0.3,0.1,0.4,0.1c0.1,0,0.2,0.2,0.3,0.2s0.2,0.1,0.2,0.2c0.1,0.1,0.2,0.3,0.3,0.4s0.2,0.3,0.2,0.4s0.1,0.4,0.1,0.5
		s0,0.4,0,0.6c0,0.1,0.2,0.4,0.2,0.5c0.1,0.2,0.2,0.5,0.3,0.7c0.1,0.1,0.2,0.4,0.3,0.5s0.2,0.3,0.2,0.4s0.1,0.2,0.1,0.3v0.1
		c0,0.1,0,0.2-0.1,0.2l-0.1,0.1c0,0-0.1,0.1-0.1,0.2c-0.1,0-0.2-0.1-0.2-0.1s-0.1-0.1-0.1-0.2l-0.1-0.1c-0.1,0-0.2,0-0.2,0
		c-0.1,0-0.2-0.1-0.3-0.1c-0.1-0.1-0.1-0.3-0.1-0.4s0-0.4,0-0.5C131.6,109.4,131.6,109.4,131.6,109.3z M90.4,55.1L90.4,55.1
		c0.1,0,0.2,0,0.3,0s0.2,0.1,0.2,0.2c0.1,0.1,0.3,0.1,0.4,0.2c0.1,0,0.2,0.2,0.3,0.2c0.1,0.1,0.2,0.2,0.3,0.3c0,0.1,0.1,0.2,0.1,0.3
		s0,0.3,0,0.3c0,0.1,0,0.2,0.1,0.3s0.3,0.1,0.4,0.1s0.2,0,0.3,0s0.4-0.1,0.5,0c0.1,0,0.4,0.1,0.5,0.2c0.1,0,0.3,0,0.3,0
		c0.1,0,0.2,0,0.2,0c0.1,0,0.1,0.2,0.1,0.2s0.1,0.1,0.1,0.2s0,0.2,0,0.3c0,0-0.1,0-0.1,0.1v0.2c0,0.1-0.1,0.2-0.1,0.3
		c0,0-0.1,0-0.2,0.1L94,58.7c-0.1,0-0.2,0.1-0.2,0.1c-0.1,0-0.2,0-0.3,0l0,0c-0.1,0-0.2,0.1-0.2,0.1c-0.1,0-0.3,0-0.4,0
		c0,0-0.2,0.1-0.2,0.2c0,0-0.1,0.1-0.1,0.2c0,0-0.1,0.1-0.1,0.2c0,0-0.1,0.2-0.2,0.2c0,0,0,0-0.1,0c0,0-0.1,0-0.1-0.1
		c-0.1,0-0.2-0.2-0.2-0.2s-0.1-0.1-0.2-0.2c-0.1-0.1-0.2-0.3-0.3-0.4c0-0.1,0-0.4-0.1-0.5c0-0.1-0.2-0.3-0.3-0.3
		c-0.1-0.1-0.3-0.1-0.4-0.2c-0.1,0-0.2-0.1-0.2-0.1c-0.1-0.1-0.1-0.3-0.1-0.4s-0.2-0.3-0.2-0.4s0-0.3-0.1-0.3l-0.1-0.1l0,0
		c-0.1-0.1-0.2-0.2-0.2-0.3L89.6,56c0-0.1,0.1-0.3,0.1-0.4s0.2-0.1,0.2-0.2c0,0,0.1-0.1,0.2-0.2C90.2,55.1,90.3,55.1,90.4,55.1z
		 M128.2,110.4c0,0,0.1,0.1,0.2,0.2c0,0.1,0,0.2,0,0.3c0,0.1,0,0.2-0.1,0.2c0,0-0.1,0.1-0.2,0.1c0,0.1-0.1,0.2-0.1,0.3l-0.2,0.1
		c-0.1,0-0.2,0.1-0.3,0.1c0,0-0.1,0-0.2,0c0,0,0,0-0.1,0l-0.1-0.1c0-0.1,0-0.2,0-0.2c0-0.1,0.1-0.1,0.1-0.2l0.2-0.1
		c0,0,0.2-0.1,0.2-0.2s0-0.2,0-0.3c0-0.1,0.1-0.2,0.1-0.2s0.1-0.1,0.2,0c0,0,0,0,0.1,0C128.1,110.3,128.1,110.4,128.2,110.4z
		 M110.9,59C111,59,111,59,110.9,59C111,59,111,59,110.9,59s-0.3,0-0.3,0C110.7,59,110.9,59,110.9,59z M116.2,68.7L116.2,68.7
		L116.2,68.7c0-0.1-0.2-0.1-0.3-0.2h-0.1h0.1C116,68.6,116.1,68.6,116.2,68.7z M116.7,69.4l0.2,0.2h0.9l0,0h-0.9
		C116.8,69.5,116.7,69.4,116.7,69.4s-0.2,0-0.2-0.1c0,0-0.1-0.1-0.1-0.2c0,0.1,0.1,0.1,0.1,0.2C116.5,69.3,116.6,69.3,116.7,69.4z
		 M118.8,70.8L118.8,70.8c0,0.1,0.1,0.3,0.2,0.4C118.9,71.2,118.8,70.9,118.8,70.8z M118.6,70c0-0.1-0.2-0.1-0.2-0.2l-0.1-0.1
		c0.1,0,0.1,0.1,0.1,0.1C118.4,69.9,118.5,70,118.6,70c0.1,0.1,0.1,0.2,0.2,0.4C118.7,70.3,118.6,70.1,118.6,70z M111.8,59.3
		L111.8,59.3L111.8,59.3L111.8,59.3L111.8,59.3z M115.1,68.6L115.1,68.6L115.1,68.6L115.1,68.6C115.2,68.6,115.2,68.6,115.1,68.6z
		 M115.6,68.5L115.6,68.5L115.6,68.5z M114.6,67.8L114.6,67.8L114.6,67.8z M114.6,67.2L114.6,67.2L114.6,67.2z M114.6,67.5
		L114.6,67.5L114.6,67.5z M112.5,61.6c0-0.1-0.1-0.2-0.1-0.3C112.4,61.4,112.5,61.6,112.5,61.6L112.5,61.6
		C112.6,61.7,112.6,61.6,112.5,61.6z M112.4,61.3c-0.1-0.1-0.2-0.4-0.3-0.5c0-0.1,0-0.1-0.1-0.2c0,0.1,0,0.2,0.1,0.2
		C112.2,61,112.3,61.2,112.4,61.3L112.4,61.3z M111.8,59.7c0,0.1,0,0.1,0.1,0.2C111.9,59.9,111.8,59.8,111.8,59.7z M111.7,58.8
		C111.7,58.7,111.7,58.7,111.7,58.8L111.7,58.8C111.7,58.7,111.7,58.8,111.7,58.8z M111.6,55.6c0-0.1,0.1-0.3,0.1-0.4
		c0,0,0-0.1-0.1-0.1l0.1,0.1C111.7,55.3,111.7,55.5,111.6,55.6z M111.4,58.8c0,0-0.1,0-0.2,0C111.3,58.8,111.4,58.8,111.4,58.8
		L111.4,58.8C111.5,58.8,111.5,58.8,111.4,58.8z M117.9,69.6L117.9,69.6c0.1,0.1,0.2,0.2,0.3,0.2C118.1,69.8,118.1,69.7,117.9,69.6
		L117.9,69.6z M128.4,93.6c0.1,0,0.2,0.1,0.2,0.1c0,0.1-0.1,0.2-0.1,0.2c0,0.1,0.1,0.1,0.1,0.2c0,0,0,0,0,0.1l-0.1,0.1l-0.1,0.4
		l-0.3,0.4l-0.3,0.3h-0.1c-0.1,0-0.1-0.1-0.1-0.2s0-0.2,0-0.3c0-0.1-0.1-0.3,0-0.4c0-0.1,0.1-0.2,0.1-0.2c0-0.1,0.1-0.2,0.1-0.3
		c0-0.1,0.1-0.2,0.1-0.2c0-0.1,0-0.2,0-0.3c0,0,0.1-0.1,0.2-0.1C128.3,93.5,128.4,93.5,128.4,93.6z M132.7,86.1
		c0,0.1-0.1,0.2-0.2,0.3c-0.1,0.1-0.2,0.3-0.3,0.4c-0.1,0-0.2,0.1-0.3,0.1s-0.2-0.1-0.2-0.1s0-0.1,0-0.2v-0.1c0-0.1-0.1-0.1-0.1-0.2
		s0.1-0.2,0.1-0.3c0-0.1,0.1-0.2,0.1-0.3c0-0.1,0.1-0.2,0.1-0.2c0-0.1,0.2-0.2,0.2-0.2c0.1-0.1,0.2-0.2,0.3-0.3
		c0.1-0.1,0.2-0.2,0.2-0.2c0.1-0.1,0.3-0.2,0.4-0.2c0.1-0.1,0.3-0.3,0.4-0.4c0,0,0.1-0.1,0.1-0.2s0.1-0.2,0.1-0.2
		c0.1,0,0.2,0.1,0.2,0.2s0.1,0.3,0.1,0.4s-0.1,0.4-0.1,0.5s-0.1,0.3-0.1,0.4s-0.2,0.2-0.3,0.2s-0.3,0.1-0.4,0.1
		c-0.1,0-0.2,0.1-0.2,0.2C132.9,85.9,132.8,86.1,132.7,86.1z M133.8,80.5L133.8,80.5l-0.2-0.1L133.8,80.5L133.8,80.5L133.8,80.5
		c0.1,0.1,0.2,0.1,0.3,0.1C134,80.6,134,80.6,133.8,80.5C133.9,80.6,133.9,80.5,133.8,80.5z M129,78.8c0,0-0.1,0-0.2,0.1
		C128.9,78.8,129,78.8,129,78.8l0.6-0.5l0,0L129,78.8z M128.7,78.8C128.7,78.9,128.7,78.9,128.7,78.8
		C128.7,78.9,128.7,78.9,128.7,78.8C128.7,78.8,128.8,78.8,128.7,78.8C128.8,78.8,128.7,78.8,128.7,78.8z M128.3,78.7
		C128.2,78.7,128.2,78.7,128.3,78.7C128.2,78.7,128.2,78.7,128.3,78.7L128.3,78.7L128.3,78.7z M128,78.7
		C128,78.7,127.9,78.7,128,78.7C127.9,78.7,128,78.7,128,78.7S128.1,78.7,128,78.7C128.1,78.7,128,78.7,128,78.7z M127.3,78.6
		L127.3,78.6c0.1,0,0.2,0,0.2,0l0,0C127.5,78.5,127.4,78.5,127.3,78.6z M127.2,78.8c0,0,0,0.1-0.1,0.2
		C127.1,78.9,127.2,78.9,127.2,78.8C127.2,78.8,127.2,78.7,127.2,78.8C127.2,78.7,127.2,78.8,127.2,78.8z M126.9,79.1
		c0,0-0.1,0-0.2,0C126.7,79,126.8,79.1,126.9,79.1c0,0,0.1,0,0.2,0C127,79.1,126.9,79.1,126.9,79.1z M126,78.8
		c-0.1,0-0.2-0.1-0.2-0.2C125.9,78.7,126,78.8,126,78.8C126.1,78.8,126.1,78.8,126,78.8C126.1,78.8,126.1,78.8,126,78.8z
		 M125.6,78.3L125.6,78.3L125.6,78.3C125.6,78.3,125.6,78.4,125.6,78.3C125.6,78.4,125.6,78.3,125.6,78.3z M125.2,77.8
		c-0.1,0-0.2-0.1-0.3-0.2c-0.1,0-0.1-0.1-0.2-0.2c0.1,0.1,0.1,0.1,0.2,0.2C125,77.6,125.2,77.7,125.2,77.8c0.1,0,0.1,0.1,0.2,0.2
		C125.4,77.9,125.3,77.8,125.2,77.8z M124.7,77.3L124.7,77.3L124.7,77.3L124.7,77.3z M124.3,76.7C124.3,76.8,124.4,76.8,124.3,76.7
		C124.4,76.8,124.3,76.8,124.3,76.7z M123.8,75.7C123.9,75.7,123.9,75.7,123.8,75.7C123.9,75.7,123.9,75.7,123.8,75.7z M122.5,74.9
		c-0.1,0-0.1,0-0.2-0.1C122.4,74.8,122.5,74.8,122.5,74.9c0.1,0,0.1,0.1,0.2,0.1C122.7,75,122.6,74.9,122.5,74.9z M122.2,74.5
		C122.1,74.5,122.1,74.4,122.2,74.5C122.1,74.4,122.1,74.5,122.2,74.5c0,0.1,0,0.2,0,0.2V74.5z M122,74.2L122,74.2
		c-0.1-0.2-0.2-0.2-0.2-0.2s-0.1-0.1-0.1-0.2c0,0.1,0.1,0.1,0.1,0.2L122,74.2C122,74.1,122,74.1,122,74.2L122,74.2L122,74.2z
		 M121.5,73.1L121.5,73.1L121.5,73.1c0.1,0.1,0.1,0.2,0.1,0.4C121.6,73.3,121.5,73.2,121.5,73.1z M121.3,72.9
		c-0.1,0-0.1-0.1-0.2-0.1s-0.2-0.1-0.2-0.1l0,0c0,0,0.1,0.1,0.2,0.1C121.1,72.9,121.2,72.9,121.3,72.9
		C121.3,72.9,121.3,73,121.3,72.9C121.3,73,121.3,72.9,121.3,72.9z M120.3,72.1c-0.1-0.1-0.3-0.1-0.4-0.2l-0.1-0.1l0.1,0.1
		C120,72,120.2,72.1,120.3,72.1s0.2,0.1,0.2,0.2C120.5,72.2,120.4,72.2,120.3,72.1z M119.3,71.5c-0.1,0-0.2-0.1-0.2-0.1
		S119.2,71.5,119.3,71.5L119.3,71.5z M115.1,68.5C115.1,68.5,115.1,68.4,115.1,68.5C115,68.4,115,68.4,115.1,68.5
		C115,68.5,115,68.5,115.1,68.5z M114.7,68.2L114.7,68.2C114.7,68.1,114.7,68.1,114.7,68.2c0.1,0.1,0.2,0.1,0.3,0.2l0,0
		C114.9,68.3,114.8,68.2,114.7,68.2z M114.7,66.9c0-0.1,0-0.2,0.1-0.2c0-0.1,0-0.4,0-0.5c0,0,0-0.1,0-0.2c0,0.1,0,0.1,0,0.2
		s0,0.4,0,0.5C114.7,66.7,114.7,66.8,114.7,66.9z M114.8,65.8c0-0.1-0.1-0.3-0.1-0.4c0,0,0-0.1-0.1-0.1l0.1,0.1
		C114.7,65.5,114.8,65.7,114.8,65.8L114.8,65.8z M112.6,63C112.6,63,112.7,63,112.6,63C112.7,63,112.6,63,112.6,63L112.6,63
		L112.6,63z M112.9,62.8L112.9,62.8l0.1-0.2L112.9,62.8C113,62.7,113,62.7,112.9,62.8z M113,62.5c0-0.2,0-0.4-0.1-0.5
		c0-0.1-0.1-0.2-0.2-0.2l-0.1-0.1l0.1,0.1c0,0.1,0.2,0.1,0.2,0.2C113,62.2,113,62.4,113,62.5z M113,51.9c0-0.1,0.1-0.3,0.1-0.3l0,0
		C113.1,51.7,113,51.8,113,51.9z M113,52.4L113,52.4c0,0.1,0,0.3-0.1,0.4c0,0.1-0.1,0.2-0.2,0.3c0,0-0.1,0.1-0.2,0.2
		c0.1-0.1,0.1-0.1,0.2-0.2c0-0.1,0.1-0.2,0.2-0.3C112.9,52.6,113,52.5,113,52.4z M112.2,53.7C112.2,53.7,112.2,53.8,112.2,53.7
		C112.2,53.8,112.2,53.7,112.2,53.7c0.1-0.1,0.1-0.2,0.2-0.3C112.3,53.5,112.3,53.6,112.2,53.7z M111.8,54.2L111.8,54.2L111.8,54.2z
		 M111.5,54.6C111.5,54.6,111.5,54.5,111.5,54.6C111.6,54.5,111.6,54.5,111.5,54.6z M111.5,54.7C111.5,54.7,111.5,54.6,111.5,54.7
		L111.5,54.7C111.5,54.6,111.5,54.7,111.5,54.7z M111.6,55.7L111.6,55.7L111.6,55.7C111.5,55.8,111.6,55.7,111.6,55.7z M111.5,55.8
		c-0.1,0-0.2,0-0.3,0.1l0,0l0,0C111.3,55.9,111.4,55.9,111.5,55.8L111.5,55.8z M111.1,56.1v1.1c0,0-0.1,0.2-0.1,0.3c0,0,0,0,0,0.1
		c0,0,0,0,0-0.1s0.1-0.3,0.1-0.3V56.1C111.1,56.1,111.1,56,111.1,56.1C111.1,56,111.1,56.1,111.1,56.1z M110.6,58.2V59l0,0V58.2
		c0,0,0-0.2,0.1-0.3C110.7,58,110.6,58.2,110.6,58.2z M126.7,130.1C126.7,130.1,126.7,130.2,126.7,130.1c-0.1,0.1-0.2,0.1-0.3,0.1
		c0,0-0.1,0-0.1,0.1l-0.1,0.1h-0.1c0,0,0-0.1-0.1-0.1s-0.2,0-0.3,0l-0.1,0.1c-0.1,0-0.2,0-0.2,0c-0.1,0-0.2-0.1-0.2,0
		c0,0-0.1,0.1-0.1,0.2c-0.1,0-0.2,0-0.2,0s0,0.2-0.1,0.2c0,0,0,0.1-0.1,0.2h-0.2c0,0-0.1,0-0.2,0l-0.1,0.1l-0.1,0.2l-0.1,0.1
		c0,0-0.1,0-0.2,0.1c0,0-0.1,0.1-0.2,0.2c0,0,0,0.1,0,0.2l-0.1,0.1c0,0-0.1,0-0.1,0.1l-0.1,0.2c0,0-0.1,0-0.2,0.1
		c0,0-0.1,0.1-0.1,0.2c0,0-0.1,0.1-0.1,0.2c-0.1,0.1-0.2,0.2-0.3,0.2l-0.2,0.1c-0.1,0-0.2,0-0.2,0l0,0c0,0,0-0.1,0-0.2
		s0.1-0.2,0.1-0.2c0-0.1,0.2-0.1,0.2-0.2c0.1-0.1,0.1-0.2,0.2-0.3l0.2-0.1c0-0.1,0-0.2,0-0.2c0-0.1,0.1-0.2,0.1-0.2
		c0.1-0.1,0.2-0.1,0.3-0.2s0.2-0.2,0.2-0.3s0-0.2,0-0.2c0-0.1,0.1-0.2,0.2-0.3s0.3-0.1,0.3-0.2l0.1-0.2h0.1c0.1,0,0.2,0,0.3,0
		c0,0,0.1,0,0.2-0.1c0,0,0-0.2,0.1-0.2c0-0.1,0.2-0.1,0.2-0.2c0.1,0,0.2-0.1,0.2-0.1c0.1,0,0.3,0,0.4,0s0.2,0,0.3,0
		c0,0,0.1,0.1,0.2,0.1c0,0,0.1,0,0.2,0l0,0h0.1c0,0,0.1,0.1,0.2,0.1c0,0,0.1,0.1,0.2,0.1l0.1,0.1C126.7,129.9,126.7,130,126.7,130.1
		z M134.4,80.6c0.1,0,0.1,0,0.2-0.1c0,0,0,0,0.1,0c0,0,0,0-0.1,0C134.6,80.5,134.5,80.5,134.4,80.6z M138.8,80.3l-3.1,0.4
		c0,0-0.1,0-0.2,0c0.1,0,0.2,0,0.2,0L138.8,80.3z M137.5,70L137.5,70c-0.1,0.2-0.1,0.3-0.1,0.3c0,0.1,0.1,0.2,0.2,0.2h0.1
		c-0.1,0-0.1,0-0.1,0c-0.1,0-0.2-0.1-0.2-0.2S137.4,70.1,137.5,70C137.5,70.1,137.5,70,137.5,70z M140.7,78.6l-0.5,0.6L140.7,78.6
		l0.3-0.2L140.7,78.6z M138,70.5c0,0,0.1,0.1,0.2,0.1C138.1,70.5,138,70.5,138,70.5L138,70.5C137.9,70.5,137.9,70.5,138,70.5z
		 M138.6,70.7c-0.1,0-0.2,0-0.3,0C138.4,70.7,138.5,70.7,138.6,70.7z M139.1,70.7L139.1,70.7C139.1,70.8,139.1,70.8,139.1,70.7
		C139.1,70.7,139,70.7,139.1,70.7C139,70.7,139.1,70.7,139.1,70.7z M139.3,70.9C139.3,70.9,139.3,71,139.3,70.9
		c0.1,0.1,0.1,0.1,0.2,0.2C139.4,71,139.4,71,139.3,70.9C139.3,71,139.3,70.9,139.3,70.9z M140.2,72.1c0.1,0.1,0.2,0.2,0.2,0.3l0,0
		C140.4,72.3,140.3,72.2,140.2,72.1c0,0-0.1-0.1-0.1-0.2C140.2,72,140.2,72.1,140.2,72.1z M139.3,69L139.3,69L139.3,69
		c0.1,0,0.2-0.1,0.2-0.1C139.5,69,139.4,69,139.3,69z M138.4,68.9L138.4,68.9L138.4,68.9z M138,68.9c0.1,0,0.1-0.1,0.2-0.1
		C138.2,68.9,138.1,68.9,138,68.9z M137.9,69.2L137.9,69.2c0-0.1,0-0.2,0-0.2C137.9,69.1,137.9,69.1,137.9,69.2L137.9,69.2z
		 M137.9,69.8L137.9,69.8L137.9,69.8L137.9,69.8z M144.4,78.2v-1V78.2h-0.8H144.4z M142.6,75.4c0,0,0-0.1-0.1-0.2
		C142.5,75.3,142.5,75.4,142.6,75.4c0.1,0.1,0.2,0.3,0.2,0.4C142.7,75.7,142.6,75.5,142.6,75.4z M141.5,73.1c0,0-0.1-0.1-0.2-0.1
		c-0.1,0-0.1-0.1-0.2-0.1l0,0c0,0,0.1,0.1,0.2,0.1S141.4,73,141.5,73.1s0.1,0.2,0.2,0.3C141.6,73.2,141.5,73.1,141.5,73.1z
		 M140.8,72.6c-0.1,0-0.2-0.1-0.3-0.2C140.6,72.5,140.7,72.6,140.8,72.6c0.1,0.1,0.2,0.1,0.3,0.2C141,72.7,140.9,72.6,140.8,72.6z
		 M140.7,63.2C140.7,63.1,140.7,63.1,140.7,63.2C140.7,63.1,140.7,63.1,140.7,63.2z M135.1,80.6L135.1,80.6L135.1,80.6L135.1,80.6
		L135.1,80.6z M140.6,91.9c0,0-0.1,0.1-0.2,0.1c-0.1,0-0.2,0.1-0.2,0.1v0.2c0,0.1,0.1,0.1,0.1,0.2s0.1,0.3,0,0.4
		c-0.1,0-0.2-0.1-0.3,0c0,0-0.1,0.1-0.1,0.2v0.2c0,0-0.2,0-0.2,0.1c-0.1,0-0.2,0.1-0.2,0.2s0,0.2,0,0.3l-0.1,0.1c-0.1,0-0.2,0-0.2,0
		l-0.1,0.2c0,0.1-0.1,0.2-0.1,0.2s-0.1,0-0.2,0c-0.1,0-0.2,0.1-0.1,0.2c0,0.1,0.1,0.1,0.2,0.2c0.1,0,0.2,0.1,0.3,0.1
		s0.1-0.1,0.2-0.1c0.1,0,0.2,0,0.3,0l0.1,0.1c0,0.1-0.1,0.2-0.1,0.3c0,0.1-0.2,0.1-0.2,0.2c-0.1,0.1-0.2,0.1-0.3,0.2
		c-0.1,0-0.2,0.1-0.3,0.1s-0.3,0-0.4,0c-0.1,0-0.2,0-0.3,0s-0.2,0.1-0.2,0.2l-0.1,0.2c0,0.1,0,0.2,0,0.2c0,0.1,0,0.2-0.1,0.3h-0.2
		c-0.1,0-0.1-0.2-0.1-0.3c0,0-0.1-0.1-0.2-0.1c-0.1,0-0.3-0.1-0.3-0.1c-0.1,0-0.2-0.1-0.3-0.1c-0.1-0.1-0.2-0.3-0.3-0.4
		s-0.2-0.1-0.2-0.2c0,0,0-0.1-0.1-0.1s-0.2,0.1-0.3,0.2v0.1c0,0,0.1,0.1,0.1,0.2s0,0.2-0.1,0.2h-0.2v0.2c0,0-0.1,0.1-0.1,0.2
		c-0.1,0-0.2,0.1-0.3,0.1s-0.1-0.2-0.2-0.2c-0.1-0.1-0.1-0.4-0.2-0.5c0-0.2,0-0.5,0-0.6c0-0.2-0.2-0.5-0.2-0.7s0.1-0.4,0.1-0.6
		s0-0.5,0-0.6s0.1-0.4,0.1-0.5s0-0.3,0-0.3c0-0.1-0.1-0.1-0.2-0.2l0,0c0-0.1,0-0.3,0-0.4s0.1-0.2,0.2-0.3c0-0.1,0.2-0.1,0.2-0.2
		c0.1-0.1,0.1-0.2,0.1-0.3c0-0.1,0-0.2,0-0.2c0-0.1-0.1-0.2-0.1-0.2c0-0.1,0-0.3,0.1-0.3c0.1-0.1,0.3-0.1,0.4-0.1
		c0.1,0,0.3,0,0.4-0.1c0.1-0.1,0.2-0.3,0.3-0.3c0,0,0.1,0,0.2,0c0.1,0,0.3,0.1,0.3,0c0,0,0-0.2,0-0.3c0,0,0.2,0,0.3,0
		s0.3,0.1,0.4,0.1c0,0,0.1,0,0.2,0c0.1,0,0.2,0.2,0.2,0.2c0.1,0,0.2-0.1,0.2-0.2c0.1-0.1,0.2-0.2,0.2-0.3c0-0.1,0-0.2,0-0.2
		c0-0.1,0.2-0.1,0.2-0.1c0.1,0,0.2,0.1,0.2,0.1c0.1,0,0.2,0.2,0.2,0.2c0.1,0,0.2,0.1,0.3,0.1s0.2,0,0.3,0s0.2-0.1,0.3-0.1
		s0.2,0,0.3,0l0,0c0,0.1,0,0.2,0,0.3c0,0.1,0,0.3,0,0.4s0.1,0.1,0.2,0.2l0.1,0.1c0,0.1,0,0.2,0,0.2c0,0.1,0.1,0.1,0.2,0.2
		c0,0,0.1,0,0.2,0c0.1,0,0.2-0.1,0.2-0.1c0.1,0,0.3-0.1,0.4-0.1c0.1,0,0.3,0,0.4,0h0.2c0,0,0.1,0.2,0,0.2c0,0-0.1,0.1-0.2,0.1
		c-0.1,0-0.2,0-0.2,0s-0.1,0.1-0.2,0.1c-0.1,0.1-0.2,0.2-0.2,0.2c-0.1,0-0.2,0.1-0.3,0.1s-0.2,0-0.2,0c-0.1,0-0.2,0.1-0.2,0.1
		c-0.1,0.1-0.2,0.3-0.1,0.5c0,0.1,0.2,0.1,0.2,0.2C140.7,91.7,140.7,91.8,140.6,91.9C140.7,91.8,140.7,91.9,140.6,91.9z M148.9,45.3
		L148.9,45.3L148.9,45.3z M148.6,46c-0.1,0.1-0.2,0.2-0.3,0.3C148.3,46.2,148.5,46.1,148.6,46z M147.6,46.6c0.1-0.1,0.4-0.1,0.5-0.2
		C148,46.4,147.7,46.5,147.6,46.6c-0.1,0-0.2,0.1-0.3,0.1C147.4,46.6,147.5,46.6,147.6,46.6z M147,46.8L147,46.8L147,46.8L147,46.8z
		 M146.3,47.4C146.4,47.4,146.4,47.4,146.3,47.4C146.4,47.4,146.4,47.4,146.3,47.4c-0.1,0-0.3,0-0.3,0s0,0-0.1,0h0.1
		C146.1,47.4,146.2,47.4,146.3,47.4z M145.1,51.7c0.1-0.4,0.2-1.2,0.3-1.5c0-0.1,0-0.1,0-0.2c0,0.1,0,0.2,0,0.2
		C145.3,50.5,145.1,51.3,145.1,51.7c0,0.2-0.1,0.6-0.1,0.9C145,52.3,145,51.9,145.1,51.7z M144.7,56.6
		C144.7,56.7,144.7,56.7,144.7,56.6c0,0.1,0,0.2,0,0.3C144.7,56.9,144.7,56.8,144.7,56.6C144.7,56.7,144.7,56.7,144.7,56.6z
		 M144.2,58c0,0,0.1-0.1,0.2-0.1c0.1,0,0.1-0.1,0.2-0.1c0,0,0-0.1,0.1-0.2c0,0.1,0,0.1-0.1,0.2c0,0-0.1,0.1-0.2,0.1
		C144.3,58,144.2,58,144.2,58c-0.1,0-0.1,0.1-0.2,0.2C144,58.1,144.1,58.1,144.2,58z M143.5,58.6c0,0.1-0.1,0.1-0.1,0.2
		s-0.1,0.2-0.2,0.2c0.1-0.1,0.1-0.2,0.2-0.2C143.5,58.7,143.5,58.7,143.5,58.6z M142.2,60.7c0.1-0.1,0.2-0.3,0.2-0.3
		c0.1-0.2,0.3-0.5,0.5-0.7c-0.2,0.3-0.3,0.5-0.5,0.7C142.3,60.4,142.2,60.6,142.2,60.7s-0.1,0.2-0.1,0.3s-0.1,0.2-0.1,0.4
		c0-0.1,0-0.3,0.1-0.4C142,60.9,142.1,60.8,142.2,60.7z M141.9,61.5c0,0.2-0.1,0.4-0.1,0.6c0,0.1,0,0.1,0,0.2c0-0.1,0-0.2,0-0.2
		C141.8,61.9,141.9,61.7,141.9,61.5z M141.5,62.9c0.1,0,0.1-0.1,0.2-0.2C141.6,62.8,141.6,62.8,141.5,62.9c-0.1,0-0.3,0-0.4,0
		C141.2,62.9,141.4,62.9,141.5,62.9z M140.7,33.4c0.1-0.1,0.3-0.2,0.3-0.3c0,0,0-0.1,0.1-0.1c0,0,0,0.1-0.1,0.1
		C141,33.2,140.8,33.3,140.7,33.4L140.7,33.4C140.6,33.4,140.7,33.4,140.7,33.4z M140.3,33.8L140.3,33.8l-0.2-0.1L140.3,33.8
		L140.3,33.8z M140,33.7L140,33.7c-0.1,0-0.2-0.1-0.3,0C139.8,33.6,140,33.6,140,33.7z M139.5,34.3L139.5,34.3
		C139.5,34.2,139.5,34.2,139.5,34.3c0,0,0,0.1,0,0.2C139.5,34.4,139.5,34.3,139.5,34.3z M138.9,35c0.1,0,0.3,0,0.4-0.1
		c0,0,0-0.1,0.1-0.1c0,0,0,0.1-0.1,0.1C139.2,35,139,35,138.9,35s-0.3,0.1-0.4,0.1c-0.1,0-0.2,0-0.3,0.1c0.1,0,0.2-0.1,0.3-0.1
		S138.8,35.1,138.9,35z M138.2,35.3c-0.1,0.1-0.2,0.2-0.2,0.2l0,0C138,35.5,138.1,35.3,138.2,35.3z M136.7,36.4c0.1,0,0.3,0,0.4,0
		l0,0C136.9,36.5,136.7,36.4,136.7,36.4c-0.1,0-0.2-0.1-0.3-0.2C136.5,36.3,136.6,36.4,136.7,36.4z M136,35.9l0.2,0.1l0.1,0.1
		l-0.1-0.1C136.1,36,136,35.9,136,35.9s-11.6,0.3-16.6,0.5C124.4,36.3,136,35.9,136,35.9z M117.2,36.5l0.2,4.2L117.2,36.5
		L117.2,36.5z"/>
	<path class="st0" d="M162.2,120.4c0,0.1,0.2,0.1,0.3,0.1l0.1,0.1c0.1,0,0.2,0,0.2,0s0.1,0,0.1-0.1c0,0,0-0.1-0.1-0.1
		c0-0.1-0.1-0.1-0.2-0.2c-0.1,0-0.2-0.1-0.3-0.1s-0.2,0-0.2,0.1S162.1,120.4,162.2,120.4z"/>
	<path class="st0" d="M165.5,122.2c0,0.1,0.1,0.2,0.2,0.2c0.1,0,0.2,0,0.2-0.1c0,0,0.1-0.1,0.1-0.2s0-0.2,0-0.3
		c0-0.1-0.1-0.2-0.1-0.2c0-0.1-0.1-0.2-0.2-0.2c-0.1,0-0.2-0.1-0.3,0l-0.1,0.1c0,0.1,0,0.2,0,0.2c0,0.1,0.1,0.2,0.2,0.2
		C165.6,122.1,165.5,122.2,165.5,122.2z"/>
	<path class="st0" d="M164,120.4c0,0,0,0.2,0.1,0.2c0,0.1,0.1,0.2,0.2,0.2l0.1-0.1c0-0.1,0.1-0.2,0.1-0.2c0-0.1,0-0.2,0-0.3
		c0-0.1,0-0.2-0.1-0.2c0,0-0.1-0.1-0.2-0.1h-0.1c0,0-0.1,0.1-0.1,0.2c0,0-0.1-0.1-0.2-0.1h-0.1v0.2l0.1,0.1
		C163.8,120.4,164,120.4,164,120.4z"/>
	<path class="st0" d="M161.3,118.9c0,0.1,0.2,0.1,0.3,0.1v0.2c0,0.1,0.2,0.2,0.3,0.2c0,0,0.1,0,0.2,0c0-0.1-0.1-0.2,0-0.3
		c0-0.1,0.1-0.1,0.2-0.1v-0.2c0-0.1-0.2-0.1-0.2-0.2l-0.1-0.2c0-0.1,0.1-0.2,0.1-0.2c0-0.1,0-0.2-0.1-0.2l-0.2-0.1
		c-0.1,0-0.2,0-0.2,0.1c-0.1,0-0.1,0.2-0.1,0.3c0,0.1,0.1,0.2,0,0.3C161.5,118.7,161.4,118.8,161.3,118.9
		C161.3,118.7,161.3,118.8,161.3,118.9z"/>
	<path class="st0" d="M152.9,105.1c0,0.1,0.2,0.1,0.3,0.1c0.1,0.1,0.2,0.3,0.3,0.2c0.1,0,0.1-0.2,0.1-0.3c0-0.1-0.1-0.2-0.1-0.2
		c0-0.1,0-0.2-0.1-0.3l-0.2-0.1c-0.1-0.1-0.1-0.3-0.1-0.4s0.1-0.2,0.1-0.3c0-0.1,0-0.3-0.1-0.3s-0.2,0-0.3,0.1s-0.1,0.3-0.1,0.4
		s0,0.3,0,0.4s0.1,0.2,0.1,0.3C152.9,104.9,152.8,105,152.9,105.1z"/>
	<path class="st0" d="M154.1,101.6h-0.2c-0.1,0-0.1,0.2-0.1,0.3c0,0.1,0,0.3,0,0.4s0,0.3,0.1,0.4c0,0.1,0,0.2,0.1,0.3
		c0,0,0.1,0,0.1-0.1s0.1-0.2,0.1-0.3v-0.1c0-0.1,0.1-0.2,0.1-0.3c0-0.1-0.1-0.3-0.1-0.4C154.2,101.8,154.2,101.7,154.1,101.6z"/>
	<path class="st0" d="M75.6,85.2c-0.1,0.1-0.1,0.2-0.1,0.3c0,0.1,0,0.3,0.1,0.3s0.2,0,0.3,0c0,0,0.1-0.1,0.1-0.2s0.1-0.2,0.1-0.3
		c0-0.1-0.1-0.2-0.2-0.2C75.8,85.1,75.6,85.2,75.6,85.2z"/>
	<path class="st0" d="M74.4,88.4c0,0-0.1-0.1-0.2-0.2c-0.1,0-0.2,0-0.3,0s-0.2,0.1-0.2,0.1c-0.1,0.1-0.1,0.3-0.1,0.4s-0.1,0.3,0,0.4
		c0,0.1,0.2,0.1,0.3,0.1s0.2-0.2,0.3-0.3c0,0,0.1-0.1,0.1-0.2l0.2-0.1c0-0.1,0.1-0.2,0.1-0.3C74.5,88.5,74.4,88.5,74.4,88.4z"/>
	<path class="st0" d="M79.5,81.2c0-0.1,0.2-0.1,0.2-0.2s0-0.2-0.1-0.2c0-0.1-0.1-0.1-0.1-0.2s0-0.2,0.1-0.2c0,0,0.1,0,0.2,0l0.1-0.2
		h-0.2c-0.1,0-0.2,0-0.2,0c-0.1,0-0.2-0.1-0.3-0.1l-0.1,0.1c0,0-0.1,0-0.2,0s-0.1,0.2-0.1,0.2c0,0.1,0,0.2-0.1,0.2
		c0,0.1-0.1,0.1-0.1,0.2s0,0.2,0,0.3c0,0-0.2,0-0.2,0.1c0,0,0,0.2,0.1,0.2c0,0,0.2,0,0.2,0.1c0,0,0,0.2,0.1,0.2c0.1,0.1,0.3,0,0.3,0
		c0.1,0,0.2,0,0.2-0.1c0.1,0,0.2-0.1,0.2-0.2C79.5,81.5,79.4,81.3,79.5,81.2z"/>
</g>
</svg>
