<?xml version="1.0" encoding="utf-8"?>
<!-- Generator: Adobe Illustrator 23.0.6, SVG Export Plug-In . SVG Version: 6.00 Build 0)  -->
<svg version="1.1" id="africa_x5F_bostwana" xmlns="http://www.w3.org/2000/svg" xmlns:xlink="http://www.w3.org/1999/xlink"
	 x="0px" y="0px" viewBox="0 0 259.3 238" style="enable-background:new 0 0 259.3 238;" xml:space="preserve">
<style type="text/css">
	.st0{fill:#FFFFFF;}
	.st1{fill:#F9F9FA;}
	.st2{fill:url(#bostwana_1_);}
	.st3{fill:url(#SVGID_1_);}
	.st4{fill:none;stroke:#B4B4B5;stroke-width:0.75;stroke-miterlimit:10;}
	.st5{fill:none;}
	.st6{fill:#24272F;}
	.st7{font-family:'MrEavesModOT-Reg';}
	.st8{font-size:17.8472px;}
	.st9{font-family:'Roboto-Regular';}
	.st10{font-size:19.22px;}
	.st11{fill:#B4B4B5;}
</style>
<g id="map">
	<path class="st0" d="M40.5,84.6c-0.1,0-0.3-0.1-0.4,0c0,0-0.1,0.1-0.3,0.1c-0.2,0-0.3,0-0.3,0.1s0,0.3,0,0.3s0,0.1,0.1,0.3
		c0.1,0,0.3,0,0.4,0c0,0,0-0.1,0.1-0.1l0.3-0.1c0.1,0,0.3-0.1,0.3-0.3C40.7,84.9,40.6,84.8,40.5,84.6z"/>
	<path class="st0" d="M14.3,70.2c-0.1,0-0.3,0-0.4,0c-0.1,0-0.1,0.3-0.1,0.3v0.2c0,0,0.1,0.1,0.3,0.1c0.1,0,0.3,0,0.4,0
		s0.1-0.1,0.3-0.1l0.1-0.1c0-0.1-0.1-0.3-0.1-0.3C14.5,70.3,14.3,70.2,14.3,70.2z"/>
	<path class="st0" d="M16.9,69.2c0-0.1-0.3-0.1-0.3-0.1s-0.1,0-0.3,0c-0.1,0.1,0,0.4,0,0.4c0,0.1-0.1,0.3-0.1,0.4s0,0.4,0,0.5
		s0.3,0.1,0.3,0.1c0.1,0,0.5,0,0.7-0.1l0.1-0.1c0-0.1,0.1-0.3,0.1-0.3s-0.1-0.1-0.3-0.3C16.9,69.5,16.9,69.3,16.9,69.2z"/>
	<path class="st0" d="M20,66.2c-0.1,0-0.3,0-0.4,0s-0.3,0.1-0.3,0.3c0,0.1,0,0.3,0,0.4s0.1,0.3,0.1,0.4c0.1,0.1,0.3,0.1,0.4,0.1
		c0.1,0,0.3-0.1,0.4-0.1l0.1-0.3c0-0.1-0.1-0.3-0.1-0.4C20.2,66.3,20.1,66.2,20,66.2z"/>
	<path class="st0" d="M20,64.8c0.1,0,0-0.3,0-0.4c0-0.1,0.3-0.3,0.3-0.3c-0.1-0.1-0.2-0.2-0.2-0.4L20,63.6c-0.1,0-0.1,0.3-0.1,0.3
		s-0.1,0.1-0.1,0.3c0,0.2-0.1,0.4,0,0.5C19.7,64.7,19.8,64.8,20,64.8z"/>
	<path class="st0" d="M16.3,64.3c0,0-0.1-0.1-0.3-0.3c-0.1,0-0.3-0.1-0.4-0.3c0,0-0.1-0.1-0.1-0.3c-0.1,0-0.3,0-0.3,0v0.3
		c0,0.1-0.1,0.1-0.1,0.3c0,0.1,0.1,0.3,0.3,0.4c0.1,0,0.3,0,0.4,0.1c0,0,0.1,0,0.3,0c0,0,0.1,0,0.1-0.1c0.1,0.3,0.2,0.3,0.2,0.3
		C16.4,64.6,16.3,64.4,16.3,64.3z"/>
	<path class="st0" d="M12.6,62c-0.1,0-0.3,0.1-0.4,0.3c0,0.1-0.1,0.3,0,0.4c0,0.1,0,0.4,0.1,0.4c0.1,0,0.3,0,0.4,0
		c0.1,0,0.1-0.1,0.3-0.3c0.1,0,0.3,0,0.4,0l0.1-0.1c0,0,0-0.1,0-0.3c0-0.1,0-0.3,0-0.3c-0.1,0-0.3,0-0.4-0.1C13,62,12.7,62,12.6,62z
		"/>
	<path class="st0" d="M128.2,11.9c0,0.1,0,0.3,0,0.3s0,0.1,0,0.3c0,0,0.1,0.1,0.3,0.1c0.2,0,0.3,0,0.4-0.1c0,0,0.1-0.1,0.1-0.3
		c0-0.1,0-0.4,0-0.4c0-0.1-0.3-0.1-0.4-0.1C128.4,11.6,128.2,11.8,128.2,11.9z"/>
	<path class="st0" d="M253.8,175.3c0-0.4-0.1-1.1-0.1-1.5c0-0.3,0-0.8,0-1.1c0-0.4-0.3-1-0.3-1.4s0-1.1-0.1-1.5c0-0.4,0-1.1,0-1.4
		c0-0.1-0.1-0.5-0.1-0.7c0-0.1,0-0.3-0.1-0.3c-0.1-0.1-0.4-0.4-0.4-0.5c-0.1-0.1-0.1-0.4-0.3-0.5c0-0.1-0.3-0.1-0.3-0.3
		c0,0-0.1-0.1-0.3-0.1l-0.1-0.3h-0.1l-0.1,0.1c-0.1,0-0.3,0-0.4,0.1c0,0,0,0.3-0.1,0.3c0,0-0.1,0.1-0.3,0.1l-0.1-0.1l-0.1-0.1
		c0,0-0.1,0-0.1,0.1s0,0.3,0.1,0.4c0,0,0.3,0,0.3,0.1s0,0.4,0,0.4c0,0.1-0.1,0.3-0.1,0.4c0,0.1-0.1,0.4-0.3,0.5c0,0.1,0,0.5,0,0.7
		c0,0.1-0.1,0.4-0.1,0.4l-0.3,0.1l-0.1,0.3l-0.1,0.1c0,0,0-0.1,0-0.3c0-0.1-0.1-0.3-0.1-0.4c0,0-0.1,0-0.3,0.1c0,0.1,0,0.3,0,0.4
		c0,0.1-0.1,0.3-0.1,0.4c0,0.1-0.1,0.1-0.3,0.3c0,0.1-0.1,0.3-0.1,0.3c0,0.1-0.3,0.1-0.3,0.3c0,0.1,0.1,0.3,0,0.3c0,0-0.1,0-0.3,0
		c0,0,0-0.3-0.1-0.3c0,0,0-0.1,0-0.3c0-0.1,0-0.3-0.1-0.3l-0.3-0.1c-0.1,0-0.3,0-0.3,0s-0.1,0.1-0.1,0.3s0,0.3,0,0.4
		c0,0.1,0.1,0.3,0.1,0.4c0,0.1,0.1,0.3,0.3,0.4c0,0.1,0,0.4-0.1,0.5c0,0.1-0.1,0.3-0.1,0.3l-0.1-0.1v-0.1l-0.1-0.1
		c-0.1,0-0.1,0.1-0.1,0.3s-0.1,0.3-0.1,0.4c0,0.1-0.1,0.5-0.1,0.7c0,0.1,0.1,0.3,0.3,0.3c0,0,0.1,0,0.3,0c0,0,0.1,0.1,0.1,0.3
		c0,0.1,0,0.3,0,0.3h-0.1c0,0-0.1-0.1-0.3-0.1c-0.1,0-0.3,0-0.4,0c-0.1,0-0.3,0.3-0.3,0.4c0,0.1,0,0.3,0,0.4c0,0.1-0.3,0.3-0.3,0.3
		l-0.1,0.1c0,0-0.1,0-0.3-0.1c0,0,0-0.1,0-0.3l0.1-0.1v-0.1c0,0,0.1-0.1,0.1-0.3c0,0,0.1-0.1,0.1-0.3c0-0.1-0.1-0.3-0.3-0.3h-0.9
		c-0.1,0-0.1,0.1-0.3,0.3c0,0.1,0.1,0.3,0.1,0.4c0,0.1-0.3,0.3-0.3,0.4c-0.1,0.1-0.3,0.3-0.4,0.4c0,0-0.3,0-0.3,0.1v0.3
		c0,0,0.1,0,0.1,0.1c0,0,0,0.1,0,0.3c0,0.1,0.3,0.3,0.3,0.3c0,0.1,0,0.3-0.1,0.4c0,0-0.1,0.1-0.3,0.1c0,0-0.1,0-0.3,0
		c0,0-0.1,0-0.3,0s-0.1-0.3-0.1-0.4c0-0.1,0.1-0.1,0.1-0.3s0-0.3,0-0.3l-0.1-0.1c-0.1,0-0.3,0-0.4,0s-0.4,0.1-0.4,0.3
		c-0.1,0.1-0.3,0.4-0.4,0.5c0,0.1-0.1,0.3-0.3,0.3c0,0-0.1,0.1-0.1,0.3c0,0.1-0.1,0.3-0.1,0.3s0.1,0.1,0.1,0.3c0,0,0.1,0,0.1,0.1
		c0.1,0.1,0.1,0.3,0.1,0.4c0,0.1,0.1,0.4,0,0.5h-0.3c-0.1,0-0.3,0-0.3,0c-0.1,0-0.1-0.3-0.3-0.3l-0.3-0.1c0,0-0.1-0.1-0.1-0.3
		c0-0.1,0-0.3,0-0.4c0-0.1-0.1-0.3-0.3-0.3h-0.3c0,0-0.1,0.1-0.1,0.3c0,0,0,0.3-0.1,0.3h-0.3c-0.1,0-0.1-0.3-0.3-0.3
		c0,0-0.1,0-0.3,0s-0.3,0.1-0.4,0.3c0,0.1,0,0.4,0,0.5s-0.1,0.3-0.3,0.3H238c0,0,0-0.3-0.1-0.3h-0.1v0.3c0,0.1-0.1,0.3-0.3,0.3
		s-0.1-0.1-0.1-0.3c0-0.1,0-0.3,0-0.3s-0.1,0-0.3,0s-0.1,0.3-0.3,0.3c-0.1,0.1-0.4,0.1-0.4,0.1c-0.1,0.1-0.1,0.3-0.3,0.4
		c-0.1,0-0.3,0.1-0.4,0c-0.1,0-0.3-0.4-0.4-0.4c0,0-0.1-0.1-0.1,0c-0.1,0-0.4,0.3-0.4,0.4c-0.1,0.1,0,0.5,0,0.7c0,0.1,0,0.3,0,0.4
		c0,0.1-0.1,0.3-0.1,0.3c-0.1,0.1-0.3,0.4-0.3,0.5c-0.1,0.1-0.3,0.5-0.4,0.8c-0.1,0.3-0.4,0.7-0.5,0.8s-0.3,0.4-0.4,0.7
		c0,0.1,0,0.4,0.1,0.5c0,0.1,0.3,0.3,0.4,0.4c0.1,0.1,0.1,0.7,0.1,0.8c0,0.3,0.1,0.8,0.1,1.1c0,0.4-0.1,1.1,0,1.5
		c0,0.3,0.3,0.7,0.3,1c0,0.1,0,0.4,0,0.5s0.3,0.5,0.3,0.8c0,0.1,0.1,0.4,0,0.5c0,0.1-0.3,0-0.4,0.1c0,0.1,0.1,0.3,0.1,0.4
		c0,0.1,0,0.3,0,0.4c0,0.1-0.3,0.4-0.3,0.5c-0.1,0.1-0.4,0.4-0.5,0.5c-0.3,0.4-0.5,1.2-0.8,1.6c-0.1,0.3-0.7,1-1,1.2
		c0,0.1-0.1,0.3-0.1,0.3c0,0.1-0.1,0.3-0.3,0.4c-0.1,0.1-0.5,0.1-0.5,0.3c-0.1,0.1-0.4,0.7-0.5,0.8s-0.3,0.5-0.4,0.7
		c-0.1,0.1-0.3,0.3-0.3,0.4c0,0.3,0,0.7,0,1s0,0.7-0.1,1c0,0.1-0.1,0.5-0.1,0.7c0,0.1,0.1,0.5,0.1,0.7c0,0,0.1,0.1,0.1,0.3
		c0.1,0.1,0.4,0.1,0.4,0.3c0.1,0.1,0.1,0.5,0.1,0.7c0,0.1,0,0.4,0,0.5s0.3,0.3,0.3,0.4c0,0.1,0,0.3-0.1,0.4c0,0.1-0.3,0.4-0.3,0.5
		s-0.1,0.3-0.1,0.4c0,0.3,0.1,0.7,0.1,1c0,0.1,0,0.5,0,0.7c0,0.3,0,0.7,0,0.8s0.1,0.5,0.1,0.7c0.1,0.3,0.4,0.5,0.7,0.7
		c0.1,0.1,0.5,0.5,0.7,0.7c0.1,0.1,0.7,0.5,0.8,0.7c0.1,0.1,0.5,0.7,0.7,0.8c0.1,0.1,0.5,0.3,0.7,0.3s0.4,0,0.5,0s0.3-0.1,0.4-0.1
		s0.3-0.1,0.3-0.3c0.1-0.1,0.4-0.3,0.5-0.3s0.5-0.1,0.7-0.1s0.3-0.1,0.3-0.1c0.1,0,0.3,0,0.4,0s0.4,0,0.5,0s0.1-0.1,0.3-0.1
		c0.1,0,0.3-0.1,0.4-0.1s0.3,0,0.4,0s0.3,0.1,0.3,0.1c0.1,0,0.3-0.1,0.3-0.1s0-0.3,0.1-0.3s0.3,0,0.4,0c0.1,0,0.3-0.3,0.3-0.3
		c0-0.1,0.1-0.3,0.1-0.3c0-0.1,0-0.3,0.1-0.4c0-0.1,0.3-0.5,0.4-0.7c0.1-0.3,0.4-1,0.5-1.4c0.3-0.5,0.8-1.8,1.1-2.3
		c0.4-0.8,1.1-2.3,1.5-3.1c0.5-1.1,1.4-3.1,1.9-4.1c0.3-0.5,0.8-1.8,1.1-2.5c0.4-0.8,1.1-2.5,1.5-3.1c0.3-0.5,0.8-1.5,1-2.1
		c0.3-0.5,0.4-1.8,0.7-2.3c0.1-0.4,0.4-1.1,0.5-1.4c0-0.1,0.1-0.4,0.1-0.7c0-0.1,0.1-0.5,0.1-0.7c0.1-0.3,0.3-0.7,0.3-0.8
		c0.1-0.1,0.4-0.5,0.4-0.7c0.1-0.1,0.4-0.4,0.5-0.7c0.1-0.1,0.3-0.3,0.4-0.5c0-0.1,0-0.5,0-0.7c0-0.1,0-0.4,0-0.4
		c0-0.1-0.3-0.4-0.3-0.4c0-0.1,0-0.4,0-0.5s0.1-0.3,0.1-0.4c0-0.1,0-0.3,0-0.4c0-0.1,0.1-0.3,0.1-0.4c0-0.1,0-0.4,0.1-0.5
		c0-0.1,0.1-0.3,0.1-0.3s0.1,0,0.3,0c0.1,0,0.3,0,0.3,0.1c0,0,0.1,0.3,0.1,0.4c0,0.1,0,0.4,0,0.5s0,0.4,0,0.5s0.1,0.3,0.1,0.4
		c0.1,0.1,0.3,0.1,0.4,0.1c0.1,0,0.3,0,0.3,0c0.1-0.1,0.1-0.3,0.1-0.4c0-0.1,0-0.4,0-0.5s0-0.4,0-0.7c0.1-1.9,0-2.3-0.1-2.5
		C254,176.1,253.9,175.6,253.8,175.3z"/>
	<path class="st0" d="M221.1,69.9h0.1V70l-0.1,0.1c0,0.1,0.3,0.1,0.3,0.1s0.1,0.1,0.3,0.1l0.1,0.1c0.1,0,0.3-0.1,0.4-0.1
		s0.3,0,0.3,0l0.1-0.3c0,0-0.1-0.1-0.1-0.3c0,0-0.1-0.1-0.3-0.1c0,0-0.1,0.1-0.3,0.1c-0.1,0-0.3-0.1-0.3-0.1s0-0.3-0.1-0.3l-0.1-0.1
		c-0.1,0-0.3,0-0.3,0l-0.1,0.1h-0.1c0,0,0,0.1,0,0.3C220.8,69.9,220.9,69.9,221.1,69.9z"/>
	<path class="st0" d="M221.2,69.1c0.1,0,0.3,0,0.4,0l0.1-0.1c0-0.1-0.1-0.3-0.1-0.3c-0.1,0-0.3-0.1-0.4-0.1h-0.3c0,0-0.1,0.3,0,0.3
		C220.9,68.9,221.2,69.1,221.2,69.1z"/>
	<path class="st0" d="M259.4,86.7c0,0-0.1,0-0.3,0c0,0-0.1,0-0.1,0.1c0,0-0.1,0.3,0,0.3c0,0.1,0.1,0.3,0.3,0.4c0.1,0,0.3,0,0.3,0
		c0.1,0,0.3-0.3,0.3-0.4C259.6,87,259.5,86.7,259.4,86.7z"/>
	<path class="st0" d="M205.1,45.8c-0.1,0-0.1,0.1-0.1,0.1C205.1,46,205.1,45.8,205.1,45.8z"/>
	<path class="st1" d="M258.4,84.4c0-0.1-0.3-0.3-0.4-0.4c0-0.1,0-0.4,0-0.5s0-0.3,0.1-0.4c0-0.1,0.3-0.1,0.3-0.3
		c0.1-0.1,0.1-0.4,0.1-0.5s0-0.3,0-0.3c-0.1-0.1-0.3,0-0.4,0c0,0-0.1-0.1-0.3-0.1c0,0-0.1-0.1-0.3-0.1c-0.2,0-0.3-0.1-0.4-0.1
		s-0.3,0-0.4,0c-0.1,0-0.4,0.1-0.4,0.1c-0.1,0.1-0.1,0.4-0.3,0.5c-0.1,0.1-0.3,0.3-0.4,0.4c-0.1,0.1-0.3,0.3-0.4,0.3
		c-0.1,0-0.4,0-0.5,0c-0.3,0-0.5,0.3-0.8,0.3s-0.7,0.1-1,0.1c0,0-0.1,0.1-0.3,0.1s-0.3,0-0.4,0s-0.4,0.1-0.5,0.1s-0.3,0.1-0.4,0.3
		c-0.1,0-0.3,0.1-0.4,0.1c-0.1,0-0.3,0-0.4,0c-0.1,0-0.3-0.1-0.4-0.1s-0.3,0-0.4,0.1c-0.1,0-0.3,0.3-0.4,0.4c-0.1,0-0.3,0.1-0.4,0.1
		c-0.1,0-0.3,0-0.4,0s-0.3,0-0.4,0c-0.1,0-0.3,0.1-0.3,0.1c-0.1,0-0.4,0.1-0.5,0.1s-0.3,0-0.3-0.1l-0.1-0.1c-0.1,0-0.4,0-0.5,0
		s-0.3,0-0.3,0c-0.1,0-0.1,0.3-0.3,0.4c0,0.1-0.1,0.3-0.3,0.3c-0.1,0-0.3,0.1-0.3,0.1s-0.1,0-0.3,0s-0.1,0.3-0.3,0.3
		c0,0.1-0.1,0.3-0.3,0.3c-0.1,0.1-0.5,0-0.7,0.1c-0.1,0-0.4,0-0.5,0s-0.3,0-0.3,0c-0.1,0-0.3-0.1-0.3-0.1c-0.1,0-0.3,0-0.4,0
		s-0.3,0.1-0.3,0.1c-0.1,0-0.4-0.1-0.4-0.1c-0.1,0-0.1-0.1-0.3-0.3c0,0-0.1,0-0.3,0s-0.1,0.3-0.3,0.4c-0.1,0.1-0.3,0.3-0.4,0.3
		c-0.1,0.1-0.3,0.3-0.4,0.3s-0.3,0.1-0.4,0.3c-0.1,0-0.3,0.1-0.4,0.1c-0.1,0-0.3,0.1-0.4,0.3c0,0-0.1,0.1-0.3,0.1
		c-0.1,0-0.5,0-0.7,0s-0.3-0.1-0.3-0.1c-0.1,0-0.3,0-0.3,0c-0.1,0-0.4,0-0.5,0s-0.5-0.1-0.7-0.3c-0.3-0.1-0.5-0.7-0.8-1
		s-1-1-1.2-1.2c-0.1-0.1-0.4-0.4-0.5-0.5s-0.3-0.4-0.4-0.4c0,0-0.1,0-0.1-0.1l-0.1-0.1c-0.1,0-0.4-0.1-0.5-0.1s-0.3,0.3-0.4,0.3
		c-0.1,0-0.4,0-0.5,0c0,0,0,0.1-0.1,0.1s-0.3,0.1-0.3,0.1c-0.1,0-0.3-0.1-0.3-0.3c0,0,0-0.1,0-0.3c0,0,0.1,0,0.3,0s0.3,0,0.4,0
		c0.1-0.1,0.1-0.4,0.1-0.4h0.3c0.1,0,0.1-0.3,0.1-0.3c0-0.1,0.1-0.3,0.1-0.4c0.1-0.1,0.4,0,0.5,0s0.4-0.1,0.5-0.3c0,0,0-0.1,0-0.3
		s0-0.4,0-0.5c0-0.3-0.3-0.7-0.4-1c0-0.1-0.1-0.5-0.3-0.7c-0.1-0.1-0.4-0.3-0.4-0.3l-0.1-0.1v-0.1c0-0.1-0.1-0.3-0.1-0.3l-0.1,0.1
		c-0.1,0-0.3,0-0.4,0c-0.1,0-0.1-0.1-0.1-0.3c0,0,0-0.3-0.1-0.3c0-0.1-0.3-0.3-0.3-0.3c-0.1,0-0.4,0-0.5,0s-0.3-0.1-0.3-0.3
		s0-0.3,0-0.4s-0.1-0.3-0.1-0.3c0-0.1-0.1-0.3-0.3-0.4c0,0-0.1-0.1-0.3-0.1s-0.3,0-0.3,0c-0.1,0-0.1-0.3-0.3-0.4
		c0-0.1,0-0.3-0.1-0.4c0-0.1-0.3-0.1-0.4-0.1s-0.4,0.1-0.5,0.1s-0.1-0.4-0.3-0.5c0-0.1,0-0.3-0.1-0.3c0-0.1-0.1-0.1-0.3-0.3
		s-0.3-0.3-0.4-0.3c-0.1-0.1-0.3-0.3-0.4-0.4c-0.1-0.1-0.1-0.4-0.3-0.5c-0.1-0.1-0.3-0.3-0.4-0.3c-0.1,0-0.3,0-0.4,0s-0.3,0-0.4,0
		c-0.1,0-0.1-0.1-0.3-0.1s-0.3-0.1-0.4-0.1c0,0-0.1-0.1-0.3-0.1c0,0-0.1-0.1-0.1-0.3l-0.1-0.1c-0.1-0.1-0.1-0.3-0.3-0.3
		c0,0-0.1-0.1-0.3-0.1c-0.1,0-0.3,0-0.4,0.1c0,0-0.1,0.1-0.1,0.3c0,0-0.1,0-0.3,0c0,0-0.1-0.1-0.1-0.3c0,0,0-0.3-0.1-0.3
		c0,0-0.1,0-0.3,0l-0.1-0.3c0-0.1-0.1-0.3-0.1-0.4c0,0,0-0.1-0.1-0.3l-0.1-0.1c0,0-0.1-0.1-0.3-0.1s-0.3,0-0.3,0.1l-0.1,0.3
		c0,0.1,0,0.3,0.1,0.4c0,0,0.1,0,0.3,0c0,0,0.1,0.1,0.1,0.3c0,0.1,0,0.3-0.1,0.3c0,0-0.1,0.1-0.3,0.1c-0.1,0-0.3,0-0.3-0.1
		c-0.1-0.1-0.1-0.4-0.1-0.4c0-0.1,0-0.3,0-0.3c0-0.1-0.1-0.3-0.1-0.3c0-0.1-0.1-0.3-0.1-0.4c0,0-0.1-0.1-0.3-0.1
		c-0.1,0-0.3-0.1-0.3-0.3s0-0.3-0.1-0.4c0-0.1-0.1-0.3-0.1-0.3c-0.1-0.1-0.3-0.1-0.3-0.3c-0.1-0.1-0.1-0.3-0.3-0.4
		c-0.1-0.3-0.4-0.8-0.4-1.2c-0.1-0.3-0.3-0.8-0.3-1.1c-0.1-0.3-0.3-1-0.4-1.4c-0.1-0.3-0.3-1-0.4-1.2c0-0.1-0.1-0.5-0.3-0.7
		c-0.1-0.3-0.3-0.7-0.5-0.8c-0.1-0.1-0.4-0.1-0.4-0.3c0,0,0-0.1-0.1-0.1c0-0.1-0.1-0.3-0.1-0.3c-0.1,0-0.3-0.1-0.4-0.1
		s-0.3-0.1-0.4-0.1c0,0-0.1-0.1-0.3-0.1c0-0.1-0.1-0.3-0.1-0.4c-0.1-0.1-0.3-0.3-0.4-0.3c-0.1,0-0.3-0.1-0.4-0.1
		c-0.1,0-0.4-0.1-0.5-0.1s-0.4-0.1-0.5-0.1s-0.3-0.1-0.4-0.3s-0.3-0.4-0.3-0.5c-0.1-0.3-0.1-0.7-0.1-0.8c0-0.3-0.1-1-0.1-1.2
		c0-0.3-0.1-1-0.3-1.2c0-0.3-0.1-0.8-0.1-1.1c-0.1-0.4-0.3-1.1-0.3-1.5c0-0.3-0.1-0.7-0.1-1c0-0.1,0.1-0.3,0-0.4
		c0-0.1-0.1-0.4-0.1-0.4c-0.1-0.1-0.3-0.3-0.4-0.4c-0.1-0.1-0.4-0.3-0.5-0.5c-0.1-0.1-0.1-0.4-0.1-0.7c0-0.1,0-0.4,0-0.5
		s-0.1-0.3-0.1-0.4c-0.1-0.1-0.3-0.4-0.4-0.5c-0.1-0.1-0.4-0.3-0.5-0.3c-0.1-0.1-0.5-0.5-0.8-0.7c-0.1-0.1-0.3-0.3-0.4-0.4
		c-0.1-0.1-0.4-0.1-0.5-0.1s-0.4,0-0.5-0.1c-0.1,0-0.3-0.3-0.4-0.4c-0.1-0.1-0.4-0.5-0.5-0.7c0,0-0.1-0.1-0.1-0.3c0,0,0,0.1-0.1,0.1
		c0,0,0-0.1,0.1-0.1c0,0,0-0.1-0.1-0.1c-0.1-0.1-0.3-0.3-0.3-0.3c0-0.1,0-0.5,0-0.7c0-0.1,0-0.4,0-0.4c0-0.1-0.3-0.4-0.3-0.7
		c0-0.1,0-0.3,0.1-0.3c0,0,0.1,0,0.3,0s0.1,0.1,0.3,0.1c0,0,0.1,0,0.3-0.1c0,0,0.1-0.1,0.1-0.3c0-0.1-0.1-0.3-0.1-0.3
		c-0.1-0.1-0.4-0.1-0.4-0.3c-0.1-0.1-0.4-0.3-0.5-0.4c-0.1-0.1-0.7-0.4-0.8-0.5s-0.4-0.5-0.5-0.7c-0.3-0.4-0.7-1.2-1-1.5
		c-0.3-0.4-0.7-1.1-1-1.5s-0.8-1.4-1.1-1.9c-0.3-0.4-0.8-1.4-1.1-1.9c-0.3-0.4-0.7-1.2-1-1.6c-0.1-0.1-0.3-0.3-0.3-0.4
		c-0.1-0.1-0.3-0.3-0.4-0.4c-0.1-0.1-0.1-0.4-0.1-0.7c0-0.1,0-0.3,0-0.4s0-0.3-0.1-0.3c-0.1-0.1-0.3-0.1-0.4-0.1
		c-0.1-0.1-0.4-0.3-0.4-0.4c-0.3-0.1-0.7-0.5-0.8-0.8s-0.5-0.8-0.7-1c-0.1-0.1-0.3-0.4-0.3-0.5s-0.1-0.3-0.3-0.4c0-0.1,0-0.3,0-0.4
		s0-0.3-0.1-0.4c0-0.1-0.1-0.3-0.1-0.4s-0.1-0.3-0.3-0.3s-0.3-0.1-0.4-0.1c0-0.1,0-0.3,0-0.4s0-0.3,0.1-0.3c0,0,0.1-0.1,0.1-0.3
		s0-0.3,0-0.3c0-0.1,0.3-0.3,0.3-0.1l0.1,0.1c0,0.1,0,0.4,0,0.4c0,0.1,0.3,0.4,0.3,0.5s0.1,0.3,0.1,0.4s0.1,0.3,0.3,0.4
		c0,0.1,0.1,0.3,0.3,0.3c0.1,0.1,0.3,0.3,0.4,0.3c0.1,0.1,0.3,0.3,0.4,0.4c0.1,0.1,0.3,0.5,0.3,0.7c0,0.1,0,0.4,0,0.4
		c0,0.1,0.3,0.1,0.3,0.3c0.1,0.1,0.3,0.3,0.4,0.4c0.1,0.1,0.3,0.3,0.4,0.3c0.1,0.1,0.5,0.5,0.7,0.7c0.1,0.1,0.4,0.5,0.5,0.7
		c0.1,0.1,0.3,0.4,0.3,0.4c0.1,0.1,0.5,0,0.7,0s0.4,0,0.4-0.1c0.1-0.1,0.1-0.4,0.1-0.5s-0.1-0.5-0.1-0.8c0-0.1-0.1-0.4-0.1-0.5
		c0-0.3,0.1-0.8,0.3-1.1c0-0.1,0.3-0.5,0.3-0.8c0-0.1,0-0.5,0-0.8s0.1-0.7,0.1-0.8s0-0.4-0.1-0.5c-0.1-0.3-0.4-0.7-0.5-1
		c-0.1-0.1-0.1-0.5-0.3-0.7c-0.1-0.1-0.3-0.4-0.4-0.7c0-0.1-0.3-0.3-0.3-0.4c-0.1-0.1-0.1-0.4-0.3-0.5c0-0.1-0.1-0.5-0.1-0.7
		c-0.1-0.1-0.3-0.5-0.4-0.7c-0.1-0.1-0.3-0.4-0.4-0.7c0-0.1-0.1-0.4-0.3-0.4s-0.3,0-0.3,0.1c-0.1,0.1-0.4,0.3-0.5,0.4
		s-0.3,0.1-0.4,0.3c-0.3,0.1-0.7,0.3-1,0.3c-0.1,0-0.3,0-0.4,0s-0.1-0.3-0.1-0.4c-0.1,0-0.3,0-0.3,0c-0.1,0-0.3,0.3-0.4,0.3
		s-0.3,0.1-0.4,0.1c-0.1,0-0.4-0.1-0.5-0.1s-0.4-0.3-0.5-0.3l-0.1-0.3c-0.1-0.1-0.4-0.1-0.4-0.1c-0.1-0.1-0.4-0.3-0.5-0.3
		c-0.1-0.1-0.3-0.4-0.4-0.4c-0.1,0-0.3,0.1-0.4,0.1c0,0-0.1,0.1-0.3,0.1c-0.1,0-0.4,0-0.5,0s-0.4,0-0.4,0c-0.1,0-0.4,0-0.5,0
		s-0.3-0.3-0.4-0.1c-0.1,0,0,0.4,0,0.4c0,0.1-0.3,0.1-0.4,0.1c-0.1,0-0.3,0.1-0.3,0.1c-0.1,0-0.3,0.1-0.3,0.1c-0.1,0-0.4,0-0.4-0.1
		v-0.3l0.3-0.1c0.1,0,0.3-0.1,0.3-0.1l0.3-0.1c0-0.1-0.3,0-0.4,0s-0.3,0-0.4,0c-0.1,0-0.3,0.1-0.3,0.3c-0.1,0.1-0.4,0.1-0.5,0.3
		c-0.1,0.1-0.5,0.3-0.7,0.4c-0.3,0.1-0.5,0.4-0.8,0.5s-0.5,0.5-0.8,0.7c-0.1,0.1-0.7,0.4-0.8,0.5c-0.1,0-0.4,0.1-0.5,0.1
		s-0.4-0.3-0.5-0.3c-0.1-0.1-0.4-0.3-0.5-0.3c-0.3-0.1-0.8,0-1.1,0c-0.1,0-0.4,0-0.5,0s-0.4-0.3-0.7-0.4c-0.1,0-0.5,0-0.7-0.1
		c-0.4-0.1-1.4-0.3-1.9-0.4s-1.6-0.4-2.2-0.5c-0.4,0-1.1-0.1-1.5-0.1c-0.1,0-0.3,0-0.4,0s-0.4,0.1-0.5,0.1s-0.4,0-0.5,0
		s-0.4-0.1-0.5-0.1c0,0-0.1-0.1-0.1-0.3v-0.1c0-0.1,0-0.4-0.1-0.4c-0.1-0.1-0.4-0.3-0.5-0.4c-0.1,0-0.4-0.1-0.5-0.1
		c-0.3,0-0.7,0-0.8,0c-0.3,0-1-0.1-1.2-0.1c-0.1,0-0.4,0-0.5,0s-0.4,0-0.5,0s-0.3-0.1-0.4-0.3c-0.1,0-0.5,0-0.7,0s-0.3-0.1-0.4-0.1
		c-0.1,0-0.3-0.1-0.4-0.3l-0.1-0.3l0.1-0.1c0-0.1,0-0.3-0.1-0.4c0-0.1-0.1-0.3-0.1-0.3c-0.1-0.1-0.7,0-0.8,0c-0.3,0-0.5-0.3-0.8-0.4
		c-0.3-0.1-0.8-0.1-1.1-0.1s-0.8,0.1-1.1,0.1s-0.8,0-1.1,0s-0.8,0-1.1,0.1c-0.3,0.1-0.7,0.7-1,0.8c-0.3,0.3-0.8,0.7-1.1,0.8
		s-0.7,0.5-0.8,0.7c-0.1,0.1-0.1,0.4-0.1,0.5s0,0.5,0,0.7c0,0.1,0.3,0.1,0.3,0.3c0.1,0.1,0,0.7,0.1,0.8c0,0.1,0.4,0.4,0.4,0.5
		s0,0.7-0.1,0.8c-0.1,0.1-0.4,0.4-0.5,0.5s-0.4,0.7-0.5,0.8c-0.3,0.3-1,0.5-1.4,0.7c-0.1,0-0.4,0.1-0.5,0.1s-0.5,0-0.7-0.1
		c-0.1-0.1-0.5-0.4-0.7-0.5c-0.1-0.1-0.4-0.4-0.7-0.5c-0.1-0.1-0.7-0.4-0.8-0.4c-0.3-0.1-0.7-0.1-1-0.3c-0.3-0.1-1-0.3-1.2-0.3
		c-0.4-0.1-1.1-0.4-1.5-0.5s-1.4-0.4-1.9-0.5c-0.3-0.1-1-0.3-1.2-0.4c-0.1-0.1-0.4-0.4-0.4-0.5c-0.1-0.1-0.4-0.4-0.5-0.5
		s-0.4-0.4-0.4-0.5s0-0.5,0-0.7c0-0.1-0.1-0.4-0.1-0.5c-0.1-0.1-0.5-0.3-0.8-0.4c-0.1-0.1-0.5-0.1-0.8-0.3c-0.4-0.1-1.4-0.3-1.8-0.4
		c-0.3,0-0.7-0.1-1-0.3c-0.1,0-0.5-0.3-0.7-0.3s-0.4,0-0.4-0.1c-0.1,0-0.3-0.1-0.3-0.1c-0.1,0-0.3-0.1-0.4-0.1c-0.1,0-0.3,0-0.4,0
		c-0.1,0-0.4,0.1-0.4,0.1c-0.1,0-0.4,0.1-0.4,0.1c-0.1,0-0.5,0-0.8,0c-0.1,0-0.4,0-0.5,0c-0.3,0-0.7-0.3-0.8-0.4
		c-0.1-0.1-0.5-0.3-0.7-0.3c-0.1-0.1-0.5-0.3-0.7-0.3s-0.3-0.1-0.4-0.1c-0.1,0-0.3-0.1-0.3-0.1c-0.1,0-0.3,0-0.4,0
		c-0.1,0-0.3,0-0.3-0.1c-0.1-0.1-0.1-0.4-0.1-0.5s-0.1-0.3-0.1-0.3l-0.1-0.1c0,0-0.1,0-0.3,0c0,0-0.1,0.1-0.3,0.1
		c-0.1,0-0.3,0-0.3,0l-0.1-0.1l-0.1-0.1c-0.1,0-0.3,0-0.4,0c-0.1,0-0.3,0-0.3,0c-0.1,0-0.3-0.3-0.3-0.3c-0.1,0-0.3,0-0.3-0.1
		c-0.1-0.1-0.1-0.3-0.1-0.4c0-0.1,0-0.3,0-0.4c0-0.1,0-0.3,0.1-0.4c0,0,0.1,0,0.3,0.1l0.1,0.1h0.1v-0.3c0,0-0.1-0.1-0.1-0.3
		c0-0.1,0.1-0.3,0.1-0.3c0.1-0.1,0.4,0,0.4-0.1c0.1,0,0.1-0.3,0.3-0.4c0.1-0.1,0.7-0.4,1-0.5s0.7-0.7,0.8-1c0.1-0.1,0.4-0.5,0.4-0.8
		c0-0.1,0-0.5,0-0.8c0-0.1-0.1-0.4-0.1-0.4c0-0.1-0.3-0.3-0.3-0.3L128.1,6c0-0.1,0-0.3-0.1-0.4c0,0-0.1-0.1-0.3-0.1
		c-0.1,0-0.3-0.1-0.4-0.1S127,5.3,127,5.1c-0.1-0.1-0.1-0.7,0-0.8c0-0.1,0-0.3,0.1-0.4c0-0.1,0.1-0.4,0.1-0.4
		c0.1-0.1,0.3-0.1,0.4-0.1s0.3,0,0.4,0c0.1,0,0.3-0.3,0.3-0.4c0.1-0.1,0.3-0.3,0.3-0.4c0-0.1,0.1-0.3,0.1-0.4c0-0.1,0-0.3,0-0.4
		s-0.1-0.3-0.3-0.3c-0.2,0-0.3,0-0.3,0c0-0.1,0,0.2-0.1,0.2c-0.1,0.1-0.1,0.3-0.3,0.4c-0.1,0.1-0.3,0.3-0.3,0.3
		c-0.1,0-0.3,0.1-0.4,0.1s-0.3-0.1-0.3-0.1s-0.1-0.1-0.1-0.3c0-0.1,0-0.3,0-0.3s0-0.1-0.1-0.1c0-0.1-0.1-0.3-0.1-0.3
		c0-0.1,0-0.3,0-0.4s-0.3-0.1-0.4-0.1s-0.4,0-0.5,0S125,0.7,125,0.7c-0.1,0-0.4,0-0.5,0s-0.5,0.1-0.7,0.1c-0.1,0.1-0.5,0.3-0.8,0.4
		c-0.1,0.1-0.4,0.3-0.5,0.4c0,0,0,0-0.1,0s-0.3,0.1-0.3,0.1c-0.1,0-0.4,0-0.5,0s-0.4,0-0.5-0.1L121,1.5c-0.1,0-0.3,0.1-0.4,0.3
		c-0.1,0-0.5,0.1-0.7,0.1s-0.4,0.1-0.5,0c-0.1,0-0.3-0.4-0.4-0.5s-0.3-0.3-0.4-0.3s-0.3,0.1-0.3,0.1c-0.1,0-0.3,0.3-0.4,0.3
		s-0.3,0-0.3,0.1c-0.1,0-0.3,0-0.4,0s-0.1-0.1-0.3-0.3c-0.1,0-0.4,0-0.4,0c-0.1,0-0.3-0.3-0.3-0.3c-0.1,0-0.3-0.1-0.4-0.1
		s-0.1,0.1-0.3,0.3c-0.1,0.1-0.1,0.3-0.3,0.3s-0.5,0.2-0.6,0.2s-0.5,0.1-0.8,0.1c-0.1,0-0.5,0.1-0.8,0.3c-0.1,0-0.4,0.3-0.5,0.3
		s-0.4-0.1-0.5-0.1L111.9,2c0-0.1-0.3-0.3-0.3-0.3c-0.1,0-0.4,0-0.5,0c-0.3,0-0.7,0-0.8,0c-0.1,0-0.5-0.3-0.7-0.3
		c-0.3,0-0.7,0.1-0.8,0.1s-0.5,0.2-0.7,0.2s-0.5,0.1-0.8,0.1c-0.1,0-0.4,0-0.5,0s-0.4,0-0.5,0.1c-0.3,0-0.7,0.3-0.8,0.3
		c-0.3,0.1-1,0.1-1.4,0.1c-0.3,0-0.8,0-1.2,0c-0.3,0-0.8,0.1-1.1,0.3c-0.1,0-0.4,0-0.5,0c-0.3,0-0.7,0.1-1,0.1c-0.1,0-0.4,0-0.5,0.1
		c-0.1,0-0.3,0.3-0.4,0.3S99,3.2,98.9,3.2s-0.3,0-0.4,0s-0.4,0.3-0.4,0.4C98,3.7,98,4,97.8,4.1c-0.1,0.1-0.3,0.3-0.4,0.3
		c-0.3,0.1-0.5,0.3-0.6,0.3s-0.1-0.1-0.3-0.3c0,0-0.1-0.1-0.3-0.1c-0.1,0-0.3,0.3-0.4,0.3s-0.2,0.1-0.2,0.1c-0.1,0-0.3,0-0.4,0
		s-0.1-0.1-0.3-0.1S94.5,4.9,94.5,5c-0.1,0.1-0.5,0.5-0.8,0.7c-0.1,0.1-0.3,0.4-0.4,0.5s-0.4,0.1-0.5,0.3c-0.1,0-0.4,0.1-0.5,0.1
		s-0.6,0.1-0.7,0.1s-0.3,0-0.4,0s-0.3-0.1-0.4-0.1s-0.4,0-0.5,0s-0.3,0-0.4,0s-0.3-0.1-0.4-0.1s-0.4-0.2-0.4-0.3
		c-0.1,0-0.3-0.1-0.4-0.1s-0.4,0.1-0.5,0.1c-0.3,0-0.7,0-1,0s-0.7-0.3-1-0.3c-0.1,0-0.4,0.1-0.5,0.1s-0.3,0.1-0.4,0.1
		s-0.3,0.1-0.4,0c-0.1,0-0.4-0.3-0.5-0.4S84,5.4,84,5.3c-0.2-0.1-0.6-0.4-0.9-0.6C83,4.6,82.8,4.2,82.7,4c-0.1-0.1-0.1-0.4-0.3-0.4
		s-0.4,0-0.4,0c-0.1,0-0.4,0.1-0.4,0.1c-0.1,0-0.4,0.1-0.4,0.3c-0.1,0.1-0.1,0.4-0.3,0.4c-0.1,0.3-0.4,0.7-0.5,0.8
		C80.3,5.5,80,5.7,79.9,6s-0.4,0.7-0.5,1c-0.1,0.1-0.4,0.5-0.5,0.7c-0.1,0.1-0.3,0.4-0.4,0.5c-0.1,0.1-0.3,0.5-0.4,0.8
		c-0.1,0.1-0.4,0.5-0.5,0.5c-0.1,0.1-0.4,0.3-0.4,0.3c-0.1,0.1-0.5,0.1-0.7,0.3c-0.1,0-0.4,0.3-0.5,0.3s-0.8,0.1-0.9,0.3
		c-0.3,0.1-0.7,0.3-0.8,0.4c-0.1,0.1-0.5,0.3-0.7,0.3c-0.2,0-0.4,0-0.5,0.1c-0.1,0-0.3,0.1-0.3,0.3c-0.1,0.1-0.4,0.3-0.5,0.4
		c-0.1,0.1-0.3,0.4-0.4,0.5c-0.1,0.1-0.4,0.4-0.5,0.4c-0.1,0.1-0.5,0.3-0.7,0.4c-0.1,0.1-0.3,0.4-0.3,0.4c0,0.1,0,0.4,0,0.5
		s-0.3,0.4-0.3,0.7c-0.1,0.1-0.3,0.3-0.4,0.4c-0.1,0.1-0.4,0.1-0.5,0.3c-0.1,0.1-0.1,0.4-0.3,0.5c-0.1,0.1-0.4,0.4-0.4,0.5
		c0,0-0.4,0.5-0.5,0.8s-0.1,0.8-0.3,1.1c0,0.1-0.3,0.5-0.3,0.7c0,0.1-0.1,0.4-0.1,0.5s0,0.3,0.1,0.4c0,0.1,0.1,0.3,0.1,0.4
		s0.1,0.5,0.1,0.7c0,0.3-0.1,0.7-0.1,1c-0.1,0.1-0.4,0.4-0.5,0.5s-0.4,0.5-0.5,0.8c-0.1,0.1-0.4,0.5-0.7,0.7
		c-0.1,0.1-0.5,0.7-0.7,0.8c-0.3,0.1-0.7,0.5-1,0.5c-0.1,0.1-0.7,0.1-0.8,0.1s-0.5,0.1-0.7,0.3s-0.4,0.4-0.5,0.5s-0.5,0.5-0.8,0.7
		c-0.1,0.1-0.5,0.3-0.7,0.3c-0.4,0.1-1.2,0.3-1.6,0.3c-0.3,0-1,0.3-1.2,0.3c-0.1,0-0.5,0-0.8,0.1c-0.1,0.1-0.4,0.4-0.5,0.5
		c0,0,0,0.1-0.1,0.1c-0.3,0.3-0.8,1-1,1.2c-0.1,0.3-0.4,0.7-0.5,1s-0.4,0.7-0.7,0.8s-0.8,0.4-1.1,0.5c-0.3,0.1-0.8,0.3-1.1,0.5
		c-0.3,0.1-0.7,0.7-0.8,1c-0.1,0.1-0.3,0.5-0.4,0.7c-0.1,0.3-0.3,0.7-0.4,1c-0.1,0.3-0.4,0.8-0.5,1.1s-0.3,0.7-0.4,0.8
		c-0.1,0.3-0.7,0.8-1,1.1c-0.4,0.4-1.1,1.1-1.5,1.5c-0.1,0.1-0.3,0.4-0.4,0.5c0,0.1-0.3,0.1-0.3,0.3C46.2,41,46,41.2,46,41.3
		c0,0.1-0.1,0.4-0.1,0.5c-0.1,0.1-0.4,0.3-0.5,0.4c-0.1,0.1-0.3,0.3-0.3,0.4c-0.1,0.1-0.5,0.5-0.7,0.7c0,0.1,0,0.4,0,0.7
		c0,0.1-0.1,0.4-0.1,0.5S44,44.8,44,44.9c-0.1,0.1-0.3,0.4-0.4,0.5c-0.1,0.1-0.4,0.5-0.7,0.8c-0.1,0.1-0.4,0.3-0.5,0.3
		c-0.1,0.1-0.5,0.5-0.7,0.7s-0.6,1.1-0.6,1.2c0,0.3-0.1,0.7-0.3,1c0,0.1-0.1,0.4-0.1,0.5s0,0.5,0,0.7s-0.3,0.3-0.3,0.4
		c0,0.1,0,0.4,0,0.4h0.3v-0.3c0,0,0.1,0,0.3,0c0,0,0,0,0.1,0c0.1,0.1,0.1,0.4,0.1,0.5s0.1,0.4,0.1,0.7c0,0.1,0.1,0.3,0.1,0.4
		c0,0,0.1,0.1,0.3,0.1c0.2,0,0.3-0.1,0.3-0.1c0.1,0.1,0.1,0.4,0.1,0.5s0.1,0.3,0.3,0.4c0,0.1,0,0.4,0,0.7s-0.1,0.7-0.1,0.8
		s-0.1,0.4-0.3,0.5c0,0.1-0.3,0.4-0.3,0.5c0,0-0.3,0.1-0.3,0.3c0,0-0.3,0.1-0.3,0.3c0,0.1,0,0.3,0,0.3c0,0.1,0.1,0.3,0.1,0.3
		c0,0.1,0.3,0.1,0.3,0.3c0.1,0.1,0.3,0.4,0.3,0.7c0,0.1,0.1,0.5,0.1,0.7c0,0.4-0.1,1.2-0.1,1.5s0,1,0,1.2c0,0.3-0.1,1-0.1,1.2
		c-0.1,0.3-0.4,1-0.5,1.2c-0.1,0.3-0.4,1-0.4,1.2c-0.1,0.3-0.3,0.7-0.4,1c0,0.1-0.1,0.3-0.1,0.4s-0.1,0.3-0.1,0.4
		c-0.1,0.3-0.4,0.5-0.5,0.8c0,0.1,0,0.5,0,0.8c0,0.1,0,0.5-0.1,0.8c-0.1,0.1-0.3,0.5-0.4,0.7c-0.1,0.1-0.4,0.5-0.7,0.8
		c-0.1,0.1-0.5,0.5-0.8,0.7c-0.1,0.1-0.5,0.4-0.7,0.4c-0.1,0.1-0.4,0.1-0.4,0.3c0,0.1,0,0.4,0,0.4c0,0.1,0.3,0.1,0.3,0.3
		c0.1,0.1,0.1,0.3,0.3,0.4c0,0.1,0.3,0.1,0.3,0.3c0,0.1,0.1,0.3,0.1,0.4s0.3,0.3,0.3,0.4c0.1,0.1,0.3,0.1,0.3,0.3
		c0.1,0.1,0,0.7,0,0.8c0,0.1,0.1,0.3,0.1,0.3c0,0.1,0.3,0.3,0.3,0.4v0.3c0,0.1-0.1,0.3-0.1,0.4s-0.1,0.4-0.3,0.4l-0.5,0.2
		c0,0.1,0,0.3,0,0.4s-0.1,0.3-0.1,0.4c0,0,0,0.1,0.1,0.1c0,0.1,0.1,0.1,0.1,0.1c0,0.3-0.1,0.7-0.1,0.8c0,0.3-0.1,0.7-0.1,1
		c0,0,0,0.1,0,0.3c0,0.1,0,0.1,0.1,0.3c0,0.1,0.1,0.4,0.1,0.5s0.3,0.1,0.3,0.3c0.1,0,0.4,0,0.5,0.1c0.1,0,0.3,0.1,0.3,0.1
		s0,0.3,0.1,0.3c0,0.1,0.1,0.4,0.1,0.4l0.3,0.1c0.1,0,0.3-0.1,0.3-0.1c0.1,0,0.4,0.1,0.4,0.3c0,0.1,0,0.3,0,0.4c0,0,0.1,0.1,0.3,0.1
		c0.2,0,0.3,0,0.3,0c0.1,0,0.1-0.1,0.3-0.1l0.1-0.1l0.1-0.3c0,0,0.1-0.1,0.3-0.1c0.2,0,0.3,0,0.4,0c0.1,0,0.3,0,0.4,0
		c0.1,0,0.3,0,0.3,0c0.1,0,0.1-0.1,0.3-0.1c0.2,0,0.3,0,0.4,0c0.1,0,0.3,0.1,0.3,0.1s0,0.1-0.1,0.3l-0.1,0.1c-0.1,0-0.4,0-0.5,0
		c-0.1,0-0.3,0-0.3,0c-0.1,0-0.4-0.1-0.4,0c0,0-0.1,0-0.3,0.1c0,0-0.1,0.1-0.1,0.3v0.1c0,0.1,0.1,0.3,0.1,0.4s0,0.3-0.1,0.3
		c0,0.1-0.1,0.3-0.1,0.3c0,0.1,0,0.3,0,0.4s0.1,0.3,0.3,0.3h0.1c0.1,0,0.3,0,0.3,0.1l0.1,0.1v0.1V86c0,0.1,0,0.3,0,0.4
		c0,0,0,0.1,0.1,0.3h0.3c0.1,0,0.1-0.1,0.3-0.3c0,0,0-0.3,0.1-0.3l0.3-0.1c0.1,0,0.1,0.1,0.1,0.3s-0.1,0.3-0.1,0.4s0.1,0.3,0.3,0.3
		c0.2,0,0.3,0,0.4,0s0.1,0.3,0.1,0.3c0,0.1-0.1,0.3-0.1,0.4c0,0,0,0.1,0,0.3c0,0.1,0.1,0.4,0.1,0.5s0.1,0.3,0.1,0.3
		c0.1,0.1,0.3,0.1,0.4,0.1s0.4,0.1,0.5,0.3c0.1,0,0.4,0.1,0.5,0.3c0.1,0.1,0.3,0.4,0.3,0.5s0,0.3,0,0.4s0.1,0.4,0.1,0.4l0.3,0.1
		l0.3,0.1c0.1,0.1,0.1,0.3,0.1,0.4s0.1,0.3,0.1,0.4c0,0,0.3,0.1,0.3,0.3c0,0,0,0.1,0,0.3v0.3c0,0.1,0,0.4,0,0.5s0.3,0.3,0.3,0.4
		s0,0.5,0,0.7c0,0.1,0,0.3,0,0.4c0,0-0.3,0-0.3,0.1c0,0,0.1,0.1,0.3,0.1c0,0,0.1,0.1,0.1,0.3c0,0.1,0,0.3,0,0.3c0,0.1,0,0.3,0.1,0.3
		c0,0.1,0.3,0.3,0.4,0.3s0.3,0,0.3,0c0.1,0.1,0.1,0.4,0.1,0.5s0,0.4,0,0.5s0.3,0.1,0.4,0.3s0.4,0.3,0.5,0.4s0.4,0.1,0.4,0.3
		c0.1,0.1,0.1,0.4,0.3,0.4c0,0,0,0.1,0.1,0.1c0.1,0.1,0.3,0.1,0.4,0.3c0.1,0,0.3,0.1,0.4,0.3s0.3,0.3,0.4,0.3
		c0.1,0.1,0.4,0.1,0.7,0.3c0.1,0,0.5,0.1,0.7,0.3c0.1,0,0.1,0.1,0.3,0.3l0.1,0.1c0.1,0,0.1,0.3,0.3,0.3c0,0,0.3,0,0.3,0.1
		c0.1,0,0.3,0.1,0.3,0.1c0,0.1,0,0.3,0,0.4c0.1,0.1,0.4,0.1,0.4,0.1c0.1,0,0.3,0.1,0.4,0.3c0.1,0.1,0.1,0.4,0.1,0.5s0.3,0.1,0.3,0.3
		c0.1,0,0.4,0,0.5,0s0.4,0.3,0.5,0.3c0.1,0.1,0.4,0.4,0.5,0.5c0.4,0.3,1.2,1,1.6,1.2c0.4,0.3,1,1,1.4,1.2c0.1,0.1,0.5,0.4,0.8,0.5
		s0.7,0.5,0.8,0.8c0.1,0.1,0.5,0.5,0.7,0.7c0.1,0.1,0.5,0.3,0.8,0.3c0.1,0,0.4,0.1,0.5,0.1s0.4,0.1,0.5,0.1s0.4,0.3,0.4,0.3
		c0.3,0.1,0.7,0.1,0.8,0.3c0.1,0,0.3,0.1,0.4,0.1c0.1,0,0.1,0,0.3,0c0.3,0,0.7,0.1,0.8,0.1c0.3,0,0.8-0.3,1.1-0.4
		c0.4-0.1,1.1-0.3,1.5-0.4s1.4-0.4,1.8-0.4c0.3,0,0.7-0.1,1-0.3c0.4-0.1,1.1-0.4,1.5-0.5s1.4-0.3,1.8-0.4c0.1,0,0.5-0.3,0.7-0.3
		c0.3,0,0.7,0,1,0c0.1,0,0.5,0,0.8,0c0.1,0,0.5,0.1,0.7,0.1s0.4,0.1,0.5,0.1s0.5,0,0.7,0s0.4,0,0.5,0c0,0,0,0,0.1,0s0.3,0.3,0.4,0.3
		c0.3,0.1,0.7,0.3,1,0.3c0.1,0,0.5,0.1,0.8,0.3c0.1,0.1,0.5,0.3,0.7,0.4c0.1,0,0.4,0.1,0.5,0.1s0.4,0,0.5,0s0.4-0.1,0.5-0.3
		c0.1,0,0.3-0.1,0.4-0.3c0.1-0.1,0.1-0.3,0.3-0.4c0.1-0.1,0.5-0.3,0.7-0.3s0.5-0.1,0.7-0.1s0.4-0.3,0.5-0.4c0.1,0,0.3-0.1,0.3-0.1
		c0.1,0,0.3-0.1,0.3-0.1c0.1,0,0.3,0,0.4,0s0.3-0.3,0.4-0.3s0.3,0,0.4,0s0.3-0.1,0.4-0.3l0.1-0.3c0.1-0.1,0.4-0.1,0.5-0.1
		s0.4,0,0.5,0s0.5-0.1,0.7-0.1s0.4,0,0.5,0s0.3-0.1,0.3-0.1c0.1,0,0.4,0,0.4,0c0.1,0,0.3,0.1,0.4,0.3h0.3c0.1,0,0.3-0.1,0.4-0.1
		l0.1-0.3c0-0.1,0.1-0.3,0.1-0.3c0-0.1,0.1-0.1,0.3-0.3c0.1,0,0.4-0.1,0.5-0.1s0.4-0.1,0.5-0.1s0.5-0.1,0.7-0.3
		c0.1,0,0.3-0.1,0.4-0.1s0.3-0.1,0.4-0.1c0.3,0,1,0,1.2-0.1c0.4,0,1.1,0,1.4,0s1-0.1,1.2-0.1c0.3,0,1,0,1.4,0c0.3,0,1,0,1.4,0
		c0.1,0,0.4,0,0.7,0c0.1,0,0.3,0,0.4,0s0.4,0.3,0.5,0.3s0.3,0.1,0.4,0.1s0.4,0.1,0.5,0.1s0.3,0.1,0.4,0.3c0,0.1,0,0.3,0.1,0.3
		c0.1,0.1,0.4,0.3,0.4,0.4c0.1,0.1,0.3,0.4,0.4,0.7c0,0.1,0.1,0.4,0.3,0.5c0,0,0.3,0.1,0.4,0.1s0.3,0.1,0.4,0.1c0,0-0.1,0.1-0.1,0.3
		l0.9,0.3c0,0.1,0,0.3,0,0.4s0,0.3,0.1,0.4c0,0.1,0.1,0.5,0.3,0.7s0.3,0.3,0.4,0.3c0.1,0.1,0.3,0.3,0.3,0.4s0.1,0.4,0.1,0.4
		c0.1,0.1,0.4,0.1,0.4,0.1s0.1,0.1,0.3,0.1s0.1-0.1,0.3-0.1s0.3-0.1,0.4,0c0.1,0,0,0.3,0.1,0.3c0,0.1,0.1,0.3,0.3,0.3
		s0.3-0.1,0.4-0.1s0.1-0.1,0.3-0.1s0.3,0,0.3-0.1c0.1,0,0.3,0,0.4,0s0.3,0.1,0.3,0.1c0.1,0,0.3,0,0.3-0.1l0.1-0.3
		c0.1-0.1,0.3-0.1,0.4-0.3c0.1-0.1,0.1-0.3,0.3-0.4l0.3-0.1c0.1,0,0.3,0,0.4,0.1c0.1,0,0.3,0.1,0.4,0.1s0.3,0.3,0.4,0.3
		s0.4,0.1,0.5,0.1s0.5,0,0.8,0c0.1,0,0.5,0,0.7,0s0.3,0,0.3-0.1c0,0,0.1-0.3,0.1-0.4s-0.1-0.3-0.1-0.3c0-0.1,0.1-0.3,0.1-0.4
		c0,0,0.1-0.1,0.3-0.1c0,0,0.1,0,0.1,0.1c0,0,0,0,0.1,0.1v0.3c0,0,0.1,0.1,0.3,0.1c0,0.1,0,0.4,0,0.4s0.3,0.1,0.4,0
		c0.1,0,0.3-0.1,0.3-0.1c0.1,0,0.3,0,0.3,0c0.1,0,0.3,0.1,0.3,0.3c0,0.1,0.1,0.3,0.1,0.4s0.1,0.4,0.3,0.5c0,0,0.1,0.1,0.3,0.3
		s0.4,0.1,0.5,0.3c0.1,0,0.3,0.1,0.4,0.1s0.3,0,0.3,0s0-0.1,0.1-0.3l0.1-0.1c0.1,0,0.3,0,0.4,0.1c0.1,0,0.1,0.3,0.1,0.4
		s0,0.3-0.1,0.4c0,0.1-0.3,0.1-0.4,0.3c0,0,0,0.1,0,0.3c0,0.1,0.1,0.3,0.3,0.4c0,0.1,0.3,0.3,0.3,0.3c0.1,0.1,0.4,0.3,0.4,0.4
		c0.1,0.1,0.1,0.4,0.1,0.5s-0.1,0.3-0.1,0.3c0,0.1-0.1,0.5-0.1,0.8s-0.1,1-0.3,1.2c0,0.3-0.1,0.7-0.1,1s-0.1,0.7-0.1,1
		c0,0.1-0.1,0.3-0.3,0.4c-0.1,0.1-0.1,0.5-0.3,0.8c0,0.1-0.1,0.4-0.3,0.5c0,0.1-0.3,0.3-0.1,0.4c0,0.1,0.1,0.1,0.1,0.3
		c0.1,0,0.3,0,0.3,0.1c0.1,0.1,0.1,0.3,0.1,0.4l-0.1,0.1c0,0.1,0.1,0.3,0.1,0.4s0,0.3,0,0.4l-0.1,0.3h-0.3c-0.1,0-0.3,0.1-0.3,0.1
		s-0.1,0.1-0.1,0.3c0,0.1,0.1,0.1,0.1,0.3h0.3c0,0,0.1,0.1,0.1,0.3c0,0.1,0.1,0.3,0.1,0.3c0,0.1,0.3,0.1,0.3,0.1s0.1,0,0.3,0
		s0.3,0,0.3,0.1l0.1,0.3c0,0-0.1,0.1-0.3,0.1s-0.3,0-0.3,0c-0.1,0-0.3,0-0.4,0l-0.1-0.1c0,0-0.1-0.1-0.3-0.1l-0.1-0.1
		c-0.1,0-0.3,0-0.3,0.1c-0.1,0.1,0,0.3,0,0.4s0,0.5-0.1,0.7c0,0.3,0,0.7,0,0.8c0,0.1-0.3,0.4-0.3,0.5c-0.1,0.1-0.4,0.4-0.5,0.5
		s-0.3,0.3-0.3,0.4s0,0.4,0.1,0.5c0,0.1,0.1,0.5,0.3,0.7c0.1,0.3,0.3,0.7,0.4,1s0.3,0.8,0.4,1.1c0.1,0.1,0.4,0.5,0.5,0.7
		c0.3,0.3,1,1,1.2,1.4c0.3,0.3,1,1,1.2,1.4c0.1,0.1,0.5,0.5,0.7,0.8c0.3,0.3,0.8,0.8,1.1,1.1c0.1,0.1,0.5,0.5,0.8,0.7
		c0.1,0.1,0.4,0.4,0.4,0.5s0,0.5,0.1,0.7c0.1,0.1,0.5,0.1,0.7,0.1c0.1,0.1,0.4,0.4,0.4,0.5c0.1,0.1,0.3,0.4,0.4,0.5
		c0.1,0.1,0.5,0.5,0.7,0.7s0.3,0.7,0.4,1c0,0.1,0.3,0.4,0.3,0.5c0,0,0,0.1,0.1,0.1l0.1,0.1l0.1,0.3c0.1,0.1,0.1,0.5,0.1,0.7
		c0,0.1,0,0.5,0,0.7c0,0.1,0.1,0.4,0.1,0.5s0.4,0.1,0.4,0.1c0.1,0.1,0,0.5,0.1,0.7c0,0.1,0,0.4,0,0.5s0,0.1,0,0.1
		c0,0.1,0.1,0.4,0.3,0.5c0.1,0.1,0.4,0.5,0.5,0.7c0.1,0.2,0.5,0.5,0.5,0.8c0.1,0.3,0.4,0.8,0.4,1.2c0.1,0.3,0.3,0.8,0.4,1.1
		c0,0.3,0.1,0.7,0.1,1c0,0.1,0.1,0.3,0.1,0.4c0.1,0.1,0.3,0.4,0.4,0.7c0.1,0.3,0.1,0.7,0.1,1c0,0.1,0,0.5,0,0.8
		c0,0.1-0.1,0.4-0.1,0.5c-0.1,0.1-0.3,0.1-0.4,0.3c-0.1,0.1-0.1,0.4-0.1,0.5s0,0.4,0,0.5s0.3,0.5,0.3,0.7c0.1,0.3,0.3,0.8,0.4,1
		c0,0.1,0.1,0.5,0.1,0.8c0,0.1,0.3,0.4,0.4,0.5c0,0.1,0.1,0.4,0.1,0.5c0.1,0.1,0.4,0.3,0.5,0.4c0.1,0.1,0.3,0.3,0.3,0.3
		c0.1,0.1,0.1,0.5,0.1,0.7s0.1,0.4,0,0.5c0,0.1-0.1,0.3-0.1,0.3c0,0.1,0,0.3,0,0.4c0,0.1,0.1,0.5,0.1,0.7c0,0.3-0.1,0.7-0.1,1
		s-0.1,0.7-0.1,1c0,0.1,0,0.5-0.1,0.7c0,0.1-0.1,0.5-0.3,0.7c-0.1,0.1-0.4,0.3-0.5,0.4c-0.1,0.1-0.3,0.4-0.3,0.5s0,0.3-0.1,0.3
		c-0.1,0.1-0.4,0-0.5,0c-0.1,0-0.3,0.1-0.4,0.1c-0.1,0-0.3,0.1-0.3,0.3c0,0.1,0,0.3,0,0.4c0,0.1,0,0.3-0.1,0.4c0,0-0.1,0.1-0.3,0.1
		c-0.1,0.1-0.4,0.3-0.4,0.3c-0.1,0.1-0.3,0.4-0.4,0.7c-0.1,0.1,0,0.5-0.1,0.8c0,0.1-0.1,0.3-0.3,0.3c-0.1,0.3-0.1,0.7-0.1,1
		c-0.1,0.5-0.4,1.5-0.5,2.1c-0.1,0.7-0.5,1.9-0.7,2.6c0,0.3-0.1,0.7-0.3,1c-0.1,0.1-0.4,0.4-0.4,0.5c-0.1,0.3-0.1,0.8-0.1,1.1
		s0.1,0.7,0,1c0,0.1-0.1,0.4-0.1,0.5s-0.1,0.3-0.1,0.4c0,0.1,0.1,0.5,0.1,0.7c0,0.1,0,0.4,0,0.5s0,0.4,0,0.5c0,0.3,0,0.5,0,0.7
		c0,0.3,0,0.8,0,1.1s0.3,1,0.4,1.2c0.1,0.3,0.5,0.7,0.7,1c0.1,0.1,0.1,0.4,0.3,0.5c0.1,0.1,0.4,0.1,0.5,0.1c0.1,0.1,0.3,0.5,0.3,0.7
		c0.1,0.3,0.5,0.7,0.7,1c0.3,0.4,0.5,1.4,0.8,1.8c0.4,0.7,1.2,2.1,1.6,2.7c0.1,0.3,0.5,0.8,0.7,1.1c0.3,0.4,0.7,1.1,0.8,1.4
		c0.1,0.3,0.1,0.7,0.1,1c0.1,0.3,0.4,0.5,0.5,0.7c0.1,0.3,0.5,0.7,0.7,1s0.4,0.7,0.5,1c0,0,0,0,0,0.1c0.1,0.5,0.1,1.4,0.1,1.9
		c0,0.3,0,0.5,0,1c0,0.1,0,0.4,0,0.5c0,0.3-0.1,1-0.1,1.4c0,0.3,0,1,0.1,1.2c0.1,0.4,0.4,1.1,0.5,1.4c0.1,0.1,0.3,0.4,0.3,0.5
		c0.1,0.4,0.1,1.1,0.1,1.5c0,0.3,0,0.8,0,1.1c0,0.1,0.3,0.4,0.3,0.7c0.1,0.1,0.3,0.5,0.3,0.7c0,0.1-0.1,0.5-0.1,0.7
		c0,0.3,0.1,0.7,0.3,1c0,0.3,0.1,0.8,0.1,1.1s0.1,0.8,0.3,1.1c0.1,0.1,0.3,0.5,0.4,0.7c0.3,0.3,0.7,0.8,1,1.1s0.7,0.8,0.8,1.1
		c0.1,0.1,0.4,0.5,0.5,0.7c0.1,0.1,0.4,0.4,0.7,0.5c0.1,0.1,0.4,0.1,0.4,0.3c0.1,0.1,0.1,0.5,0.1,0.7c0.1,0.1,0.3,0.3,0.4,0.4
		c0.1,0.1,0.3,0.5,0.4,0.7c0.1,0.3,0.4,0.8,0.5,1.1c0.1,0.4,0.5,1.4,0.8,1.9s0.8,1.5,1,1.9c0.1,0.4,0.4,1.1,0.5,1.4
		c0.1,0.3,0.4,0.8,0.5,1.2c0.1,0.3,0.4,1,0.5,1.2c0,0.1,0.1,0.5,0.1,0.7c0,0.3,0.1,0.8,0.1,1.1c0,0.1,0,0.5-0.1,0.7
		c0,0.1-0.1,0.1-0.3,0.3c0,0.1-0.1,0.3-0.1,0.3s-0.1-0.1-0.3-0.1c0,0-0.1-0.1-0.3-0.1c0,0-0.1,0-0.3,0s-0.1,0.3-0.1,0.4
		c0,0.1,0,0.3,0.1,0.4c0,0,0.1,0.1,0.1,0.3c0.1,0.1,0.3,0.1,0.4,0.1v0.3l-0.1,0.1c0,0.1,0.1,0.3,0.1,0.4c0.1,0.1,0.3,0.3,0.4,0.3
		c0.1,0.1,0.4,0.3,0.4,0.4c0.1,0.1,0.3,0.4,0.3,0.5s0.1,0.5,0.1,0.7c0,0.1,0.1,0.4,0.1,0.4h0.3c0.1,0,0.3,0.1,0.3,0.3
		s0.1,0.3,0.1,0.4c0,0.1-0.1,0.3-0.1,0.4c0,0.1,0.1,0.3,0.3,0.3s0.3,0,0.4-0.1c0,0,0.1-0.1,0.3-0.1c0.1,0,0.3,0,0.4,0.1
		c0,0,0.1,0.1,0.1,0.3c0,0.1,0,0.3,0,0.3c0,0.1,0.1,0.3,0.3,0.3c0.1,0,0.4,0,0.4,0c0.1,0,0.3,0,0.4,0s0.3,0.3,0.3,0.3
		c0.1,0,0.3,0,0.4,0s0.4-0.1,0.7-0.1c0.1,0,0.3-0.1,0.3-0.1c0.1-0.1,0.1-0.4,0.1-0.4c0.1,0,0.3-0.1,0.4-0.1c0.1,0,0.3,0,0.3,0.1
		c0.1,0,0.3,0.1,0.3,0c0.1,0,0.1-0.3,0.3-0.4c0.1,0,0.4,0,0.5,0s0.4,0,0.4,0s0.1,0.1,0.3,0.1s0.3,0,0.4,0c0.1,0,0.3-0.1,0.3-0.1
		c0.1,0,0.3,0,0.4,0s0.1,0.3,0.1,0.3c0.1,0,0.4,0,0.4-0.1c0.1,0,0.3-0.1,0.3-0.3c0-0.1,0-0.4,0.1-0.4h0.3c0,0,0.1,0,0.3,0
		c0.1,0,0.3-0.1,0.4-0.1c0.1-0.1,0.1-0.3,0.3-0.4c0.1-0.1,0.5,0,0.7-0.1c0.1,0,0.4,0,0.5,0s0.4,0.1,0.5,0.3c0.1,0.1,0.3,0.3,0.3,0.3
		c0.1,0,0.4,0,0.5,0s0.3,0,0.4,0c0.1,0,0.1-0.4,0.1-0.4c0.1-0.1,0.5,0.1,0.7,0.1c0.1,0,0.5,0,0.7,0c0.3,0,0.5,0.3,0.8,0.3
		c0.1,0,0.5,0,0.8,0c0.1,0,0.3,0.1,0.4,0.1s0.3,0.3,0.4,0.3c0.1,0,0.3,0.1,0.4,0c0.1,0,0.3-0.3,0.4-0.4c0-0.1,0.1-0.3,0.1-0.4
		c0.1-0.1,0.4-0.1,0.5-0.1c0,0,0.1,0.1,0.3,0.1s0.4-0.1,0.5-0.1s0.3,0,0.3,0c0.1,0,0.1,0.3,0.1,0.3c0.1,0,0.3-0.1,0.3-0.1
		s0.1-0.1,0-0.3c0-0.1-0.1-0.1-0.1-0.3c0,0,0-0.1,0-0.3l0.1-0.1c0.1,0,0.3,0,0.4-0.1c0.1,0,0.4,0,0.5,0c0.3,0,0.7,0.1,1,0.1
		c0.1,0,0.5,0,0.8,0c0.1,0,0.3-0.1,0.4-0.1c0.1-0.1,0.3-0.3,0.4-0.4c0.1-0.1,0.7-0.5,0.8-0.7c0.5-0.5,1.5-1.5,2.1-2.1
		c0.5-0.5,1.6-1.5,2.2-2.1c0.7-0.7,2.2-2.1,2.9-2.7c0.5-0.5,1.6-1.5,2.2-2.1c0.4-0.4,1.1-1.1,1.5-1.5c0.3-0.3,1-0.8,1.2-1.1
		c0.3-0.3,1-0.8,1.2-1.2c0.1-0.1,0.4-0.5,0.5-0.7c0.1-0.1,0.3-0.3,0.4-0.3c0.1-0.1,0.3-0.3,0.4-0.3s0.3-0.1,0.4-0.1
		c0.1,0,0.5-0.3,0.7-0.3c0.3-0.1,0.5-0.5,0.7-0.7s0.3-0.4,0.4-0.5c0.1-0.1,0.3-0.4,0.4-0.5c0-0.1,0.1-0.5,0.1-0.7
		c0.1-0.3,0.3-0.7,0.4-1c0.1-0.3,0.1-0.7,0.3-1s0.1-1,0.3-1.4c0-0.1,0.3-0.4,0.3-0.7c0-0.1,0-0.4,0.1-0.5c0,0,0,0,0-0.1
		s0.3-0.3,0.3-0.4c0-0.1,0-0.4,0-0.5s0.3-0.4,0.3-0.5s0-0.3,0-0.4c0-0.1,0-0.3,0-0.3l-0.1,0.1c0,0.1,0,0.3,0,0.4
		c0,0.1-0.3,0.1-0.4,0.1s-0.3-0.1-0.4-0.3c0-0.1-0.1-0.3-0.1-0.4c0-0.1,0-0.4,0-0.4c0-0.1,0.1-0.4,0.1-0.4c0.1-0.1,0.4-0.1,0.4-0.3
		c0.1-0.1,0.1-0.4,0.3-0.4c0.1-0.1,0.4-0.4,0.5-0.4c0.1-0.1,0.5-0.1,0.7-0.1c0.3-0.1,0.8-0.3,1.1-0.3c0.3-0.1,0.8-0.3,1.1-0.4
		c0.3-0.1,1-0.4,1.2-0.5c0.4-0.1,1.1-0.4,1.5-0.5c0.1,0,0.7-0.1,0.8-0.3c0.1,0,0.3-0.1,0.4-0.3c0.1-0.1,0.3-0.4,0.3-0.5
		c0.1-0.1,0.4-0.4,0.5-0.5s0.4-0.3,0.5-0.4c0.1-0.1,0.1-0.4,0.3-0.5c0-0.1,0.1-0.3,0.1-0.4c0,0-0.1-0.1-0.1-0.3c0,0-0.1,0-0.3,0.1
		c0,0-0.1,0.1-0.1,0.3s0,0.3,0,0.4l-0.1,0.1c0,0-0.1,0.1-0.3,0v-0.3c0-0.1,0-0.3,0-0.4c0-0.1,0-0.3,0-0.4c0-0.1,0.1-0.4,0.1-0.4
		c0.1-0.1,0.3-0.5,0.3-0.7c0.1-0.3,0.3-0.8,0.3-1.1c0.1-0.4,0.4-1.4,0.5-1.8c0-0.1,0.1-0.5,0.1-0.8c0-0.1,0-0.3,0-0.4
		c0-0.1,0-0.3-0.1-0.3c0,0-0.1,0-0.3,0l-0.1,0.1c-0.1,0-0.1-0.3-0.1-0.3c0-0.1,0-0.3,0-0.4c0-0.1-0.1-0.5-0.1-0.8s-0.1-0.8-0.1-1.1
		s-0.1-1-0.1-1.2c0-0.1-0.1-0.5-0.1-0.7c0-0.1-0.1-0.3-0.1-0.3c0-0.1-0.3-0.3-0.3-0.3c-0.1,0-0.3-0.1-0.4-0.3c0,0-0.1-0.1-0.1-0.3
		s0-0.3,0-0.4c0-0.1,0.1-0.3,0.3-0.4c0-0.1,0-0.4,0-0.5s0-0.3,0-0.4c0-0.1,0.3-0.3,0.4-0.3c0.1-0.1,0.3-0.1,0.4-0.3
		c0.1,0,0.3-0.1,0.4-0.1c0.1-0.1,0.4-0.3,0.4-0.4c0.1-0.1,0.5-0.4,0.7-0.5s0.5-0.7,0.7-0.8c0.1-0.1,0.4-0.4,0.5-0.5
		c0.1,0,0.3-0.1,0.3-0.1c0.1,0,0.3,0,0.3,0c0.1,0,0.1-0.3,0.1-0.3c0-0.1,0.1-0.3,0.1-0.3l0.1-0.1c0-0.1,0-0.3,0-0.3s0.1-0.1,0.3,0
		c0,0,0,0.1,0,0.3c0,0.1,0,0.3,0,0.3s0.1,0.1,0.1,0.3c0.1,0,0.3,0,0.3-0.1c0.1,0,0.3-0.1,0.3-0.3s0.1-0.3,0.1-0.4l0.3-0.1
		c0.1-0.1,0.3-0.4,0.4-0.5c0-0.1,0.1-0.3,0.1-0.3v-0.1c0,0-0.1,0-0.1-0.1l-0.1-0.1c0,0,0.1-0.1,0.3-0.1h0.1c0,0,0.1,0.1,0.3,0.1
		s0.3,0,0.3,0c0.1-0.1,0.1-0.3,0.1-0.4c0-0.1,0.1-0.3,0.1-0.4c0.1-0.1,0.7-0.3,0.8-0.4c0.4-0.1,1.1-0.7,1.5-0.8
		c0.3-0.1,0.8-0.4,1.1-0.5s0.7-0.3,1-0.4c0.1,0,0.4-0.3,0.5-0.3s0.4,0,0.5,0s0.5-0.1,0.7-0.1c0.1,0,0.4-0.1,0.5-0.3
		c0.1,0,0.3-0.1,0.3-0.3c0.1-0.1,0.1-0.3,0.3-0.4c0-0.1,0.1-0.3,0.3-0.3c0.1-0.1,0.4-0.1,0.5-0.1s0.4-0.1,0.5-0.3
		c0.1,0,0.3-0.3,0.4-0.3c0,0,0.1-0.1,0.3-0.1l0.1-0.3c0,0,0-0.1,0-0.3h-0.1c0,0-0.1-0.1-0.1-0.3c0-0.1,0.1-0.1,0.3-0.3
		c0.1,0,0.3,0.1,0.4,0.1s0.3,0,0.3,0c0.1,0,0.1-0.3,0.3-0.3c0.1-0.1,0.3-0.3,0.3-0.4c0.1-0.1,0.1-0.4,0.3-0.5s0.3-0.3,0.4-0.4
		c0.1-0.1,0.3-0.3,0.4-0.3c0.1-0.1,0.3-0.1,0.4-0.3c0-0.1,0-0.3,0-0.4c0-0.1,0.1-0.1,0.1-0.3c0-0.1,0-0.3-0.1-0.3h-0.1
		c-0.1,0-0.1-0.1-0.1-0.3c0-0.1,0-0.3,0.1-0.3c0-0.1,0.3-0.1,0.3-0.1c0.1,0,0.3-0.1,0.3-0.3c0.1-0.1,0.1-0.3,0.3-0.4
		c0-0.1,0.1-0.3,0.1-0.3c0-0.1,0.1-0.3,0.1-0.4c0-0.1,0-0.3,0-0.4c0,0-0.1,0-0.3,0c0,0-0.1,0-0.3-0.1l-0.1-0.1v-0.8h0.1
		c0,0,0-0.1,0.1-0.3v-0.3l-0.1-0.1l-0.1,0.1c0,0-0.1,0-0.3,0l-0.1-0.3c0-0.1,0.1-0.3,0.1-0.3c0-0.1,0.1-0.4,0.1-0.5
		c0-0.3,0.1-0.7,0.1-1s0-1,0-1.2c0-0.1,0-0.4,0-0.5s-0.3-0.3-0.3-0.3c0-0.1,0-0.4,0-0.4c0-0.1,0.3-0.3,0.3-0.4c0-0.1,0-0.5,0-0.7
		c0-0.1,0-0.5,0-0.8s-0.1-0.8-0.1-1.1c0-0.1,0-0.5,0-0.8c0-0.1,0.3-0.5,0.4-0.7s0.3-0.4,0.4-0.5s0.1-0.5,0.3-0.7
		c0-0.1,0.3-0.4,0.3-0.4c0-0.1,0-0.5,0-0.8c0-0.1,0-0.4-0.1-0.5c0,0,0-0.1-0.1-0.3c0,0,0,0-0.1,0l-0.1-0.3c0,0-0.1-0.1-0.3-0.3
		c0,0-0.1-0.1-0.3-0.1s-0.3,0-0.3,0s-0.3,0-0.3-0.1c0,0,0-0.3-0.1-0.3c0-0.1-0.1-0.3-0.3-0.4c0,0-0.1,0-0.3,0s-0.1-0.3-0.1-0.3
		c0-0.1,0-0.3,0-0.3c0-0.1-0.1-0.3-0.3-0.4c0-0.1,0.1-0.3,0.1-0.3c0-0.1,0-0.3-0.1-0.3c0,0-0.1-0.1-0.3-0.1c0-0.1-0.1-0.3-0.1-0.4
		c0,0,0-0.1,0.1-0.3c0-0.1,0-0.3,0-0.3c0-0.1-0.3-0.3-0.3-0.4c0-0.1-0.1-0.3-0.1-0.3c-0.1-0.1-0.3-0.3-0.3-0.4c0-0.1-0.1-0.3,0-0.3
		c0-0.1,0.1-0.1,0.3-0.3v-0.1l-0.1-0.1c0-0.1,0-0.3,0-0.3c0-0.1-0.1-0.3-0.1-0.3c0-0.1-0.1-0.3-0.1-0.4c0-0.1,0-0.3,0-0.3
		c0-0.1,0.1-0.3,0.1-0.3h0.3l0.1-0.3c0-0.1,0-0.4,0-0.4c0-0.1-0.1-0.5-0.3-0.7l-0.1-0.1c0-0.1,0-0.4,0-0.5s0.1-0.5,0.1-0.5
		c0.1-0.1,0.4-0.3,0.5-0.3c0.1-0.1,0.3-0.4,0.3-0.5s-0.1-0.4-0.1-0.5c-0.1-0.1-0.4-0.3-0.5-0.4c-0.1-0.1-0.3-0.4-0.4-0.5
		c-0.1-0.1-0.4-0.3-0.5-0.3c-0.1-0.1-0.3-0.3-0.4-0.4c-0.1-0.1-0.1-0.5-0.1-0.8s0.1-0.7,0.1-0.8s0.1-0.4,0.3-0.5
		c0.1-0.3,0.3-0.7,0.3-1c0-0.1,0.1-0.5,0.3-0.7c0-0.1,0.1-0.3,0.1-0.3c0-0.1,0-0.4,0-0.5s0.1-0.1,0.1-0.3c0-0.1,0.1-0.4,0.1-0.5
		s0.1-0.4,0.1-0.4s0,0,0.1-0.1l0.1-0.1c0.1,0,0.3-0.1,0.4-0.1c0.1-0.1,0.3-0.3,0.4-0.4c0.1-0.1,0.3-0.5,0.3-0.7
		c0.1-0.1,0.1-0.5,0.3-0.8s0.3-0.5,0.4-0.8c0.1-0.3,0.4-0.5,0.4-0.8c0.1-0.3,0.4-1,0.5-1.2c0.1-0.3,0.4-0.5,0.4-0.8
		c0.1-0.1,0.1-0.5,0.3-0.8c0-0.1,0.3-0.4,0.3-0.4c0.1-0.1,0.4-0.3,0.5-0.3c0.1-0.1,0.5-0.1,0.5-0.1c0.1-0.1,0.3-0.3,0.3-0.4
		c0-0.1,0-0.4,0-0.5s0.1-0.4,0.3-0.4c0.1-0.1,0.4-0.1,0.5-0.1s0.3-0.1,0.4-0.1s0.3-0.1,0.4-0.3c0.1-0.1,0.3-0.4,0.4-0.5
		c0.1-0.1,0.1-0.3,0.3-0.4c0.1-0.1,0.3-0.3,0.3-0.4c0.3-0.4,0.8-1.1,1.1-1.5c0.3-0.3,1-1,1.1-1.4c0.1-0.1,0.3-0.4,0.3-0.5
		s0.1-0.4,0.1-0.4c0-0.1,0.1-0.1,0.3-0.3c0-0.1,0-0.4,0-0.4c0-0.1,0.3-0.1,0.4-0.1c0.1,0,0.3,0,0.4,0c0.1,0,0.3-0.3,0.4-0.4
		c0.3-0.3,0.7-0.5,1-0.8c0.4-0.4,1.2-1.2,1.6-1.6c0.4-0.4,1.4-1.4,1.8-1.8c0.3-0.3,0.8-0.8,1.1-1.1c0.3-0.3,0.7-0.7,1-0.8
		c0.1-0.1,0.5-0.4,0.7-0.4c0.1,0,0.3-0.1,0.4-0.1s0.3,0,0.4-0.1c0.1,0,0.3-0.1,0.4-0.1c0.1-0.1,0.3-0.3,0.3-0.4
		c0.1-0.1,0.5-0.4,0.7-0.5c0.1-0.1,0.3-0.4,0.4-0.4c0.1-0.1,0.5-0.4,0.7-0.5c0.1-0.1,0.3-0.4,0.4-0.5c0.1-0.1,0.1-0.3,0.3-0.4
		c0-0.1,0.1-0.3,0.1-0.4c0.1-0.1,0.3-0.3,0.4-0.4c0.1-0.1,0.4-0.4,0.4-0.5c0.3-0.3,0.7-0.5,1-0.8c0.3-0.1,0.5-0.5,0.8-0.8
		s0.8-1,1.1-1.2c0.1-0.1,0.4-0.7,0.5-0.8c0.1-0.3,0.4-0.7,0.5-1s0.4-0.8,0.5-1.1c0.1-0.1,0.4-0.5,0.5-0.7c0.1-0.1,0.4-0.5,0.5-0.7
		c0.1-0.1,0.4-0.5,0.5-0.7c0.1-0.1,0.4-0.4,0.5-0.5s0.3-0.3,0.3-0.4s0.1-0.4,0.1-0.4c0-0.1,0.1-0.4,0.1-0.7c0-0.1,0.1-0.5,0.3-0.8
		c0.1-0.4,0.4-1.2,0.5-1.6c0.1-0.3,0.3-0.8,0.4-1.1c0.1-0.3,0.3-0.8,0.4-1.1c0.1-0.3,0.3-0.8,0.3-1.1c0.1-0.3,0.3-0.8,0.4-1
		c0-0.1,0.1-0.4,0.3-0.5c0.1-0.1,0.4-0.3,0.4-0.4c0.1-0.1,0.1-0.5,0.3-0.7c0.1-0.3,0.3-0.7,0.4-1c0.1-0.3,0.4-0.7,0.5-0.8
		c0.1-0.3,0.4-0.8,0.4-1.2c0.1-0.4,0.1-1.1,0.1-1.4s0-0.8,0-1.1c0-0.3,0.1-0.7,0.1-0.8s0.3-0.4,0.3-0.5c0.1-0.1,0.3-0.4,0.3-0.5
		c0-0.3,0-0.7-0.1-1c2.2-1.8,2.1-2.1,2.1-2.2C258.5,84.8,258.5,84.5,258.4,84.4z M141.4,79.9c0,0-0.1,0-0.1,0.1v0.3
		c0,0.1-0.1,0.3-0.1,0.4c0,0-0.1,0-0.3,0.1l-0.1,0.1c-0.1,0-0.3,0.1-0.3,0.1c-0.1,0-0.3,0-0.4,0c-0.1,0-0.3,0.1-0.3,0.1
		c-0.1,0-0.4,0-0.5,0c0,0-0.3,0.1-0.3,0.3c0,0-0.1,0.1-0.1,0.3c0,0-0.1,0.1-0.1,0.3c0,0-0.1,0.3-0.3,0.3c0,0,0,0-0.1,0
		c0,0-0.1,0-0.1-0.1c-0.1,0-0.3-0.3-0.3-0.3s-0.1-0.1-0.3-0.3c-0.1-0.1-0.3-0.4-0.4-0.5c0-0.1,0-0.5-0.1-0.7c0-0.1-0.3-0.4-0.4-0.4
		c-0.1-0.1-0.4-0.1-0.5-0.3c-0.1,0-0.3-0.1-0.3-0.1c-0.1-0.1-0.1-0.4-0.1-0.5s-0.3-0.4-0.3-0.5s0-0.4-0.1-0.4l-0.1-0.1
		c-0.1-0.1-0.3-0.3-0.3-0.4l-0.1-0.3c0-0.1,0.1-0.4,0.1-0.5s0.3-0.1,0.3-0.3c0,0,0.1-0.1,0.3-0.3c0.1-0.1,0.3-0.1,0.4-0.1
		c0.1,0,0.3,0,0.4,0c0.1,0,0.3,0.1,0.3,0.3c0.1,0.1,0.4,0.1,0.5,0.3c0.1,0,0.3,0.3,0.4,0.3c0.1,0.1,0.3,0.3,0.4,0.4
		c0,0.1,0.1,0.3,0.1,0.4s0,0.4,0,0.4c0,0.1,0,0.3,0.1,0.4c0.1,0.1,0.4,0.1,0.5,0.1c0.1,0,0.3,0,0.4,0c0.1,0,0.5-0.1,0.7,0
		c0.1,0,0.5,0.1,0.7,0.3c0.1,0,0.4,0,0.4,0c0.1,0,0.3,0,0.3,0c0.1,0,0.1,0.3,0.1,0.3s0.1,0.1,0.1,0.3
		C141.4,79.6,141.4,79.7,141.4,79.9z M206.1,85.4c0,0.1,0,0.1,0,0.2C206,85.6,206.1,85.5,206.1,85.4z M205.9,101.2
		c-0.1-0.3-0.3-0.5-0.3-0.5l-0.1-0.1c0,0,0,0,0.1,0.1C205.8,100.8,205.9,100.9,205.9,101.2z M205.6,86.7c-0.1,0-0.4,0-0.5,0
		C205.2,86.6,205.5,86.7,205.6,86.7z M205.1,100.2c-0.1-0.1-0.1-0.1-0.2-0.2C205,100.1,205.1,100.2,205.1,100.2z M204.5,46.4
		l-0.1,0.1C204.4,46.4,204.5,46.4,204.5,46.4z M204.7,100c-0.1,0-0.3-0.1-0.4-0.3C204.4,99.8,204.5,100,204.7,100z M203.9,99.3
		c0,0-0.1-0.1-0.1-0.3C203.7,99.1,203.9,99.3,203.9,99.3z M203.6,46.8c-0.1,0-0.3-0.1-0.4,0C203.3,46.6,203.6,46.6,203.6,46.8z
		 M202.5,97.5c-0.1,0-0.1,0-0.1-0.1L202.5,97.5z M202.6,95c0.1,0,0.3-0.1,0.4-0.1C202.9,95,202.8,95,202.6,95z M203,97.9
		c-0.1,0-0.3-0.1-0.4-0.3C202.8,97.8,202.9,97.9,203,97.9z M188,129.2c0,0,0,0,0,0.1l-0.1,0.1l-0.1,0.5l-0.4,0.5l-0.4,0.4h-0.1
		c-0.1,0-0.1-0.1-0.1-0.3c0-0.1,0-0.3,0-0.4c0-0.1-0.1-0.4,0-0.5c0-0.1,0.1-0.3,0.1-0.3c0-0.1,0.1-0.3,0.1-0.4
		c0-0.1,0.1-0.3,0.1-0.3c0-0.1,0-0.3,0-0.4c0,0,0.1-0.1,0.3-0.1c0.3,0.3,0.4,0.3,0.4,0.3c0.1,0,0.3,0.1,0.3,0.1
		c0,0.1-0.1,0.3-0.1,0.3C187.9,129.1,188,129.1,188,129.2z M187,108.2l0.1,0.1C187.2,108.3,187,108.3,187,108.2z M179,182
		c0-0.1,0.1-0.3,0.1-0.3c0-0.1,0.3-0.1,0.3-0.3c0.1-0.1,0.1-0.3,0.3-0.4l0.3-0.1c0-0.1,0-0.3,0-0.3c0-0.1,0.1-0.3,0.1-0.3
		c0.1-0.1,0.3-0.1,0.4-0.3c0.1-0.1,0.3-0.3,0.3-0.4c0-0.1,0-0.3,0-0.3c0-0.1,0.1-0.3,0.3-0.4c0.1-0.1,0.4-0.1,0.4-0.3l0.1-0.3h0.1
		c0.1,0,0.3,0,0.4,0c0,0,0.1,0,0.3-0.1c0,0,0-0.3,0.1-0.3c0-0.1,0.3-0.1,0.3-0.3c0.1,0,0.3-0.1,0.3-0.1c0.1,0,0.4,0,0.5,0
		s0.3,0,0.4,0c0,0,0.1,0.1,0.3,0.1c0,0,0.1,0,0.3,0h0.1c0,0,0.1,0.1,0.3,0.1c0,0,0.1,0.1,0.3,0.1l0.1,0.1c0,0,0,0.1,0,0.3
		c0,0,0,0.1-0.1,0.1c0,0-0.1,0-0.3,0c0,0-0.1,0-0.1,0.1l-0.1,0.1h-0.1c0,0,0-0.1-0.1-0.1s-0.3,0-0.4,0l-0.1,0.1c-0.1,0-0.3,0-0.3,0
		c-0.1,0-0.3-0.1-0.3,0c0,0-0.1,0.1-0.1,0.3c-0.1,0-0.3,0-0.3,0s0,0.3-0.1,0.3c0,0,0,0.1-0.1,0.3h-0.3c0,0-0.1,0-0.3,0l-0.1,0.1
		l-0.1,0.3l-0.1,0.1c0,0-0.1,0-0.3,0.1c0,0-0.1,0.1-0.3,0.3c0,0,0,0.1,0,0.3l-0.1,0.1c0,0-0.1,0-0.1,0.1l-0.1,0.3c0,0-0.1,0-0.3,0.1
		c0,0-0.1,0.1-0.1,0.3c0,0-0.1,0.1-0.1,0.3c-0.1,0.1-0.3,0.3-0.4,0.3l-0.3,0.1c-0.3-0.3-0.4-0.3-0.5-0.3
		C179,182.3,179,182.1,179,182z M178.7,101.7c0,0-0.1-0.1-0.1-0.3C178.6,101.6,178.7,101.6,178.7,101.7c0.1,0.1,0.3,0.3,0.3,0.4
		C179,102,178.8,101.9,178.7,101.7z M179.4,103c0.1,0,0.3,0,0.3,0.1C179.5,103.1,179.4,103.1,179.4,103z M182.8,106.5
		c0.1,0.1,0.1,0.1,0.3,0.3c0.1,0.1,0.3,0.1,0.4,0.3c0.1,0,0.1,0.1,0.3,0.3c-0.1-0.1-0.3-0.1-0.3-0.3c-0.1,0-0.3-0.1-0.4-0.3
		C182.9,106.7,182.8,106.7,182.8,106.5z M183.9,107.6c0,0.1,0.1,0.1,0.1,0.3C183.9,107.9,183.9,107.8,183.9,107.6z M184.2,108.2
		c0.1,0.1,0.3,0.1,0.3,0.1C184.4,108.4,184.3,108.3,184.2,108.2z M185.3,108.8c0.1-0.1,0.3-0.1,0.3,0
		C185.5,108.8,185.4,108.8,185.3,108.8z M178.4,101.2c0-0.3-0.1-0.4-0.1-0.5C178.4,100.8,178.4,100.9,178.4,101.2z M177.1,99.7
		c-0.1-0.1-0.3-0.3-0.3-0.3C176.9,99.4,176.9,99.6,177.1,99.7z M200.8,94.9c0.1,0,0.1-0.1,0.3-0.1C201.1,94.9,201,94.9,200.8,94.9z
		 M200.3,97.1c0.1,0,0.3-0.1,0.4,0C200.6,97.1,200.4,97.2,200.3,97.1c-0.1,0-0.3-0.1-0.3-0.3C200,97,200.2,97.1,200.3,97.1z
		 M198.9,50.5c-0.1,0-0.3-0.1-0.3-0.3C198.8,50.3,198.9,50.5,198.9,50.5z M198.4,49.9c-0.1,0-0.3-0.1-0.3-0.1L198.4,49.9z
		 M175.1,98.5c-0.1,0-0.3-0.1-0.3-0.1C175,98.3,175.1,98.5,175.1,98.5z M174.3,96.4c-0.1,0-0.1,0-0.1-0.1L174.3,96.4z M173.9,96.3
		l-0.1-0.1C173.8,96.1,173.9,96.1,173.9,96.3z M173.4,95.9c0,0-0.1,0-0.1-0.1L173.4,95.9z M169.4,94.4c0,0,0-0.1-0.1-0.1
		C169.4,94.2,169.4,94.2,169.4,94.4z M168.8,89.8c0,0.1,0.1,0.1,0.1,0.3C169,90.1,168.8,90,168.8,89.8z M169,93.9l-0.1-0.1
		C168.8,93.8,169,93.8,169,93.9z M171.6,95.5c0,0-0.3,0-0.3-0.1C171.3,95.3,171.6,95.3,171.6,95.5z M166.8,71.2
		c0,0.1-0.1,0.3-0.1,0.4C166.7,71.5,166.8,71.2,166.8,71.2z M166.5,86.6c0-0.1,0.1-0.1,0.1-0.1L166.5,86.6z M166.7,86.2
		c0-0.2-0.1-0.5-0.2-0.6C166.6,85.7,166.7,86,166.7,86.2z M166.5,72.9c0-0.3,0.1-0.4,0.1-0.5C166.7,72.5,166.7,72.8,166.5,72.9
		c0,0.1-0.1,0.3-0.3,0.4C166.3,73.2,166.4,73,166.5,72.9z M165.2,82.6c-0.1,0-0.1-0.1-0.1-0.3C165,82.5,165,82.5,165.2,82.6z
		 M164.7,76c0.1,0.3,0.1,0.5,0,0.7C164.9,76.6,164.9,76.3,164.7,76z M163.9,79.3c0,0,0,0.1-0.1,0.1
		C163.8,79.5,163.8,79.3,163.9,79.3z M174.6,205c0,0-0.4,0.4-0.5,0.5c0,0.1-0.1,0.3-0.1,0.4c0,0.1,0,0.4-0.1,0.5
		c0,0.1-0.1,0.3-0.3,0.4c-0.1,0.1-0.4,0.3-0.5,0.4c-0.1,0.1-0.4,0.1-0.5,0.3c-0.3,0.1-0.7,0.1-1,0.3c-0.3,0-0.8,0.1-1,0.1
		c-0.1,0-0.4,0-0.5,0s-0.4-0.3-0.5-0.3c-0.1-0.1-0.5-0.4-0.7-0.4c-0.1-0.1-0.5-0.3-0.7-0.3c-0.1,0-0.4-0.1-0.5-0.1s-0.4,0-0.5,0
		s-0.4,0.1-0.5,0.3c-0.1,0.1-0.4,0.4-0.5,0.5s-0.4,0.4-0.5,0.5s-0.3,0.3-0.4,0.4c0,0.1-0.1,0.3-0.3,0.4c-0.1,0.1-0.3,0.3-0.3,0.4
		c-0.1,0.1-0.3,0.3-0.4,0.4c-0.1,0-0.3,0.1-0.3,0.1c-0.1,0.1-0.4,0.1-0.4,0.3c-0.1,0.1-0.1,0.4-0.1,0.4c0,0.1-0.3,0.3-0.4,0.4
		c-0.1,0.1-0.4,0.1-0.7,0.1c-0.1,0-0.4,0-0.7,0.1c-0.1,0-0.4,0.3-0.5,0.3s-0.5-0.1-0.8-0.1c-0.1,0-0.5-0.1-0.8-0.1
		c-0.1,0-0.4,0-0.5,0s-0.4,0-0.4-0.1c-0.1-0.1-0.1-0.4-0.1-0.4c0-0.1,0-0.4,0-0.5s0.3-0.4,0.3-0.5s0.1-0.3,0.3-0.4
		c0-0.3,0-0.8,0-1.1c0-0.1,0-0.5,0-0.7c-0.1-0.3-0.4-0.5-0.5-0.7c-0.1-0.3-0.5-0.5-0.7-0.8c-0.1-0.1-0.4-0.5-0.7-0.7
		c-0.1-0.1-0.3-0.3-0.4-0.4c-0.1,0-0.3-0.1-0.4-0.3l0.3-8.9h3.3l0.3-11.8l7.4-0.8c0,0,0.3,0.1,0.4,0.1s0.3,0.1,0.3,0.3
		c0,0.1,0.1,0.3,0.1,0.3c0,0.1,0,0.3,0,0.4c0,0.1,0,0.3,0,0.3v0.1c0,0,0.1,0,0.3,0s0.4-0.3,0.4-0.3c0.1-0.1,0.3-0.4,0.4-0.4
		c0.1-0.1,0.3-0.1,0.4-0.3c0.1-0.1,0.3-0.5,0.5-0.5c0.1,0,0.4,0,0.5,0s0.5-0.1,0.7-0.1s0.3-0.1,0.4-0.3c0,0,0.1-0.1,0.1-0.3
		c0,0,0.1-0.1,0.3-0.1s0.3-0.1,0.3-0.1c0.1,0,0.3-0.1,0.4-0.1h0.1c0.1,0.1,0.3,0.1,0.3,0.3c0,0.1,0,0.3,0,0.3c0,0.1,0.1,0.4,0.3,0.5
		c0.1,0.1,0.3,0.5,0.4,0.7c0.1,0.1,0.4,0.5,0.5,0.7c0.1,0.1,0.3,0.3,0.3,0.3c0.1,0.1,0.1,0.5,0.1,0.7c0,0.1,0,0.3,0.1,0.3
		c0,0.1,0.3,0.3,0.4,0.3c0.1,0.1,0.4,0.5,0.5,0.7c0.1,0.3,0.5,0.7,0.7,1c0.1,0.1,0.4,0.5,0.5,0.8c0,0.1,0.1,0.4,0.1,0.4
		c0.1,0.1,0.3,0.1,0.4,0.3c0.1,0,0.3,0.1,0.4,0.1s0.3,0,0.4,0.1c0.1,0,0.3,0.1,0.3,0.3c0.1,0,0.3,0.1,0.3,0.3
		c0.1,0.1,0.1,0.4,0.3,0.4c0,0.1,0.1,0.3,0.3,0.3c0.1,0.1,0.4,0.1,0.4,0.1c0.1,0,0.3,0.1,0.4,0.3c0.1,0.1,0.4,0.3,0.4,0.4
		c0.1,0.1,0.1,0.5,0.1,0.7s0,0.5,0,0.7c0,0.1,0,0.5,0.1,0.8c0,0.1,0.1,0.4,0.1,0.5c0.1,0.1,0.3,0.4,0.4,0.5c0.1,0.1,0.3,0.4,0.4,0.5
		c0.1,0,0.3,0.1,0.4,0.1c0.1,0,0.4,0,0.5,0s0.4,0,0.7,0c0.1,0,0.3,0.1,0.4,0.1s0.4,0.1,0.4,0.3c0.1,0.1,0.5,0.3,0.8,0.4
		c0.3-0.1,0.4,0,0.4,0.1L174.6,205z M185.8,108.6c0-0.1,0-0.1,0.1-0.1c0,0,0-0.1,0.1-0.1c0-0.1,0.1-0.1,0.1-0.1l-0.1,0.1
		c0,0,0,0.1-0.1,0.1C185.9,108.4,185.9,108.6,185.8,108.6z M187.7,152.3c0,0.1,0,0.3-0.1,0.3c0,0-0.1,0.1-0.3,0.1
		c0,0.1-0.1,0.3-0.1,0.4l-0.3,0.1c-0.1,0-0.3,0.1-0.4,0.1c0,0-0.1,0-0.3,0c0,0,0,0-0.1,0l-0.1-0.1c0-0.1,0-0.3,0-0.3
		c0-0.1,0.1-0.1,0.1-0.3l0.3-0.1c0,0,0.3-0.1,0.3-0.3s0-0.3,0-0.4c0-0.1,0.1-0.3,0.1-0.3s0.1-0.1,0.3,0c0,0,0,0,0.1,0
		c0.1-0.1,0.1,0,0.3,0c0,0,0.1,0.1,0.3,0.3C187.7,152.1,187.7,152.2,187.7,152.3z M193.5,151.1c0,0.1,0,0.3-0.1,0.3l-0.1,0.1
		c0,0-0.1,0.1-0.1,0.3c-0.1,0-0.3-0.1-0.3-0.1s-0.1-0.1-0.1-0.3l-0.1-0.1c-0.1,0-0.3,0-0.3,0c-0.1,0-0.3-0.1-0.4-0.1
		c-0.1-0.1-0.1-0.4-0.1-0.5s0-0.5,0-0.7c0.4,0.4,0.4,0.4,0.4,0.3c0-0.1,0-0.3-0.1-0.4c0-0.3-0.1-0.7-0.3-1c0-0.1-0.1-0.4-0.1-0.7
		c0-0.1-0.3-0.4-0.3-0.5c-0.1-0.1-0.3-0.3-0.4-0.3s-0.4-0.1-0.5-0.1c-0.1-0.1-0.4-0.4-0.5-0.5s-0.5-0.5-0.8-0.8
		c-0.1-0.1-0.3-0.5-0.3-0.7c-0.1-0.3-0.3-0.8-0.3-1.1c0-0.1-0.1-0.5-0.3-0.8c0-0.1-0.1-0.5-0.1-0.7c0-0.1,0.1-0.4,0.1-0.7
		s0-0.7-0.1-0.8c0-0.1-0.3-0.5-0.3-0.8c0-0.1-0.1-0.4-0.1-0.5s0.1-0.5,0.1-0.7c0-0.1,0.1-0.4,0.1-0.5s0.1-0.4,0.1-0.5s0-0.4,0-0.5
		c0,0-0.1-0.1-0.3-0.1c0,0-0.3-0.1-0.3-0.3c0-0.1,0.1-0.1,0.1-0.3c0-0.1,0.1-0.3,0.1-0.3c0-0.1,0-0.3,0-0.3c0-0.1,0.1-0.3,0.1-0.4
		c0-0.1,0-0.4,0-0.5s0-0.4,0-0.4c0-0.1,0-0.3,0-0.3s0-0.3,0.1-0.3s0.1,0.3,0.1,0.3c0,0.1,0.1,0.3,0.1,0.4c0,0.1,0,0.4,0,0.5
		s0.1,0.5,0.1,0.7c0,0.1,0,0.3,0,0.3c0,0.1,0.1,0.4,0.1,0.4c0,0.1,0.3,0.1,0.3,0.3c0.1,0.1,0.3,0.3,0.3,0.3c0,0.1,0,0.1,0,0.3
		c0,0.1,0.1,0.5,0,0.8c0,0.1-0.1,0.4-0.1,0.5s0.1,0.4,0.1,0.5s0.1,0.1,0.1,0.3c0,0.1,0.1,0.3,0.1,0.4c0,0.1,0,0.5,0,0.7s0,0.3,0,0.4
		c0,0,0.1,0.1,0.1,0.3c0,0.1,0,0.4,0.1,0.5c0,0.1,0.1,0.3,0.1,0.4c0,0.1-0.1,0.3-0.1,0.3l-0.3,0.1c0,0-0.1,0.1-0.1,0.3s0,0.3,0,0.4
		c0,0.1,0.1,0.3,0.1,0.4c0.1,0.1,0.4,0.3,0.5,0.4c0.1,0,0.4,0.1,0.5,0.1s0.3,0.3,0.4,0.3s0.3,0.1,0.3,0.3c0.1,0.1,0.3,0.4,0.4,0.5
		c0.1,0.1,0.3,0.4,0.3,0.5s0.1,0.5,0.1,0.7s0,0.5,0,0.8c0,0.1,0.3,0.5,0.3,0.7c0.1,0.3,0.3,0.7,0.4,1c0.1,0.1,0.3,0.5,0.4,0.7
		c0.1,0.1,0.3,0.4,0.3,0.5s0.1,0.3,0.1,0.4v-0.1H193.5z M195.1,116.8c0,0.1-0.1,0.4-0.1,0.5s-0.3,0.3-0.4,0.3
		c-0.1,0-0.4,0.1-0.5,0.1s-0.3,0.1-0.3,0.3c0,0.1,0,0.3-0.1,0.4c0,0.1-0.1,0.3-0.3,0.4c-0.1,0.1-0.3,0.4-0.4,0.5
		c-0.1,0-0.3,0.1-0.4,0.1c-0.1,0-0.3-0.1-0.3-0.1s0-0.1,0-0.3v-0.1c0-0.1-0.1-0.1-0.1-0.3c0-0.1,0.1-0.3,0.1-0.4s0.1-0.3,0.1-0.4
		s0.1-0.3,0.1-0.3c0-0.1,0.3-0.3,0.3-0.3c0.1-0.1,0.3-0.3,0.4-0.4c0.1-0.1,0.3-0.3,0.3-0.3c0.1-0.1,0.4-0.3,0.5-0.3
		c0.1-0.1,0.4-0.4,0.5-0.5c0,0,0.1-0.1,0.1-0.3c0-0.1,0.1-0.3,0.1-0.3c0.1,0,0.3,0.1,0.3,0.3c0,0.1,0.1,0.4,0.1,0.5
		C195.2,116.2,195.1,116.6,195.1,116.8z M195,110.8c0.1,0,0.3,0.1,0.3,0.1C195.1,110.9,195,110.8,195,110.8z M202.1,131.5
		c-0.1,0-0.4,0-0.5,0s-0.3,0-0.4,0c-0.1,0-0.3,0.1-0.3,0.3l-0.1,0.3c0,0.1,0,0.3,0,0.3c0,0.1,0,0.3-0.1,0.4h-0.3
		c-0.1,0-0.1-0.3-0.1-0.4c0,0-0.1-0.1-0.3-0.1s-0.4-0.1-0.4-0.1c-0.1,0-0.3-0.1-0.4-0.1c-0.1-0.1-0.3-0.4-0.4-0.5
		c-0.1-0.1-0.3-0.1-0.3-0.3c0,0,0-0.1-0.1-0.1s-0.3,0.1-0.4,0.3v0.1c0,0,0.1,0.1,0.1,0.3c0,0.1,0,0.3-0.1,0.3h-0.3v0.3
		c0,0-0.1,0.1-0.1,0.3c-0.1,0-0.3,0.1-0.4,0.1s-0.1-0.3-0.3-0.3c-0.1-0.1-0.1-0.5-0.3-0.7c0-0.3,0-0.7,0-0.8c0-0.3-0.3-0.7-0.3-1
		s0.1-0.5,0.1-0.8s0-0.7,0-0.8c0-0.1,0.1-0.5,0.1-0.7c0-0.1,0-0.4,0-0.4c0-0.1-0.1-0.1-0.3-0.3c0-0.1,0-0.4,0-0.5s0.1-0.3,0.3-0.4
		c0-0.1,0.3-0.1,0.3-0.3c0.1-0.1,0.1-0.3,0.1-0.4s0-0.3,0-0.3c0-0.1-0.1-0.3-0.1-0.3c0-0.1,0-0.4,0.1-0.4c0.1-0.1,0.4-0.1,0.5-0.1
		s0.4,0,0.5-0.1s0.3-0.4,0.4-0.4c0,0,0.1,0,0.3,0s0.4,0.1,0.4,0c0,0,0-0.3,0-0.4c0,0,0.3,0,0.4,0c0.1,0,0.4,0.1,0.5,0.1
		c0,0,0.1,0,0.3,0s0.3,0.3,0.3,0.3c0.1,0,0.3-0.1,0.3-0.3c0.1-0.1,0.3-0.3,0.3-0.4s0-0.3,0-0.3c0-0.1,0.3-0.1,0.3-0.1
		c0.1,0,0.3,0.1,0.3,0.1c0.1,0,0.3,0.3,0.3,0.3c0.1,0,0.3,0.1,0.4,0.1c0.1,0,0.3,0,0.4,0s0.3-0.1,0.4-0.1c0.1,0,0.3,0,0.4,0
		c0,0.1,0,0.3,0,0.4s0,0.4,0,0.5s0.1,0.1,0.3,0.3l0.1,0.1c0,0.1,0,0.3,0,0.3c0,0.1,0.1,0.1,0.3,0.3c0,0,0.1,0,0.3,0s0.3-0.1,0.3-0.1
		c0.1,0,0.4-0.1,0.5-0.1s0.4,0,0.5,0h0.3c0,0,0.1,0.3,0,0.3c0,0-0.1,0.1-0.3,0.1s-0.3,0-0.3,0s-0.1,0.1-0.3,0.1
		c-0.1,0.1-0.3,0.3-0.3,0.3c-0.1,0-0.3,0.1-0.4,0.1s-0.3,0-0.3,0c-0.1,0-0.3,0.1-0.3,0.1c-0.1,0.1-0.3,0.4-0.1,0.7
		c0,0.1,0.1,0.1,0.1,0.1l0,0c-0.1,0-0.3,0.1-0.3,0.1v0.3c0,0.1,0.1,0.1,0.1,0.3s0.1,0.4,0,0.5c-0.1,0-0.3-0.1-0.4,0
		c0,0-0.1,0.1-0.1,0.3v0.3c0,0-0.3,0-0.3,0.1c-0.1,0-0.3,0.1-0.3,0.3c0,0.1,0,0.3,0,0.4l-0.1,0.1c-0.1,0-0.3,0-0.3,0l-0.1,0.3
		c0,0.1-0.1,0.3-0.1,0.3s-0.1,0-0.3,0s-0.3,0.1-0.1,0.3c0,0.1,0.1,0.1,0.3,0.3c0.1,0,0.3,0.1,0.4,0.1c0.1,0,0.1-0.1,0.3-0.1
		s0.3,0,0.4,0l0.1,0.1c0,0.1-0.1,0.3-0.1,0.4c0,0.1-0.3,0.1-0.3,0.3c-0.1,0.1-0.3,0.1-0.4,0.3C202.3,131.4,202.2,131.5,202.1,131.5z
		 M204.4,126.3C204.5,126.2,204.5,126.2,204.4,126.3L204.4,126.3z M206,171.5h-0.3c0,0,0-0.3,0-0.4c0-0.1-0.1-0.3-0.3-0.4
		c0-0.1-0.1-0.3-0.3-0.3c0,0-0.1-0.1-0.3-0.1c0,0-0.1,0.1-0.1,0.3h-0.3c0,0,0,0.1-0.1,0.3h-0.2c-0.1,0-0.1-0.3-0.3-0.4
		c0-0.1,0-0.3,0-0.4c0-0.1,0.1-0.3,0.1-0.4c0-0.1,0.1-0.3,0-0.3c0-0.1-0.1-0.4-0.3-0.5c0-0.1-0.3-0.3-0.3-0.3c0-0.1-0.1-0.3-0.1-0.4
		c0-0.1,0-0.4,0-0.4c0-0.1,0-0.4-0.1-0.5c0-0.1-0.3-0.4-0.3-0.5s0-0.4,0-0.5s-0.3-0.4-0.3-0.5s0-0.4,0-0.4c0-0.1-0.1-0.3-0.1-0.4
		c0-0.1-0.1-0.4-0.1-0.5s0.1-0.3,0.1-0.4c0-0.1,0.1-0.5,0.3-0.7c0.1-0.1,0.3-0.4,0.4-0.4c0-0.1,0.1-0.3,0.1-0.4c0-0.1,0-0.4,0.1-0.5
		c0-0.3,0-0.7,0-1s0-0.8,0-1.1s-0.1-0.7,0-0.8c0-0.1,0.1-0.3,0.1-0.4c0,0,0.1-0.1,0.1-0.3s0-0.3,0-0.3c0-0.1-0.3-0.3-0.4-0.4
		c-0.1-0.1-0.4-0.3-0.4-0.4c0-0.1-0.1-0.3-0.1-0.4c0-0.1,0-0.3,0-0.4c0-0.1-0.1-0.5,0-0.7c0,0,0-0.1,0.1-0.3l0.1-0.1
		c0,0,0.1-0.1,0.3-0.1c0.1,0,0.3,0,0.4,0c0.1,0,0.3,0.3,0.4,0.3c0.1,0.1,0.3,0.3,0.4,0.4c0,0.1,0.1,0.3,0.1,0.4
		c0.1,0.1,0.1,0.5,0.3,0.7c0,0.3,0.1,0.7,0.1,0.8s0.1,0.5,0.1,0.8s0,0.7,0,0.8s0,0.5,0,0.7s0,0.4,0.1,0.5s0.4,0.3,0.5,0.4
		c0.1,0.1,0.3,0.4,0.3,0.5s0,0.3,0,0.4c-0.1,0.1-0.1,0.3-0.1,0.3c0,0.1-0.1,0.4-0.1,0.5c-0.1,0.3-0.3,0.7-0.4,1
		c0,0.1-0.1,0.5-0.3,0.7c0,0.1-0.1,0.4-0.3,0.5c0,0.1,0.1,0.5,0.1,0.7c0,0.3,0.1,0.7,0.1,0.8c0,0.3,0,0.8,0,1.1c0,0.1,0,0.5,0,0.8
		v0.1c0,0.1,0,0.4,0,0.4c0,0.1,0,0.3,0.1,0.3c0,0.1,0.1,0.3,0.1,0.3s0.3,0,0.3,0.1c0.1,0.1,0,0.4,0.1,0.5c0,0.1,0.1,0.3,0.1,0.3
		s0.1,0.1,0.1,0.3c0,0.1,0,0.3,0,0.4c0,0.1,0.1,0.4,0.1,0.4S206.2,171.5,206,171.5z M206.3,84.1c0,0.1-0.1,0.3-0.1,0.5
		C206.2,84.5,206.2,84.2,206.3,84.1c0,0,0-0.1,0.1-0.3C206.4,84,206.3,84,206.3,84.1z M206.9,83.1c0.1-0.3,0.4-0.7,0.7-1
		C207.3,82.6,207.1,82.9,206.9,83.1z M211.1,68.8c0-0.4,0.1-0.7,0.1-1.1C211.2,68.1,211.1,68.5,211.1,68.8c0,0.1,0,0.4-0.1,0.5
		C211,69.2,211,69.1,211.1,68.8z M210.6,71.4c0,0.1-0.1,0.5-0.1,0.8C210.4,71.9,210.4,71.5,210.6,71.4z M208.2,81.1
		c0,0.1-0.1,0.3-0.3,0.3C208.1,81.2,208.1,81.1,208.2,81.1z M209.6,79.9c-0.1,0.1-0.3,0.1-0.3,0.1S209.5,79.9,209.6,79.9
		s0.1-0.1,0.3-0.1c0,0,0-0.1,0.1-0.3c0,0.1,0,0.1-0.1,0.3C209.9,79.7,209.7,79.9,209.6,79.9z M212.9,114.6c0,0.1,0,0.3,0,0.3
		c0,0.1,0,0.3,0,0.3h-0.1c0,0-0.1-0.1-0.1-0.3c0-0.1-0.1-0.3-0.1-0.4s-0.1-0.3-0.1-0.4s-0.1-0.3-0.1-0.4c-0.1-0.1-0.3-0.3-0.4-0.3
		c-0.1-0.1-0.4-0.3-0.5-0.4s-0.3-0.4-0.3-0.5c-0.1-0.1-0.3-0.4-0.3-0.5s-0.1-0.5-0.1-0.7c0-0.1-0.1-0.4-0.1-0.7c0-0.1,0-0.4-0.1-0.5
		c0-0.1,0-0.5,0-0.7c0-0.1,0.1-0.4,0.1-0.5c-0.4,0.1-0.4-0.1-0.4-0.1s0.1-0.1,0.1-0.3c0.1,0,0.3-0.1,0.4-0.1c0.1,0,0.3,0.1,0.3,0.3
		c0,0.1,0,0.3,0.1,0.4c0,0,0.1,0.1,0.3,0.1c0,0.1,0.1,0.3,0.1,0.4s0,0.4,0,0.5s0.1,0.3,0.1,0.4s0,0.3,0,0.4s-0.1,0.3-0.1,0.3
		c0,0.1,0,0.3,0,0.4s0.1,0.3,0.1,0.4s0,0.5,0.1,0.7c0,0.1,0.1,0.3,0.1,0.4c0.1,0.1,0.4,0.3,0.5,0.4s0.3,0.3,0.4,0.4
		c0,0.1,0.1,0.3,0.1,0.4C212.9,114.3,212.9,114.5,212.9,114.6z M213,64.8c0,0,0-0.1,0.3-0.1C213.1,64.8,213.1,64.8,213,64.8z
		 M214.8,64c-0.3,0.1-0.7,0.3-0.8,0.3C214.1,64.1,214.5,64,214.8,64c0.1-0.1,0.3-0.3,0.5-0.4C215.2,63.7,214.9,63.9,214.8,64z"/>
	<path class="st0" d="M233.8,165c0,0.1,0,0.3,0.1,0.3c0,0.1,0.3,0.1,0.4,0.1l0.1,0.1c0.1,0,0.3,0,0.3,0s0.1,0,0.1-0.1
		c0,0,0-0.1-0.1-0.1c0-0.1-0.1-0.1-0.3-0.3c-0.1,0-0.3-0.1-0.4-0.1C233.9,164.9,233.8,164.9,233.8,165z"/>
	<path class="st0" d="M238.7,168.1c0.1,0,0.3,0,0.3-0.1c0,0,0.1-0.1,0.1-0.3s0-0.3,0-0.4c0-0.1-0.1-0.3-0.1-0.3
		c0-0.1-0.1-0.3-0.3-0.3s-0.3-0.1-0.4,0l-0.1,0.1c0,0.1,0,0.3,0,0.3c0,0.1,0.1,0.3,0.3,0.3c0,0.3,0,0.4,0,0.4
		C238.4,167.9,238.6,168.1,238.7,168.1z"/>
	<path class="st0" d="M236.4,165.3c0,0,0,0.3,0.1,0.3c0,0.1,0.1,0.3,0.3,0.3l0.1-0.1c0-0.1,0.1-0.3,0.1-0.3c0-0.1,0-0.3,0-0.4
		c0-0.1,0-0.3-0.1-0.3c0,0-0.1-0.1-0.3-0.1h-0.1c0,0-0.1,0.1-0.1,0.3c0,0-0.1-0.1-0.3-0.1H236v0.3l0.1,0.1H236.4z"/>
	<path class="st0" d="M232.7,163.3C232.7,163,232.6,163.1,232.7,163.3L232.7,163.3z"/>
	<path class="st0" d="M232.7,163.3c0,0.1,0.3,0.1,0.4,0.1v0.3c0,0.1,0.3,0.3,0.4,0.3c0,0,0.1,0,0.3,0c0-0.1-0.1-0.3,0-0.4
		c0-0.1,0.1-0.1,0.3-0.1v-0.3c0-0.1-0.3-0.1-0.3-0.3l-0.1-0.3c0-0.1,0.1-0.3,0.1-0.3c0-0.1,0-0.3-0.1-0.3l-0.3-0.1
		c-0.1,0-0.3,0-0.3,0.1c-0.1,0-0.1,0.3-0.1,0.4c0,0.1,0.1,0.3,0,0.4C233,163,232.8,163.1,232.7,163.3z"/>
	<path class="st0" d="M221.5,142.2c-0.1,0-0.3,0-0.4,0.1c-0.1,0.1-0.1,0.4-0.1,0.5s0,0.4,0,0.5s0.1,0.3,0.1,0.4
		c0.1,0.3,0,0.4,0.1,0.5c0,0.1,0.3,0.1,0.4,0.1c0.1,0.1,0.3,0.4,0.4,0.3c0.1,0,0.1-0.3,0.1-0.4c0-0.1-0.1-0.3-0.1-0.3
		c0-0.1,0-0.3-0.1-0.4l-0.3-0.1c-0.1-0.1-0.1-0.4-0.1-0.5s0.1-0.3,0.1-0.4C221.6,142.5,221.6,142.2,221.5,142.2z"/>
	<path class="st0" d="M222.9,139.6h-0.3c-0.1,0-0.1,0.3-0.1,0.4c0,0.1,0,0.4,0,0.5s0,0.4,0.1,0.5c0,0.1,0,0.3,0.1,0.4
		c0,0,0.1,0,0.1-0.1s0.1-0.3,0.1-0.4v-0.1c0-0.1,0.1-0.3,0.1-0.4c0-0.1-0.1-0.4-0.1-0.5C223,139.9,223,139.6,222.9,139.6z"/>
	<path class="st0" d="M115.9,117.1c-0.1,0-0.4,0.1-0.4,0.1c-0.1,0.1-0.1,0.3-0.1,0.4s0,0.4,0.1,0.4s0.3,0,0.4,0c0,0,0.1-0.1,0.1-0.3
		c0-0.1,0.1-0.3,0.1-0.4C116.2,117.2,116.1,117.1,115.9,117.1z"/>
	<path class="st0" d="M113.7,121.6c0,0-0.1-0.1-0.3-0.3c-0.1,0-0.3,0-0.4,0s-0.3,0.1-0.3,0.1c-0.1,0.1-0.1,0.4-0.1,0.5
		s-0.1,0.4,0,0.5c0,0.1,0.3,0.1,0.4,0.1s0.3-0.3,0.4-0.4c0,0,0.1-0.1,0.1-0.3L113.7,121.6c0.1,0,0.2-0.1,0.2-0.2
		C113.9,121.6,113.8,121.7,113.7,121.6z"/>
	<path class="st0" d="M114,121.5L114,121.5C114,121.5,114,121.5,114,121.5z"/>
	<path class="st0" d="M120.9,112c-0.1,0-0.1-0.1,0-0.3c0-0.1,0.3-0.1,0.3-0.3c0-0.1,0-0.3-0.1-0.3c0-0.1-0.1-0.1-0.1-0.3
		c0-0.1,0-0.3,0.1-0.3c0,0,0.1,0,0.3,0l0.1-0.3h-0.4c-0.1,0-0.3,0-0.3,0c-0.1,0-0.3-0.1-0.4-0.1l-0.1,0.1c0,0-0.1,0-0.3,0
		c-0.1,0-0.1,0.3-0.1,0.3c0,0.1,0,0.3-0.1,0.3c0,0.1-0.1,0.1-0.1,0.3s0,0.3,0,0.4c0,0-0.3,0-0.3,0.1c0,0,0,0.3,0.1,0.3
		c0,0,0.3,0,0.3,0.1c0,0,0,0.3,0.1,0.3c0.1,0.1,0.4,0,0.4,0c0.1,0,0.3,0,0.3-0.1C120.7,112.3,120.9,112.1,120.9,112z"/>
</g>
<linearGradient id="bostwana_1_" gradientUnits="userSpaceOnUse" x1="155.3539" y1="-77.6869" x2="185.1121" y2="-77.6869" gradientTransform="matrix(1 0 0 1 0 274.9307)">
	<stop  offset="0" style="stop-color:#AD2537"/>
	<stop  offset="1" style="stop-color:#AD2537;stop-opacity:0"/>
</linearGradient>
<path id="bostwana" class="st2" d="M185.1,197C185.1,197.2,185.1,197.2,185.1,197l-11.1,8.5c0,0-0.4,0.4-0.5,0.5
	c0,0.1-0.1,0.3-0.1,0.4c0,0.1,0,0.4-0.1,0.5c0,0.1-0.1,0.3-0.3,0.4c-0.1,0.1-0.4,0.3-0.5,0.4c-0.1,0.1-0.4,0.1-0.5,0.3
	c-0.3,0.1-0.7,0.1-1,0.3c-0.3,0-0.8,0.1-1,0.1c-0.1,0-0.4,0-0.5,0s-0.4-0.3-0.5-0.3c-0.1-0.1-0.5-0.4-0.7-0.4
	c-0.1-0.1-0.5-0.3-0.7-0.3s-0.4-0.1-0.5-0.1s-0.4,0-0.5,0s-0.4,0.1-0.5,0.3c-0.1,0.1-0.4,0.4-0.5,0.5s-0.4,0.4-0.5,0.5
	s-0.3,0.3-0.4,0.4c0,0.1-0.1,0.3-0.3,0.4c-0.1,0.1-0.3,0.3-0.3,0.4c-0.1,0.1-0.3,0.3-0.4,0.4c-0.1,0-0.3,0.1-0.3,0.1
	c-0.1,0.1-0.4,0.1-0.4,0.3c-0.1,0.1-0.1,0.4-0.1,0.4c0,0.1-0.3,0.3-0.4,0.4c-0.1,0.1-0.4,0.1-0.7,0.1c-0.1,0-0.4,0-0.7,0.1
	c-0.1,0-0.4,0.3-0.5,0.3s-0.5-0.1-0.8-0.1c-0.1,0-0.5-0.1-0.8-0.1c-0.1,0-0.4,0-0.5,0s-0.4,0-0.4-0.1c-0.1-0.1-0.1-0.4-0.1-0.4
	c0-0.1,0-0.4,0-0.5s0.3-0.4,0.3-0.5s0.1-0.3,0.3-0.4c0-0.3,0-0.8,0-1.1c0-0.1,0-0.5,0-0.7c-0.1-0.3-0.4-0.5-0.5-0.7
	c-0.1-0.3-0.5-0.5-0.7-0.8c-0.1-0.1-0.4-0.5-0.7-0.7c-0.1-0.1-0.3-0.3-0.4-0.4c-0.1,0-0.3-0.1-0.4-0.3l0.3-8.9h3.3l0.3-11.8l7.4-0.8
	c0,0,0.3,0.1,0.4,0.1s0.3,0.1,0.3,0.3s0.1,0.3,0.1,0.3c0,0.1,0,0.3,0,0.4c0,0.1,0,0.3,0,0.3v0.1c0,0,0.1,0,0.3,0
	c0.1,0,0.4-0.3,0.4-0.3c0.1-0.1,0.3-0.4,0.4-0.4c0.1-0.1,0.3-0.1,0.4-0.3c0.1-0.1,0.3-0.5,0.5-0.5c0.1,0,0.4,0,0.5,0
	s0.5-0.1,0.7-0.1c0.1,0,0.3-0.1,0.4-0.3c0,0,0.1-0.1,0.1-0.3c0,0,0.1-0.1,0.3-0.1c0.1,0,0.3-0.1,0.3-0.1c0.1,0,0.3-0.1,0.4-0.1h0.1
	c0.1,0.1,0.3,0.1,0.3,0.3l0,0c0,0.1,0,0.3,0,0.3c0,0.1,0.1,0.4,0.3,0.5c0.1,0.1,0.3,0.5,0.4,0.7c0.1,0.1,0.4,0.5,0.5,0.7
	c0.1,0.1,0.3,0.3,0.3,0.3c0.1,0.1,0.1,0.5,0.1,0.7s0,0.3,0.1,0.3c0,0.1,0.3,0.3,0.4,0.3c0.1,0.1,0.4,0.5,0.5,0.7
	c0.1,0.3,0.5,0.7,0.7,1c0.1,0.1,0.4,0.5,0.5,0.8c0,0.1,0.1,0.4,0.1,0.4c0.1,0.1,0.3,0.1,0.4,0.3c0.1,0,0.3,0.1,0.4,0.1
	s0.3,0,0.4,0.1c0.1,0,0.3,0.1,0.3,0.3c0.1,0,0.3,0.1,0.3,0.3c0.1,0.1,0.1,0.4,0.3,0.4c0,0.1,0.1,0.3,0.3,0.3
	c0.1,0.1,0.4,0.1,0.4,0.1c0.1,0,0.3,0.1,0.4,0.3c0.1,0.1,0.4,0.3,0.4,0.4c0.1,0.1,0.1,0.5,0.1,0.7s0,0.5,0,0.7c0,0.1,0,0.5,0.1,0.8
	c0,0.1,0.1,0.4,0.1,0.5c0.1,0.1,0.3,0.4,0.4,0.5c0.1,0.1,0.3,0.4,0.4,0.5c0.1,0,0.3,0.1,0.4,0.1s0.4,0,0.5,0s0.4,0,0.7,0
	c0.1,0,0.3,0.1,0.4,0.1s0.4,0.1,0.4,0.3c0.1,0.1,0.5,0.3,0.8,0.4C184.8,196.9,185,197,185.1,197z"/>
<g id="Africa_Map_1_">
	<g id="map_1_">
		<path class="st0" d="M39.3,84.7c-0.1-0.1-0.3-0.1-0.4,0c-0.1,0-0.2,0.2-0.2,0.2c-0.1,0-0.2,0.1-0.3,0.1c-0.1,0.1-0.1,0.2,0,0.3
			c0,0.1,0,0.2,0.1,0.2c0.1,0.1,0.3,0,0.4,0c0,0,0-0.1,0.1-0.2c0.1-0.1,0.2-0.1,0.3-0.2c0.1,0,0.3-0.1,0.3-0.2
			C39.4,84.8,39.3,84.7,39.3,84.7z"/>
		<path class="st0" d="M49.3,97.5c-0.1,0-0.3,0-0.4,0.1c0,0-0.1,0.1-0.2,0.1c0,0.1,0.1,0.2,0.1,0.3c0.1,0.1,0.2,0.1,0.3,0.1
			c0.1,0,0.3,0,0.4,0c0.1,0,0.1-0.2,0.2-0.2c0-0.1,0-0.3-0.1-0.3C49.5,97.5,49.4,97.5,49.3,97.5z"/>
		<path class="st0" d="M12.9,70.1c-0.1,0-0.3-0.1-0.4,0c-0.1,0-0.1,0.2-0.2,0.3c0,0.1,0,0.2,0,0.3c0,0.1,0.2,0.2,0.2,0.2
			c0.1,0,0.3,0,0.4,0c0.1,0,0.2-0.1,0.3-0.2c0,0,0.1-0.1,0.1-0.2c0-0.1-0.1-0.2-0.2-0.3C13.1,70.2,13,70.1,12.9,70.1z"/>
		<path class="st0" d="M15.9,69.7c0,0-0.2,0-0.2-0.1c-0.1-0.1-0.1-0.3-0.2-0.4c-0.1-0.1-0.2-0.2-0.3-0.2c-0.1,0-0.2,0-0.2,0
			c-0.1,0.1,0,0.4,0,0.5c0,0.1-0.1,0.3-0.1,0.4c0,0.1,0,0.4,0.1,0.5c0,0.1,0.2,0.2,0.3,0.2c0.2,0,0.5,0,0.7-0.1
			c0.1,0,0.1-0.1,0.2-0.2c0-0.1,0.1-0.2,0.1-0.3C16.2,70,16,69.8,15.9,69.7z"/>
		<path class="st0" d="M18.7,66.1c-0.1,0-0.3,0-0.4,0c-0.1,0-0.2,0.1-0.2,0.2c0,0.1,0,0.3,0,0.4c0,0.1,0.1,0.3,0.2,0.3
			c0.1,0.1,0.3,0.2,0.4,0.2c0.1,0,0.3-0.1,0.4-0.2c0.1-0.1,0.1-0.2,0.2-0.3c0-0.1-0.1-0.3-0.2-0.4C18.9,66.2,18.8,66.1,18.7,66.1z"
			/>
		<path class="st0" d="M18.6,64.7c0.1,0,0-0.3,0-0.4c0-0.1,0.3-0.2,0.3-0.3c0-0.1-0.1-0.3-0.2-0.4c0-0.1-0.1-0.2-0.2-0.2
			c-0.1,0-0.1,0.2-0.2,0.3c0,0.1-0.1,0.2-0.2,0.2c0,0.1-0.1,0.4,0,0.6C18.3,64.6,18.5,64.8,18.6,64.7z"/>
		<path class="st0" d="M15.1,64.6c0.1-0.1-0.1-0.3-0.2-0.4c0-0.1-0.1-0.2-0.2-0.2c-0.1-0.1-0.3-0.1-0.3-0.2c-0.1,0-0.1-0.2-0.2-0.2
			c-0.1,0-0.3,0-0.3,0.1c-0.1,0.1,0,0.3,0,0.3c0,0.1-0.2,0.2-0.2,0.3c0,0.1,0.1,0.3,0.2,0.4c0.1,0.1,0.3,0.1,0.3,0.1
			c0.1,0,0.2,0,0.3,0c0.1,0,0.1-0.1,0.2-0.1C14.9,64.5,15.1,64.6,15.1,64.6z"/>
		<path class="st0" d="M11.7,61.9c-0.1,0-0.4,0-0.5,0c-0.1,0-0.3,0.1-0.4,0.2c-0.1,0.1-0.1,0.3-0.1,0.5c0,0.1,0.1,0.4,0.2,0.4
			c0.1,0.1,0.3,0,0.4,0c0.1,0,0.1-0.2,0.2-0.2c0.1,0,0.3,0,0.4-0.1c0.1,0,0.1-0.1,0.2-0.2c0,0,0.1-0.2,0.1-0.2c0-0.1,0-0.2-0.1-0.3
			C12,62,11.8,61.9,11.7,61.9z"/>
		<path class="st0" d="M127.3,11.6c0,0.1,0,0.2,0,0.3c0,0.1,0,0.2,0.1,0.3c0,0,0.2,0.1,0.2,0.1c0.1,0,0.3,0,0.4-0.1
			c0.1,0,0.1-0.2,0.1-0.3c0-0.1,0-0.4-0.1-0.4c-0.1-0.1-0.3-0.1-0.4-0.1C127.5,11.4,127.4,11.5,127.3,11.6z"/>
		<path class="st0" d="M253.7,176.7c-0.1-0.3-0.2-0.9-0.2-1.2c-0.1-0.4-0.1-1.1-0.1-1.4c0-0.3,0-0.9,0-1.1c0-0.3-0.2-1-0.3-1.4
			c0-0.4-0.1-1.1-0.1-1.5c0-0.4,0-1.1-0.1-1.4c0-0.2-0.1-0.5-0.2-0.7c0-0.1-0.1-0.2-0.1-0.3c-0.1-0.1-0.4-0.4-0.4-0.5
			c-0.1-0.1-0.2-0.4-0.3-0.5c-0.1-0.1-0.2-0.2-0.3-0.2c-0.1,0-0.2-0.1-0.3-0.2c-0.1-0.1-0.1-0.2-0.1-0.3c0,0-0.1-0.1-0.1-0.1
			c-0.1,0-0.2,0.1-0.2,0.1c-0.1,0-0.3,0.1-0.4,0.1c-0.1,0.1,0,0.2-0.1,0.3c-0.1,0.1-0.2,0.2-0.3,0.2c0,0-0.1-0.1-0.1-0.1
			c0,0-0.1-0.1-0.2-0.1c-0.1,0-0.2,0.1-0.2,0.1c0,0.1,0,0.3,0.1,0.3c0.1,0.1,0.3,0,0.3,0.1c0.1,0.1,0,0.4,0,0.5
			c0,0.1-0.1,0.3-0.1,0.4c0,0.1-0.2,0.4-0.2,0.5c0,0.2,0,0.5,0,0.7c0,0.1-0.1,0.3-0.2,0.4c-0.1,0.1-0.3,0.1-0.3,0.2
			c-0.1,0.1-0.1,0.3-0.2,0.3c0,0-0.1,0.1-0.2,0.1c0,0,0-0.2,0-0.2c0-0.1-0.1-0.3-0.2-0.4c-0.1,0-0.2,0-0.2,0.1c-0.1,0.1,0,0.3,0,0.4
			c0,0.1-0.1,0.3-0.1,0.4c0,0.1-0.2,0.2-0.2,0.3c-0.1,0.1-0.1,0.3-0.2,0.3c-0.1,0.1-0.3,0.1-0.3,0.2c0,0.1,0.1,0.3,0,0.3
			c0,0-0.2,0-0.2-0.1c-0.1-0.1-0.1-0.2-0.1-0.3c0-0.1,0-0.2,0-0.3c0-0.1-0.1-0.2-0.1-0.3c-0.1-0.1-0.2-0.1-0.3-0.1
			c-0.1,0-0.2,0-0.3,0c-0.1,0-0.1,0.2-0.2,0.3c0,0.1,0,0.3,0,0.4c0,0.1,0.1,0.3,0.2,0.4c0,0.1,0.2,0.3,0.2,0.4
			c0,0.1-0.1,0.4-0.1,0.5c0,0.1-0.1,0.3-0.2,0.3c-0.1,0-0.1-0.1-0.2-0.1c0,0,0-0.1-0.1-0.2c0,0-0.1-0.1-0.2-0.1
			c-0.1,0-0.2,0.2-0.2,0.2c-0.1,0.1-0.1,0.3-0.1,0.4c0,0.2-0.2,0.5-0.1,0.7c0,0.1,0.2,0.2,0.3,0.3c0.1,0,0.2,0,0.2,0.1
			c0.1,0,0.1,0.2,0.1,0.3c0,0.1,0,0.3,0,0.3c0,0-0.1,0-0.2,0c-0.1,0-0.1-0.1-0.2-0.1c-0.1,0-0.3,0-0.4,0c-0.1,0.1-0.2,0.3-0.3,0.4
			c0,0.1,0,0.3,0,0.4c0,0.1-0.2,0.2-0.3,0.3c0,0-0.1,0.2-0.2,0.2c-0.1,0-0.2,0-0.2-0.1c0-0.1,0-0.2,0-0.3c0-0.1,0.1-0.1,0.2-0.2
			c0,0,0-0.1,0-0.2c0-0.1,0.1-0.2,0.1-0.3c0-0.1,0.1-0.2,0.1-0.3c0-0.1-0.2-0.2-0.3-0.3c-0.1,0-0.2,0-0.3,0c-0.1,0-0.2,0.2-0.2,0.3
			c0,0.1,0.2,0.3,0.2,0.4c0,0.1-0.2,0.3-0.3,0.4c-0.1,0.1-0.3,0.3-0.4,0.4c-0.1,0-0.2,0-0.3,0.1c0,0.1,0,0.2,0,0.3
			c0,0,0.2,0,0.2,0.1c0,0,0,0.2,0,0.2c0,0.1,0.2,0.2,0.2,0.3c0,0.1,0,0.3-0.1,0.4c0,0.1-0.2,0.2-0.2,0.2c-0.1,0-0.2,0-0.2,0
			c-0.1,0-0.2,0-0.2,0c-0.1-0.1-0.1-0.3-0.1-0.4c0-0.1,0.1-0.2,0.1-0.3c0-0.1,0-0.2,0-0.3c0-0.1-0.1-0.2-0.2-0.2c-0.1,0-0.3,0-0.4,0
			c-0.1,0-0.3,0.2-0.4,0.2c-0.1,0.1-0.3,0.4-0.4,0.5c-0.1,0.1-0.2,0.2-0.2,0.3c0,0.1-0.2,0.2-0.2,0.3c0,0.1-0.1,0.2-0.1,0.3
			c0,0.1,0.1,0.2,0.1,0.2c0,0,0.2,0.1,0.2,0.1c0.1,0.1,0.1,0.3,0.2,0.4c0,0.1,0.1,0.4,0,0.5c0,0.1-0.2,0-0.3,0c-0.1,0-0.2,0-0.3,0
			c-0.1,0-0.2-0.2-0.2-0.3c-0.1-0.1-0.2-0.1-0.3-0.2c-0.1-0.1-0.1-0.2-0.1-0.3c0-0.1,0-0.3,0-0.4c0-0.1-0.1-0.3-0.2-0.3
			c-0.1,0-0.2,0-0.3,0c-0.1,0-0.1,0.2-0.2,0.2c0,0.1,0,0.2-0.1,0.3c-0.1,0-0.3,0-0.3,0c-0.1-0.1-0.1-0.3-0.2-0.3c-0.1,0-0.2,0-0.2,0
			c-0.1,0-0.3,0.2-0.4,0.3c-0.1,0.1,0,0.4-0.1,0.5c0,0.1-0.2,0.2-0.3,0.2c0,0-0.1,0-0.2,0c-0.1,0,0-0.2-0.1-0.3c0,0-0.1-0.1-0.2,0
			c-0.1,0,0,0.2,0,0.3c0,0.1-0.2,0.2-0.3,0.2c-0.1,0-0.2-0.1-0.2-0.2c0-0.1,0.1-0.2,0-0.3c0,0-0.2,0-0.2,0c-0.1,0-0.2,0.2-0.2,0.3
			c-0.1,0.1-0.4,0.1-0.5,0.2c-0.1,0.1-0.2,0.3-0.3,0.4c-0.1,0.1-0.3,0.1-0.4,0c-0.1-0.1-0.3-0.4-0.5-0.4c0,0-0.1-0.1-0.2-0.1
			c-0.1,0-0.3,0.2-0.4,0.3c-0.1,0.2,0,0.6,0,0.7c0,0.1,0,0.3,0,0.4c0,0.1-0.1,0.2-0.2,0.3c-0.1,0.1-0.2,0.4-0.3,0.6
			c-0.1,0.2-0.3,0.6-0.4,0.8c-0.1,0.2-0.5,0.6-0.6,0.9c-0.1,0.2-0.3,0.5-0.4,0.6c0,0.1,0.1,0.4,0.1,0.6c0.1,0.1,0.3,0.2,0.4,0.4
			c0.1,0.2,0.1,0.6,0.1,0.8c0,0.3,0.1,0.8,0.1,1.1c0,0.4-0.1,1.1,0,1.5c0,0.3,0.2,0.7,0.3,1c0,0.1,0,0.4,0,0.5
			c0,0.2,0.2,0.6,0.2,0.8c0,0.1,0.1,0.4,0,0.5c-0.1,0.1-0.3,0-0.3,0.1c-0.1,0.1,0.1,0.3,0.1,0.4c0,0.1,0,0.3,0,0.4
			c0,0.1-0.2,0.4-0.3,0.5c-0.1,0.2-0.4,0.5-0.5,0.6c-0.2,0.4-0.6,1.2-0.8,1.6c-0.2,0.3-0.7,0.9-0.9,1.3c0,0.1-0.1,0.2-0.2,0.3
			c-0.1,0.1-0.1,0.3-0.2,0.4c-0.1,0.1-0.5,0.2-0.6,0.3c-0.2,0.2-0.4,0.6-0.6,0.9c-0.1,0.2-0.3,0.5-0.4,0.6c-0.1,0.1-0.3,0.3-0.3,0.5
			c-0.1,0.2,0,0.7,0,0.9c0,0.2,0,0.7-0.1,0.9c0,0.2-0.2,0.5-0.2,0.7c0,0.2,0.1,0.5,0.2,0.7c0,0.1,0.1,0.2,0.1,0.3
			c0.1,0.1,0.3,0.2,0.4,0.3c0.1,0.1,0.1,0.5,0.2,0.6c0,0.1,0,0.4,0,0.5c0,0.1,0.3,0.3,0.3,0.5c0,0.1-0.1,0.3-0.1,0.4
			c-0.1,0.1-0.2,0.4-0.3,0.5c0,0.1-0.1,0.3-0.1,0.4c0,0.2,0.1,0.7,0.2,1c0,0.2,0,0.5,0,0.7c0,0.2,0,0.7,0,0.9c0,0.2,0.1,0.5,0.2,0.7
			c0.1,0.2,0.5,0.5,0.6,0.7c0.2,0.2,0.5,0.5,0.7,0.7c0.2,0.2,0.6,0.5,0.8,0.7c0.2,0.2,0.5,0.6,0.7,0.8c0.1,0.1,0.5,0.3,0.7,0.3
			c0.1,0,0.4,0,0.5,0c0.1,0,0.3-0.1,0.4-0.2c0.1-0.1,0.2-0.2,0.3-0.3c0.1-0.1,0.4-0.3,0.5-0.3c0.2-0.1,0.5-0.1,0.7-0.1
			c0.1,0,0.2-0.1,0.3-0.2c0.1,0,0.3,0,0.4,0c0.1,0,0.4,0,0.5,0c0.1,0,0.2-0.1,0.3-0.1c0.1,0,0.3-0.1,0.4-0.1c0.1,0,0.3,0,0.3,0
			c0.1,0,0.2,0.1,0.3,0.1c0.1,0,0.3-0.1,0.3-0.2c0.1-0.1,0.1-0.2,0.1-0.3c0.1-0.1,0.3,0,0.3-0.1c0.1-0.1,0.3-0.2,0.3-0.3
			c0.1-0.1,0.2-0.2,0.2-0.3c0-0.1,0.1-0.3,0.1-0.4c0.1-0.2,0.3-0.5,0.4-0.7c0.1-0.3,0.4-1,0.5-1.3c0.3-0.6,0.9-1.8,1.1-2.4
			c0.4-0.8,1.2-2.4,1.5-3.2c0.5-1,1.4-3.1,1.9-4.2c0.3-0.6,0.8-1.8,1.1-2.4c0.4-0.8,1.1-2.4,1.5-3.2c0.2-0.5,0.8-1.5,1-2.1
			c0.2-0.6,0.5-1.7,0.7-2.3c0.1-0.4,0.4-1.1,0.5-1.4c0.1-0.2,0.2-0.5,0.2-0.6c0.1-0.2,0.1-0.5,0.2-0.7c0.1-0.2,0.2-0.7,0.3-0.9
			c0.1-0.2,0.3-0.6,0.5-0.7c0.1-0.2,0.4-0.5,0.5-0.6c0.1-0.1,0.3-0.3,0.4-0.5c0.1-0.2,0-0.5,0-0.7c0-0.1,0-0.4,0-0.5
			c0-0.1-0.2-0.3-0.3-0.5c0-0.1,0-0.4,0-0.5c0-0.1,0.2-0.3,0.2-0.4c0-0.1,0-0.3,0-0.4c0-0.1,0.1-0.3,0.2-0.4c0-0.1,0-0.4,0.1-0.5
			c0-0.1,0.1-0.3,0.1-0.3c0,0,0.2-0.1,0.2-0.1c0.1,0,0.2,0,0.3,0.1c0.1,0.1,0.1,0.3,0.1,0.3c0,0.1,0,0.4,0,0.5c0,0.1,0,0.4,0,0.5
			c0,0.1,0.1,0.3,0.2,0.4c0.1,0.1,0.3,0.1,0.4,0.1c0.1,0,0.3,0,0.3,0c0.1-0.1,0.1-0.3,0.2-0.5c0-0.1,0-0.4,0-0.5c0-0.2,0-0.5,0-0.6
			C253.9,177.3,253.7,176.9,253.7,176.7z"/>
		<path class="st0" d="M220.5,69.9c0,0,0.2,0,0.2,0c0,0,0,0.1,0,0.2c0,0-0.1,0.1-0.1,0.2c0,0.1,0.2,0.1,0.3,0.1
			c0.1,0,0.2,0.1,0.3,0.1c0,0,0.1,0.1,0.2,0.1c0.1,0,0.3-0.1,0.4-0.1c0.1,0,0.3,0,0.3,0c0.1,0,0.1-0.2,0.1-0.3
			c0-0.1-0.1-0.2-0.1-0.2c-0.1,0-0.2-0.1-0.3-0.1c-0.1,0-0.2,0.1-0.3,0.1c-0.1,0-0.2-0.1-0.3-0.2c-0.1-0.1-0.1-0.2-0.1-0.3
			c0-0.1-0.1-0.1-0.2-0.2c-0.1,0-0.2,0-0.3,0.1c0,0-0.1,0.1-0.1,0.2c0,0-0.2,0-0.2,0.1c0,0.1,0,0.2,0,0.3
			C220.3,69.8,220.5,69.9,220.5,69.9z"/>
		<path class="st0" d="M220.7,69c0.1,0,0.3,0,0.4,0c0.1,0,0.2-0.1,0.2-0.2c0-0.1-0.1-0.2-0.1-0.3c-0.1-0.1-0.3-0.1-0.4-0.1
			c-0.1,0-0.2,0-0.3,0.1c0,0.1-0.1,0.2,0,0.3C220.5,68.8,220.7,68.9,220.7,69z"/>
		<path class="st0" d="M259,86.7c-0.1,0-0.2,0-0.2,0c-0.1,0-0.2,0.1-0.2,0.1c0,0.1-0.1,0.2-0.1,0.3c0,0.1,0.1,0.3,0.2,0.3
			c0.1,0,0.2,0,0.3,0c0.1-0.1,0.2-0.3,0.2-0.4C259.3,86.9,259.1,86.8,259,86.7z"/>
		<path class="st0" d="M233.4,165.6c0.1,0.1,0.3,0.1,0.4,0.2c0.1,0,0.1,0.2,0.2,0.2c0.1,0,0.2,0,0.3,0c0,0,0.2,0,0.2-0.1
			c0-0.1,0-0.2-0.1-0.2c0-0.1-0.2-0.2-0.3-0.2c-0.1-0.1-0.3-0.2-0.4-0.2c-0.1,0-0.3,0-0.3,0.1C233.4,165.5,233.4,165.6,233.4,165.6z
			"/>
		<path class="st0" d="M238,168.2c0,0.1,0.2,0.2,0.2,0.2c0.1,0,0.2,0,0.3-0.1c0.1,0,0.1-0.2,0.2-0.2c0-0.1,0-0.3,0-0.4
			c0-0.1-0.1-0.2-0.2-0.3c0-0.1-0.1-0.2-0.2-0.3c-0.1,0-0.3-0.1-0.4-0.1c0,0-0.1,0.1-0.1,0.1c0,0.1-0.1,0.2,0,0.3
			c0,0.1,0.2,0.2,0.2,0.3C238.1,167.9,238,168.1,238,168.2z"/>
		<path class="st0" d="M236,165.6c0.1,0.1,0.1,0.2,0.1,0.3c0.1,0.1,0.2,0.2,0.3,0.2c0.1,0,0.1-0.1,0.2-0.1c0.1-0.1,0.1-0.2,0.1-0.3
			c0-0.1,0-0.3,0-0.4c0-0.1,0-0.2-0.1-0.3c-0.1-0.1-0.2-0.1-0.3-0.1c-0.1,0-0.2,0-0.2,0.1c-0.1,0-0.1,0.2-0.2,0.2
			c-0.1,0-0.2-0.1-0.2-0.1c0,0-0.2,0-0.2,0c-0.1,0.1-0.1,0.2,0,0.3c0,0.1,0.1,0.1,0.2,0.2C235.7,165.6,235.9,165.6,236,165.6z"/>
		<path class="st0" d="M232.2,163.6c0.1,0.1,0.3,0.1,0.4,0.2c0,0.1,0,0.2,0,0.3c0.1,0.1,0.3,0.2,0.4,0.2c0.1,0,0.2,0,0.2,0
			c0.1-0.1-0.1-0.3-0.1-0.4c0-0.1,0.2-0.1,0.2-0.2c0-0.1,0-0.2,0-0.3c0-0.1-0.2-0.1-0.3-0.2c0-0.1-0.1-0.2-0.1-0.3
			c0-0.1,0.1-0.2,0.1-0.3c0-0.1,0-0.3-0.1-0.3c-0.1-0.1-0.2-0.1-0.3-0.1c-0.1,0-0.2,0-0.3,0.1c-0.1,0.1-0.2,0.3-0.2,0.4
			c0,0.1,0.1,0.3,0.1,0.4c0,0.1-0.1,0.2-0.1,0.3C232.2,163.3,232.2,163.5,232.2,163.6z"/>
		<path class="st0" d="M220.6,144.6c0.1,0.1,0.3,0.1,0.4,0.2c0.1,0.1,0.3,0.4,0.4,0.3c0.1,0,0.1-0.3,0.1-0.4c0-0.1-0.1-0.2-0.1-0.3
			c0-0.1-0.1-0.3-0.1-0.4c-0.1-0.1-0.3-0.1-0.3-0.2c-0.1-0.1-0.1-0.4-0.1-0.5c0-0.1,0.2-0.2,0.2-0.3c0-0.1,0-0.4-0.1-0.5
			c-0.1,0-0.3,0.1-0.4,0.1c-0.1,0.1-0.1,0.4-0.2,0.5c0,0.1,0,0.4,0.1,0.6c0,0.1,0.2,0.3,0.2,0.4
			C220.7,144.3,220.6,144.5,220.6,144.6z"/>
		<path class="st0" d="M222.3,139.8c-0.1,0-0.2,0-0.3,0c-0.1,0.1-0.1,0.3-0.1,0.4c0,0.1,0,0.4,0,0.5c0,0.1,0.1,0.4,0.1,0.6
			c0,0.1,0.1,0.3,0.1,0.3c0.1,0,0.2-0.1,0.2-0.1c0.1-0.1,0.1-0.3,0.1-0.4c0,0,0-0.1,0.1-0.2c0-0.1,0.1-0.3,0.1-0.3
			c0-0.1-0.1-0.4-0.1-0.5C222.5,140.1,222.4,139.9,222.3,139.8z"/>
		<path class="st0" d="M114.5,117.4c-0.1,0.1-0.1,0.3-0.1,0.4c0,0.1,0,0.3,0.1,0.4c0.1,0.1,0.3,0,0.4,0c0.1,0,0.1-0.2,0.1-0.2
			c0-0.1,0.1-0.3,0.1-0.5c0-0.1-0.1-0.3-0.2-0.3C114.8,117.2,114.6,117.3,114.5,117.4z"/>
		<path class="st0" d="M112.9,121.7c-0.1,0-0.1-0.2-0.2-0.2c-0.1,0-0.3,0-0.4,0c-0.1,0-0.2,0.1-0.3,0.2c-0.1,0.1-0.2,0.4-0.2,0.5
			c0,0.1-0.1,0.5,0,0.6c0.1,0.1,0.3,0.2,0.4,0.2c0.1,0,0.3-0.3,0.4-0.4c0-0.1,0.1-0.2,0.2-0.2c0.1-0.1,0.2-0.1,0.3-0.1
			c0.1-0.1,0.1-0.3,0.1-0.4C113.1,121.8,112.9,121.8,112.9,121.7z"/>
		<path class="st0" d="M119.9,111.8c0-0.1,0.2-0.2,0.2-0.3c0-0.1-0.1-0.2-0.1-0.3c0-0.1-0.1-0.2-0.2-0.3c0-0.1,0.1-0.2,0.1-0.3
			c0,0,0.2,0,0.2,0c0.1,0,0.2-0.2,0.1-0.3c0-0.1-0.2,0-0.3,0c-0.1,0-0.2,0-0.3,0c-0.1,0-0.3-0.2-0.4-0.1c-0.1,0-0.1,0.2-0.2,0.2
			c0,0-0.2,0-0.2,0.1c-0.1,0.1-0.1,0.2-0.2,0.3c0,0.1,0,0.2-0.1,0.3c0,0.1-0.1,0.2-0.2,0.3c0,0.1,0,0.3,0,0.4c0,0.1-0.3,0-0.3,0.1
			c0,0.1,0,0.2,0.1,0.3c0.1,0.1,0.2,0,0.3,0.1c0.1,0.1,0.1,0.3,0.1,0.3c0.1,0.1,0.4,0.1,0.5,0.1c0.1,0,0.2-0.1,0.3-0.1
			c0.1,0,0.3-0.2,0.3-0.3C119.9,112.1,119.8,111.9,119.9,111.8z"/>
		<linearGradient id="SVGID_1_" gradientUnits="userSpaceOnUse" x1="154.5566" y1="197.5025" x2="184.4367" y2="197.5025">
			<stop  offset="0" style="stop-color:#AC2437"/>
			<stop  offset="1" style="stop-color:#AC2437;stop-opacity:0"/>
		</linearGradient>
		<path class="st3" d="M184.4,197.5C184.4,197.6,184.4,197.6,184.4,197.5l-11.1,8.5c0,0-0.5,0.4-0.6,0.6c-0.1,0.1-0.1,0.3-0.1,0.4
			c0,0.1-0.1,0.4-0.1,0.5c0,0.1-0.1,0.3-0.2,0.4c-0.1,0.1-0.4,0.3-0.6,0.4c-0.1,0.1-0.4,0.2-0.6,0.2c-0.2,0.1-0.7,0.2-1,0.2
			c-0.3,0-0.8,0.1-1,0.1c-0.2,0-0.5,0-0.6,0c-0.2,0-0.4-0.2-0.6-0.3c-0.2-0.1-0.6-0.3-0.7-0.4c-0.2-0.1-0.5-0.3-0.7-0.3
			c-0.1,0-0.4-0.1-0.5-0.1c-0.1,0-0.4,0-0.5,0c-0.1,0-0.4,0.2-0.5,0.2c-0.1,0.1-0.4,0.4-0.5,0.5c-0.1,0.1-0.4,0.4-0.5,0.5
			c-0.1,0.1-0.3,0.3-0.4,0.4c-0.1,0.1-0.1,0.3-0.2,0.4c-0.1,0.1-0.2,0.3-0.3,0.4c-0.1,0.1-0.3,0.3-0.5,0.4c-0.1,0.1-0.2,0.1-0.3,0.2
			c-0.1,0.1-0.4,0.2-0.4,0.3c-0.1,0.1-0.1,0.4-0.2,0.5c-0.1,0.1-0.2,0.3-0.3,0.4c-0.1,0.1-0.5,0.1-0.6,0.2c-0.2,0-0.5,0.1-0.6,0.1
			c-0.2,0-0.4,0.2-0.6,0.2c-0.2,0-0.6-0.1-0.8-0.2c-0.2,0-0.6-0.2-0.8-0.2c-0.1,0-0.4,0-0.5,0c-0.1,0-0.4,0-0.4-0.1
			c-0.1-0.1-0.1-0.3-0.2-0.5c0-0.1,0-0.4,0-0.5c0-0.1,0.3-0.4,0.3-0.5c0.1-0.1,0.2-0.3,0.2-0.4c0.1-0.3,0-0.8,0-1.1
			c0-0.2,0-0.6,0-0.7c-0.1-0.2-0.4-0.5-0.6-0.7c-0.2-0.2-0.6-0.6-0.7-0.8c-0.2-0.2-0.5-0.6-0.6-0.7c-0.1-0.1-0.3-0.3-0.4-0.4
			c-0.1-0.1-0.3-0.2-0.4-0.3l0.2-8.9l3.3,0l0.3-11.8l7.4-0.9c0,0,0.3,0.1,0.4,0.1c0.1,0,0.2,0.1,0.3,0.2c0.1,0.1,0.2,0.2,0.2,0.3
			c0,0.1,0,0.3,0,0.5c0,0.1,0,0.3,0,0.3c0,0,0,0.2,0,0.2c0,0,0.2,0,0.2,0c0.1,0,0.3-0.2,0.5-0.3c0.1-0.1,0.3-0.4,0.4-0.5
			c0.1-0.1,0.3-0.2,0.4-0.3c0.1-0.1,0.3-0.5,0.5-0.6c0.1-0.1,0.5,0,0.6,0c0.2,0,0.6-0.1,0.7-0.2c0.1,0,0.3-0.2,0.4-0.3
			c0.1-0.1,0.1-0.2,0.2-0.2c0.1,0,0.2-0.1,0.2-0.1c0.1,0,0.2-0.1,0.3-0.1c0.1,0,0.3-0.1,0.4-0.1c0,0,0.1,0,0.1,0
			c0.1,0.1,0.2,0.2,0.3,0.2c0,0,0,0,0,0c0,0.1,0,0.2,0,0.3c0,0.1,0.2,0.4,0.2,0.5c0.1,0.2,0.3,0.6,0.4,0.7c0.1,0.2,0.4,0.6,0.5,0.7
			c0.1,0.1,0.3,0.2,0.3,0.3c0.1,0.2,0.1,0.5,0.1,0.7c0,0.1,0.1,0.2,0.1,0.3c0.1,0.1,0.3,0.2,0.4,0.3c0.2,0.2,0.4,0.6,0.5,0.8
			c0.2,0.2,0.5,0.7,0.6,0.9c0.1,0.2,0.5,0.6,0.6,0.8c0.1,0.1,0.1,0.3,0.2,0.4c0.1,0.1,0.3,0.2,0.4,0.2c0.1,0,0.3,0.1,0.4,0.2
			c0.1,0,0.3,0,0.4,0.1c0.1,0,0.3,0.2,0.3,0.2c0.1,0.1,0.3,0.2,0.3,0.3c0.1,0.1,0.2,0.3,0.2,0.5c0.1,0.1,0.2,0.3,0.3,0.3
			c0.1,0.1,0.4,0.1,0.5,0.2c0.1,0,0.3,0.2,0.4,0.2c0.1,0.1,0.4,0.3,0.5,0.4c0.1,0.2,0.1,0.5,0.1,0.7c0,0.2-0.1,0.5,0,0.7
			c0,0.2,0,0.6,0.1,0.8c0,0.1,0.1,0.4,0.2,0.6c0.1,0.2,0.3,0.4,0.4,0.6c0.1,0.1,0.3,0.4,0.5,0.5c0.1,0.1,0.3,0.1,0.3,0.2
			c0.1,0,0.4,0,0.6,0c0.2,0,0.5,0,0.6,0c0.1,0,0.3,0.1,0.4,0.2c0.1,0.1,0.4,0.2,0.5,0.2c0.2,0.1,0.6,0.3,0.8,0.5
			C184.2,197.3,184.4,197.4,184.4,197.5z"/>
	</g>
	<line class="st4" x1="167.5" y1="194.7" x2="93.9" y2="162.3"/>
	<rect x="65.7" y="57.3" class="st5" width="137.4" height="56.8"/>
	<text transform="matrix(1 0 0 1 107.9501 67.9835)" class="st6 st7 st8">AFRICA</text>
	<rect y="135.2" class="st5" width="137.4" height="21.5"/>
	<text transform="matrix(1 0 0 1 25.4667 149.8741)" class="st1 st9 st10">Botswana</text>
	<circle class="st11" cx="95.1" cy="161.9" r="2.8"/>
</g>
</svg>
