<?xml version="1.0" encoding="utf-8"?>
<!-- Generator: Adobe Illustrator 23.0.6, SVG Export Plug-In . SVG Version: 6.00 Build 0)  -->
<svg version="1.1" id="chopsticks" xmlns="http://www.w3.org/2000/svg" xmlns:xlink="http://www.w3.org/1999/xlink" x="0px" y="0px"
	 viewBox="0 0 37.2 168.2" style="enable-background:new 0 0 37.2 168.2;" xml:space="preserve">
<style type="text/css">
	.st0{fill:#F9F9FA;}
</style>
<path id="rChopstick" class="st0" d="M6,0.5c1.3,0.8,2.1,2.1,2.1,3.7c0,2.6,0.3,5.5,0.3,8.4c0.5,18.3,0.8,36.9,1.3,55.3
	c0.5,20.2,1,40.3,1.3,60.5c0.3,12.8,0.5,25.7,1,38.8c0,0.8-0.3,1-1,1c-1.6,0-1.6,0-1.8-1.6c-0.8-13.6-1.6-27-2.4-40.6
	C6,111.1,5.2,96.4,4.2,81.5c-1-17.3-2.1-34.8-2.9-52.1C0.8,21,0.5,12.9,0,4.5c0-1.6,0.5-2.6,1.8-3.4C3.4-0.2,4.7-0.2,6,0.5z"/>
<path id="lChopstick" class="st0" d="M35.4,1.1c1.3,1,1.8,2.4,1.8,3.7c0,2.6-0.3,5.5-0.5,8.1c-1.3,18.3-2.6,36.7-3.7,55.3
	c-1.3,20.2-2.9,40.1-4.2,60.3c-0.8,12.8-1.8,25.7-2.6,38.5c0,0.8-0.3,0.8-1,0.8c-1.6,0-1.6,0-1.6-1.8c0.5-13.6,1-27,1.6-40.6
	c0.5-14.9,1-29.6,1.6-44.5c0.5-17.3,1.3-34.8,1.8-52.1c0.3-8.4,0.5-16.5,0.8-24.9c0-1.6,0.8-2.6,2.1-3.1C32.8,0,34.1,0.3,35.4,1.1z"
	/>
</svg>
