<?xml version="1.0" encoding="utf-8"?>
<!-- Generator: Adobe Illustrator 23.0.6, SVG Export Plug-In . SVG Version: 6.00 Build 0)  -->
<svg version="1.1" id="elephant_x5F_icon_x5F_2" xmlns="http://www.w3.org/2000/svg" xmlns:xlink="http://www.w3.org/1999/xlink"
	 x="0px" y="0px" viewBox="0 0 578 176.3" style="enable-background:new 0 0 578 176.3;" xml:space="preserve">
<style type="text/css">
	.st0{fill:url(#gr_x5F_border_1_);}
	.st1{fill:#FFFFFF;}
	.st2{fill:#AD2537;}
	.st3{fill:#F9F9FA;}
</style>
<linearGradient id="gr_x5F_border_1_" gradientUnits="userSpaceOnUse" x1="904.8599" y1="-942.1163" x2="446.9058" y2="-942.1163" gradientTransform="matrix(-1 0 0 -1 1021.3946 -839.5163)">
	<stop  offset="0" style="stop-color:#AD2537"/>
	<stop  offset="1" style="stop-color:#AD2537;stop-opacity:0"/>
</linearGradient>
<path id="gr_x5F_border" class="st0" d="M141.6,56.5h397.1c18.8,0,34,20.6,34,46.1l0,0c0,25.5-15.2,46.1-34,46.1H141.6
	c-18.8,0-34-20.6-34-46.1l0,0C107.7,77.1,122.9,56.5,141.6,56.5z"/>
<g id="red_x5F_circle">
	<ellipse class="st1" cx="87.1" cy="88.1" rx="87.1" ry="88.1"/>
	<ellipse class="st2" cx="87.1" cy="88.1" rx="58.5" ry="59.2"/>
</g>
<g id="white_x5F_elephant">
	<path id="elephant_1_" class="st3" d="M51.9,93.5c0,0,0-0.3,0.1-0.7c0,0.3,0,0.6,0.1,1c0-0.2-0.1-0.6,0-1.2v0.1c0,0,0-0.3,0.1-0.6
		c0,0.1,0,0.2,0,0.4c0,0.1,0,0.1,0,0.2c0,0,0,0,0-0.1l0,0c0,0.3,0,0.6,0.1,0.9c0,0,0-0.1,0-0.4l0,0l0,0c0,0,0-0.1,0-0.2l0,0
		c0,0.1,0,0.1,0,0.1v-0.1c0,0,0-0.1,0.1-0.1c0,0,0,0.1-0.1,0.1c0,0,0.1-0.1,0.2-0.3c0,0.1,0,0.1,0,0.1s0-0.1,0-0.2l0,0
		c0,0,0-0.1,0.1-0.1c0,0.1,0,0.1,0,0.2v0.2C52.4,93,52.4,93,52.4,93c0.1,0,0.1-0.1,0.2-0.1l0,0l0,0l0,0l0,0c0,0.1-0.1,0.1-0.1,0.1
		s0,0,0.1-0.1V93c0,0,0-0.1,0.1-0.1l0,0V93c0,0,0,0,0-0.1l0,0l-0.2,1c0,0,0.2-0.5,0.4-1.1c0.1-0.1,0.2-0.2,0.2-0.3
		c0.7-0.9,0.6-2,0.5-2.5c0-0.1,0-0.1,0-0.2c0.3,1.5-0.6,2.9-0.6,2.9c0.3-0.4,0.5-0.8,0.6-1.2c-0.1,0.4-0.2,0.7-0.3,0.9
		c-0.1,0.2-0.3,0.4-0.3,0.4c0.1-0.1,0.1-0.1,0.2-0.2c-0.1,0.1-0.1,0.2-0.1,0.2c0.1-0.1,0.1-0.2,0.2-0.2c1.2-1.4,0.5-2.8,0.3-3
		c0,0,0,0,0-0.1c0.1-0.6,0.2-1.5-0.2-3c-0.5-2,0.2-4.9,1-6.8c0,0.1,0,0.3,0,0.4c0,0.2,0,0.4,0,0.6c0.2,2.2,1.2,4.7,1.5,6.5l0,0
		c0,0,0,0.1,0,0.2s0,0.2,0,0.4c0,0.1,0,0.2,0.1,0.3v0.1l0,0c0,0.3,0,0.5,0,0.8c-0.2,1-0.5,2.4-0.8,4.3l0,0v-0.1c0,0,0,0,0,0.1
		s-0.1,0.2-0.1,0.4v0.1c-0.2,0.8,0,1.5-0.4,1.9l0,0h0.1c0,0,0,0.2,0,0.4v0.1c-0.3,1.2-1,2.6-1.6,3.2c-0.4,0.5-0.7,1.9-0.6,2.7
		c0,0.3,0.2,0.5,0.3,0.5c0.3,0.3,2.1,1,4.3,1.1l0,0c0,0-0.3,0.2-0.2,0.2c0.2,0,0.1,0.2,0.2,0.2l0,0h-0.1l0.1-0.4l0,0
		c0.4,0,0.2,0,0.4,0l0,0c0.1,0,0.1-0.1,0.2-0.1c0.6,0,1.3-0.3,1.6-0.3l0,0c0.3,0,0.2,0.1,0.2,0.1v0.1c0.1,0,0.3,0,0.3,0l0,0
		c0.4-0.1,0.4-0.2,0.9-0.3l0,0c0,0-0.3,0-0.2,0h-0.2c0,0,0,0,0-0.1l0,0c0,0,0,0,0-0.1l0,0v-0.1l0,0v-0.1l0,0v-0.1l0,0
		c0,0,0-0.1-0.1-0.1l0,0c-0.3-0.6-0.5-1.1-0.5-2.1c0-0.6,0-1.2,0.2-2.1c0.3-1.3,0.6-2.6,1.2-3.5h-0.1c0.1-0.1-0.1-0.2-0.1-0.2l0,0
		c0.9-0.3,0.6-0.5,0.9-0.7c0,0,0.3,0,0.3-0.1c0.1-0.1,0.2-0.1,0.3-0.2c0,0,0.1,0,0.1-0.1c0.2-0.1,0.4-0.2,0.6-0.2l0,0l0,0l0,0
		c0,0,0.1,0.2,0.3,0.6c0,0.1,0.1,0.2,0.1,0.4c0,0.1,0.1,0.1,0.1,0.2l0,0c0.3,0.8,0.7,1.9,0.7,2.7v0.1c0,1.3-0.2,5.1,1.1,6.2
		c0,0,1.3,0.3,2.7,0.2l0,0v-0.1l0.5-0.1l0,0c0.4,0,0.8,0,1.3-0.1h-0.1c0.1,0,0.2,0,0.2,0l0,0c0,0,0.7-0.1,0.9-0.2
		c0,0,0.4-0.1,0.3-0.6l0,0c0-0.1-0.1-0.2-0.1-0.4l0,0l0,0c-0.4-0.7-1.6-2.2-1.9-4.2l0,0c0-0.1,0-0.3-0.1-0.5c0-0.1,0-0.1,0-0.2
		s0-0.2,0-0.3c0-0.4,0-0.8,0.1-1.2v-0.1v-0.1v-0.1c0-0.1,0-0.1,0-0.2c0,0,0,0,0-0.1c0.2-0.9,0.4-1.6,0.6-2.2c0-0.1,0-0.1,0.1-0.2
		c0.2-0.4,0.3-0.7,0.4-1l0.3-0.5c0.1-0.1,0.1-0.2,0.1-0.2l0,0l0,0c0,0,3.7,1.2,10.1,0.2c0,0,0,0-0.1,0c0,0,0.1,0,0.3,0
		c1.5-0.3,3.2-0.7,5.1-1.2l0,0c0,0,0.1,1.3,0.5,2.1l0,0l0,0c0,0.2-0.1,1.2-0.1,2.6c0,0.4,0,0.7,0.1,1.1c0,0.3,0,0.5,0,0.8
		c0.1,2-0.1,4.2-0.3,4.5c-0.1,0.2-0.4,0.8-0.3,1.3c0,0.5,0.4,0.9,1.3,0.9c1,0,2.3,0,3.6,0l0,0c0.4,0,0.9,0.1,1.4,0.1l0,0
		c0.2,0,0.3-0.1,0.4-0.1l0.1-0.1c0,0,0,0,0.1,0s0.1,0,0.2,0c0.6,0,0.9-0.4,0.6-1l0,0c0-0.1-0.1-0.1-0.1-0.2
		c-0.1-0.1-0.1-0.1-0.2-0.2c-0.8-0.8-1.4-1.4-1.4-3l0,0l0,0v-0.1c0-0.1,0-0.1,0-0.2l0,0l0,0c0-0.1,0-0.1,0-0.2s0-0.3,0-0.5
		c0,0,0,0,0-0.1s0-0.3,0-0.4c0.2-1.5,0.7-3.3,1.3-4.6l0,0l0,0c0.1-0.3,0.3-0.5,0.4-0.7l0,0l0,0c0-0.2,0.2-0.3,0.3-0.4l0,0l0,0l0,0
		L94,92c0.2,0.3,0.5,0.7,0.9,1l0,0l0,0l0,0l0,0l0,0c0.3,0.2,0.7,0.5,1,0.7v0.1v0.1l0,0c0.7,0.4,1.5,0.7,1.8,0.9
		c0.6,0.4,1.4,0.8,1.6,1.7l0.1,0.1l0,0h-0.1c0,0.2-0.1,0.5-0.1,0.7c0,0.1,0,0.2,0,0.3l0,0l0,0l0,0c-0.1,1.3,0.1,3.7-0.1,4.2
		c-0.2,0.6-0.9,1.8,0.9,1.8c0.8,0,2-0.1,3.2-0.2l0,0l0,0c0.4,0,0.4,0,0.4,0l0,0c0.9-0.1,0.8-0.1,1.2-0.2l0,0c0.2,0,0.6-0.1,0.6-0.1
		l0,0c0.4-0.1,0.6-0.1,0.8-0.1c0.4-0.1,0.5-0.5,0.3-0.9v0.1c0-0.1-0.1-0.2-0.1-0.2l0,0l-0.1-0.2c-0.2-0.4-0.6-0.9-0.9-1.2
		c-0.9-0.8-1.3-3.8-1.5-5.5s-1.1-2.3-2.5-4c-1-1.3-2.3-3-2.7-4.3l0,0c-0.2-0.4-0.2-0.8-0.1-1.2c0.5-0.4,1-1,1.2-1.6s0.3-1.1,0.4-1.7
		c0-0.1,0-0.2,0-0.2c0.1-0.4,0.2-0.8,0.3-1.1c0,0,0,0,0-0.1c0,0,0-0.1,0.1-0.1l0,0c0.2-0.2,0.5-0.4,0.9-0.3c0.2,0.1,0.3,0.2,0.5,0.2
		c0,0,0.5,0.2,1,0.2c0.1,0,0.2,0.1,0.3,0.1c0.1,0,0.2,0,0.3,0c0,0,0.1,0.2,1,0.2l0,0l0,0c0,0,0.9,0.8,1.3,0.9
		c0.5,0.1,0.6-0.2,0.6-0.2l0,0l0,0c0,0,0,0,0.1,0l0,0c0,0,0.1,0,0.1,0.1l0,0c0,0,0.1,0,0.1,0.1l0,0c0.1,0,0.1,0.1,0.2,0.1l0,0
		c0.1,0,0.1,0.1,0.2,0.1c0,0,0,0,0.1,0s0.2,0.1,0.3,0.1l0,0c0.1,0,0.2,0.1,0.3,0.1c0,0,0,0,0.1,0c0.2,0.1,0.5,0.2,0.8,0.3h0.1
		c0.2,0,0.3,0.1,0.5,0.1l0,0c0.3,0.1,0.6,0.1,0.9,0.2c0.1,0.7,0.1,1.7,0,3.1l0,0l0,0l0,0c-0.1,0.7-0.2,1.5-0.4,2.4
		c-1,3.7-1,8,0.3,10.5s4.1,3.9,7,3.8s3.8-1.6,4-1.9s0.4-0.9,0.8-0.9s0.3-0.8-0.8-0.8c-0.1,0-0.2,0-0.3,0h-0.1
		c-0.8-0.1-1.1-0.3-1.4-0.6c-0.3-0.4-1.3-0.1-0.8,0.7c0.5,0.8,0,1.4-1,1.3c-0.2,0-0.6-0.1-1-0.2l0,0l0,0l0,0l0,0
		c-0.2,0-0.4-0.1-0.6-0.2l0,0l0,0l0,0c-0.4,0-1-0.5-1.4-0.8l0,0l0,0c-0.1,0-0.2-0.2-0.4-0.4l0,0l0,0l0,0c-0.5-0.4-0.9-1.1-1.1-2
		c0-0.2,0-0.3,0-0.4h0.1h0.1l0,0c0-0.6-0.2-1.3-0.1-1.9h-0.1l0,0l0,0c0-0.2,0.1-0.4,0.1-0.5l0,0l0,0l-0.1,0.1c0-0.2,0.1-0.5,0.1-0.5
		l0,0v-0.1c0.1-0.8,0.4-1.6,0.6-2.2h0.1l0,0h-0.1c0-0.1,0-0.3,0.1-0.4l0,0h0.1l0,0c0-0.6,0.3-1.2,0.5-1.6c0.1-0.3,0.2-0.6,0.4-1.1
		h0.1l0,0v0.1l0,0c0,0,0-0.1-0.1-0.1v-0.1c0.1-0.2,0.2-0.4,0.3-0.6l0,0l0,0l0,0c0.3-0.5,0.7-1.5,1-2.3l0,0c0-0.1,0-0.1,0.1-0.2
		c0-0.1,0.1-0.2,0.1-0.2c0-0.1,0.1-0.2,0.1-0.4l0,0l0,0l0,0l0,0v-0.1c0-0.2,0.1-0.3,0.1-0.5l0,0l0,0V84c0-0.1,0-0.2,0.1-0.3l0,0v0.1
		l0,0v-0.2v-0.1l0,0c0,0,0,0,0-0.1s0-0.2,0-0.2l0,0c0.4-0.1,0.9-0.3,1.3-0.5c1.9-0.8,2.4-1.7,2.5-2.3l0,0c0,0,0,0,0-0.1
		c0,0,0,0,0-0.1l0,0c0,0,0,0,0-0.1l0,0c0-0.1,0-0.1-0.1-0.1c-0.2-0.2-0.9,1.2-3.8,1.6c0,0,0-0.1,0-0.3c0.4-0.1,0.9-0.2,1.3-0.4
		c2.3-0.8,2.5-2,2.3-2.3c-0.2-0.2-0.9,1-3.4,1.2c-0.1,0-0.1,0-0.2,0c0-0.2,0-0.4-0.1-0.6l0,0l0,0l0,0c-0.1-0.4-0.1-0.6-0.2-0.8v-0.1
		l0,0l0,0c-0.1-0.2-0.1-0.3-0.2-0.5c-0.1-0.1-0.1-0.3-0.2-0.4l0,0v-0.1l0,0c-0.1,0-0.2-0.4-0.4-0.6v0.1l0,0l0,0
		c-0.2-0.3-0.3-0.6-0.5-0.9l0,0l0,0l0,0c-0.4-0.6-0.8-1.2-1.2-1.8l0,0l0,0l0,0c-0.3-0.4-0.7-0.8-1-1.2l0,0l0,0l0,0
		c-0.2-0.2-0.4-0.4-0.6-0.6l0,0l0,0l0,0c-0.4-0.4-0.8-0.6-1.3-0.8c-2.1-0.9-3.6-3.1-4.6-4.4c-0.9-1.4-1.8-3-4.8-2.4
		c-1.8,0.4-2.8,0.6-3.8,0.6h-0.1c-0.5,0-1-0.1-1.6-0.2l0,0c-0.1,0-0.1,0-0.1,0h-0.1l0,0c-0.1,0-0.2-0.1-0.3-0.1
		c-0.2-0.1-0.5-0.1-0.7-0.2l0,0c-0.1,0-0.1,0-0.2-0.1c-0.1,0-0.1,0-0.2,0s-0.1,0-0.1,0l0,0l0,0h-0.1c-1.8-0.4-3.4-0.3-4.7,0.7
		c-0.5,0.3-1.1,0.8-1.9,1.3c-0.1,0,0,0-0.1,0c-2.1,0.2-2.8,0.8-4,1.2l0,0h-0.1c0,0-0.2,0-0.4,0.1c-0.1,0-0.2,0-0.3,0.1
		c-0.1,0-0.2,0-0.2,0.1c-0.6,0.1-1.3,0.1-2.3,0c-0.1,0-0.2,0-0.3,0c-0.5,0-1.1-0.1-1.7-0.2c-1.2-0.1-2.4-0.3-3.7-0.3l0,0l0,0
		c-1.7-0.1-3.7-0.1-6.1,0.1c-5.2,0.5-9.3,0.9-10.5,2.7c-1.3,1.7-1.6,3.2-2.1,3.8c-0.1,0.2-0.3,0.5-0.5,1c-0.6,1.1-1.1,2.3-1.5,3.3
		c-0.8,2.1-1.1,4.4-0.9,6.6c0,0.5,0.1,1,0.3,1.5c0.4,1.4,0.4,2.6,0.3,3.2c0,0-0.2,0.2-0.3,0.5l0,0c-0.2,0.3-0.6,0.9-0.8,1.5l0,0
		c-0.2,0.4-0.3,0.9-0.3,1.3C51.8,93.1,51.9,93.3,51.9,93.5z M70.5,91.4L70.5,91.4L70.5,91.4L70.5,91.4z M53.3,89.8
		c0,0,0,0.1-0.1,0.2C53.2,89.9,53.3,89.8,53.3,89.8C53.3,89.7,53.3,89.8,53.3,89.8z M53.3,89.6c0,0-0.1,0.2-0.3,0.6
		c-0.1,0.1-0.1,0.3-0.2,0.4c-0.1,0.1-0.1,0.1-0.2,0.2c0.1-0.2,0.1-0.4,0.2-0.6C53,90.1,53.2,89.8,53.3,89.6L53.3,89.6z M53.3,90.1
		L53.3,90.1L53.3,90.1L53.3,90.1L53.3,90.1z M52.9,91.5c0.1-0.2,0.1-0.4,0.2-0.6c0-0.1,0.1-0.2,0.1-0.3l0,0L53,90.9L52.9,91.5z
		 M53.3,89.6C53.3,89.7,53.3,89.7,53.3,89.6c0,0.1-0.1,0.1-0.1,0.2C53.2,89.8,53.3,89.7,53.3,89.6z M53.4,89.7L53.4,89.7L53.4,89.7
		C53.4,89.8,53.4,89.8,53.4,89.7C53.4,89.8,53.4,89.8,53.4,89.7L53.4,89.7L53.4,89.7z M52.8,92.6c0.1-0.2,0.1-0.4,0.2-0.7
		c0.2-0.3,0.3-0.7,0.4-1.1C53.3,91.6,53,92.2,52.8,92.6L52.8,92.6z M52.6,92.4c0-0.1,0.1-0.3,0.1-0.4C52.7,92.1,52.6,92.2,52.6,92.4
		L52.6,92.4z M52.5,92.5C52.5,92.5,52.5,92.6,52.5,92.5c0-0.2,0-0.8,0.3-1.7l0,0l0.1-0.1C52.6,91.7,52.5,92.2,52.5,92.5z M53.2,89.7
		c0-0.1,0.1-0.1,0.1-0.2C53.3,89.5,53.3,89.5,53.2,89.7C53.3,89.6,53.3,89.7,53.2,89.7z M53.3,89.9c0,0.1-0.1,0.2-0.1,0.3
		c-0.1,0.1-0.1,0.2-0.2,0.3c0,0,0,0,0-0.1C53.1,90.2,53.2,90,53.3,89.9C53.3,89.8,53.3,89.8,53.3,89.9z M53.4,89.7L53.4,89.7
		L53.4,89.7L53.4,89.7z M53.4,89.6L53.4,89.6L53.4,89.6L53.4,89.6L53.4,89.6C53.4,89.7,53.4,89.7,53.4,89.6
		C53.4,89.7,53.4,89.7,53.4,89.6L53.4,89.6z M52.6,92.8C52.6,92.8,52.6,92.7,52.6,92.8L52.6,92.8L52.6,92.8c0-0.1,0.1-0.2,0.1-0.2
		L52.6,92.8L52.6,92.8z M52.6,92.8L52.6,92.8L52.6,92.8L52.6,92.8z M52.5,92.7L52.5,92.7C52.5,92.6,52.5,92.6,52.5,92.7
		C52.5,92.6,52.5,92.6,52.5,92.7C52.5,92.6,52.5,92.7,52.5,92.7z M52.4,92.7C52.4,92.7,52.4,92.8,52.4,92.7
		C52.4,92.8,52.4,92.8,52.4,92.7L52.4,92.7L52.4,92.7z M52.4,92.7c0-0.1,0-0.1,0-0.2C52.4,92.5,52.4,92.6,52.4,92.7
		C52.4,92.6,52.4,92.7,52.4,92.7z M52.4,92.7L52.4,92.7C52.3,92.8,52.3,92.8,52.4,92.7c-0.1-0.1-0.1-0.2,0-0.3
		C52.3,92.5,52.4,92.6,52.4,92.7z M52.3,92.8L52.3,92.8L52.3,92.8L52.3,92.8z M53.3,89.5L53.3,89.5c0,0.1-0.1,0.1-0.1,0.2
		C53.2,89.6,53.3,89.6,53.3,89.5z M53.6,91.4c0.2-0.8,0-1.4-0.1-1.7l0,0C53.7,90.3,53.7,90.9,53.6,91.4z M53.4,89.8L53.4,89.8
		c0-0.1,0-0.2,0-0.3c0,0,0,0,0,0.1C53.5,89.7,53.4,89.8,53.4,89.8z M52.6,92.9L52.6,92.9C52.6,92.8,52.6,92.8,52.6,92.9L52.6,92.9
		L52.6,92.9z M52.6,92.9L52.6,92.9L52.6,92.9C52.6,92.9,52.5,92.9,52.6,92.9C52.5,92.9,52.6,92.9,52.6,92.9z M52.6,92.9L52.6,92.9
		L52.6,92.9L52.6,92.9L52.6,92.9z M52.3,93L52.3,93L52.3,93C52.3,92.9,52.3,92.9,52.3,93C52.3,92.9,52.3,92.9,52.3,93l0.1-0.2l0,0
		C52.4,92.8,52.3,92.9,52.3,93C52.3,92.9,52.3,92.9,52.3,93C52.3,92.9,52.3,92.9,52.3,93C52.3,92.9,52.3,93,52.3,93z"/>
</g>
</svg>
