<?xml version="1.0" encoding="utf-8"?>
<!-- Generator: Adobe Illustrator 23.0.6, SVG Export Plug-In . SVG Version: 6.00 Build 0)  -->
<svg version="1.1" id="figuerines" xmlns="http://www.w3.org/2000/svg" xmlns:xlink="http://www.w3.org/1999/xlink" x="0px" y="0px"
	 viewBox="0 0 60.8 165.4" style="enable-background:new 0 0 60.8 165.4;" xml:space="preserve">
<style type="text/css">
	.st0{fill:#F9F9FA;}
</style>
<path id="chees" class="st0" d="M60.8,142.1C60.8,142.1,60.8,142.3,60.8,142.1c-0.2-4.8-4.8-9.3-11.9-12.1
	c-1.9-8.1-6.4-30.2-6.9-53.9c0-4.8,0.7-10.5,1.2-15.9c0.2,0,0.2-0.2,0.5-0.2l0,0l0,0c1.2-1,1.9-1.9,1.9-3.1v-4.5l0,0l0,0
	c0-1.2-1-2.1-2.6-3.1v-2.6l0,0l0,0l0,0c0.2-0.2,0.5-0.2,0.7-0.5l0,0l0,0c1.2-1,1.7-1.9,1.7-2.9c0,0,1.9-12.8,4.3-20.2
	c0.2-0.2,0.5-0.7,0.5-1.2c0-1-1-1.7-2.6-2.4c-1.7-3.1-7.4-5.2-14.5-5.7l-0.5-3.3l4.8,1V6.2l-1-0.7l-3.6,0.7l1-5.5l-1-0.7h-5l1,6.2
	l-4.3-1v5l1,0.7l3.1-0.7c0,0.7-0.2,1.9-0.2,3.1c-7.1,0.5-13.1,2.6-15,5.7c-1.7,0.7-2.6,1.7-2.6,2.4c0,0.5,0.2,0.7,0.5,1.2l0,0
	c2.1,5,4.3,20.2,4.3,20.2c0,1.2,1,2.4,2.6,3.3l0,0l0,0l0,0v2.6c-1.7,1-2.6,1.9-2.6,3.1l0,0l0,0v4.5c0,1.2,1,2.4,2.4,3.3
	c0.5,5.5,1.2,10.9,1.2,15.4c-0.2,26.4-5.2,46.6-7.1,54.4c-7.1,2.9-11.6,7.4-11.9,12.4v-0.2l0,0v5l0,0c0,3.1,1.7,5.9,4.5,8.3
	c1.9,5.9,12.8,10.5,25.9,10.5c13.5,0,24.7-5,26.1-11.2c2.4-2.4,3.8-5,3.8-7.6l0,0L60.8,142.1L60.8,142.1z M32.3,26.9L32.3,26.9
	L32.3,26.9z M34,26.9L34,26.9L34,26.9z M35.6,26.6C35.9,26.6,35.9,26.6,35.6,26.6C35.9,26.6,35.9,26.6,35.6,26.6z M37.3,26.6
	L37.3,26.6L37.3,26.6z M38.7,26.4C38.7,26.4,39,26.4,38.7,26.4C39,26.4,38.7,26.4,38.7,26.4z M40.2,26.1
	C40.4,26.1,40.4,26.1,40.2,26.1C40.4,26.1,40.4,26.1,40.2,26.1z M29.2,26.9L29.2,26.9C29,26.9,29,26.9,29.2,26.9z M27.6,26.9
	L27.6,26.9C27.3,26.9,27.3,26.9,27.6,26.9z M25.7,26.6L25.7,26.6L25.7,26.6z M24.2,26.6L24.2,26.6L24.2,26.6z M22.8,26.4
	C22.6,26.4,22.6,26.4,22.8,26.4C22.6,26.4,22.6,26.4,22.8,26.4z M21.1,26.1L21.1,26.1L21.1,26.1z M14.3,24.5L14.3,24.5L14.3,24.5z
	 M15.2,25L15.2,25L15.2,25z M48,24L48,24L48,24z M12.1,23.3L12.1,23.3L12.1,23.3z"/>
</svg>
