<?xml version="1.0" encoding="utf-8"?>
<!-- Generator: Adobe Illustrator 23.0.6, SVG Export Plug-In . SVG Version: 6.00 Build 0)  -->
<svg version="1.1" id="savanna_x5F_elep" xmlns="http://www.w3.org/2000/svg" xmlns:xlink="http://www.w3.org/1999/xlink" x="0px"
	 y="0px" viewBox="0 0 593 173.8" style="enable-background:new 0 0 593 173.8;" xml:space="preserve">
<style type="text/css">
	.st0{fill:url(#bg_x5F_border_1_);}
	.st1{fill:#F9F9FA;}
	.st2{enable-background:new    ;}
	.st3{fill:#FFFFFF;}
</style>
<linearGradient id="bg_x5F_border_1_" gradientUnits="userSpaceOnUse" x1="0" y1="-1281.1" x2="592.9647" y2="-1281.1" gradientTransform="matrix(1 0 0 1 0 1368)">
	<stop  offset="0" style="stop-color:#AD2537"/>
	<stop  offset="1" style="stop-color:#AD2537;stop-opacity:0"/>
</linearGradient>
<path id="bg_x5F_border" class="st0" d="M552.1,173.8H40.9C18.4,173.8,0,155.4,0,132.9v-92C0,18.4,18.4,0,40.9,0h511.2
	C574.6,0,593,18.4,593,40.9v92C593,155.4,574.6,173.8,552.1,173.8z"/>
<g id="elephant">
	<path id="elephant_1_" class="st1" d="M395.3,108.4c0,0,0-0.7,0-1.7c0,0.7,0,1.7,0.3,2.7c0-0.7-0.3-1.7,0-3.1v0.3
		c0,0,0-0.7,0.3-1.7c0,0.3,0,0.7,0,1v0.3c0,0,0,0,0-0.3l0,0c0,1,0,1.7,0.3,2.4c0,0,0-0.3,0-1l0,0l0,0V107l0,0c0,0.3,0,0.3,0,0.3V107
		c0,0,0,0,0-0.3c0,0,0,0,0,0.3c0,0,0.3-0.3,0.3-0.7c0,0.3,0,0.3,0,0.3v-0.3l0,0c0,0,0,0,0-0.3c0,0.3,0,0.3,0,0.3v0.3
		c-0.3,0.3-0.3,0.3-0.3,0.3l0.3-0.3l0,0l0,0l0,0l0,0l-0.3,0.3c0,0,0,0,0.3-0.3v0.3c0,0,0,0,0-0.3l0,0v0.3c0,0,0,0,0-0.3l0,0
		l-0.7,2.7c0,0,0.3-1.4,1-3.1c0.3-0.3,0.3-0.7,0.7-0.7c1.7-2.4,1.4-5.1,1.4-6.5c0-0.3,0-0.3,0-0.3c0.7,4.1-1.4,7.5-1.4,7.5
		c0.7-1,1-2,1.4-3.1c-0.3,1-0.7,2-0.7,2.4c-0.3,0.7-0.7,1-0.7,1c0-0.3,0.3-0.3,0.3-0.7c0,0.3-0.3,0.3-0.3,0.3c0-0.3,0.3-0.3,0.3-0.7
		c3.1-3.7,1.4-7.5,0.7-8.2c0,0,0,0,0-0.3c0.3-1.4,0.3-4.1-0.3-7.8c-1-5.1,0.3-12.9,2.4-18.1c0,0.3,0,0.7,0,1c0,0.3,0,1,0,1.4
		c0.7,5.8,2.7,12.3,3.7,17.4l0,0c0,0,0,0,0,0.3c0,0.3,0,0.7,0,1c0,0.3,0,0.3,0,0.7v0.3l0,0c0,0.7,0,1.4,0,2c-0.3,2.7-1,6.5-1.7,11.6
		l0,0v-0.3c0,0,0,0,0,0.3c0,0.3,0,0.7-0.3,1v0.3c-0.3,2,0,4.1-1,5.1l0,0l0,0c0,0,0,0.3,0,1v0.3c-0.7,3.1-2.4,6.8-3.7,8.5
		c-1,1.4-1.7,5.1-1.7,7.2c0,0.7,0.3,1.4,0.7,1.4c0.7,0.7,5.1,2.4,10.6,3.1l0,0l-0.7,0.3c0.3,0,0,0.7,0.7,0.7l0,0l0,0v-1l0,0
		c1,0,0.7,0,1,0l0,0l0.3-0.3c1.7,0,3.1-0.7,3.7-0.7l0,0c0.7,0,0.3,0.3,0.7,0.3v0.3h0.7l0,0c1-0.3,1-0.3,2-0.7l0,0h-0.7h-0.7l0,0l0,0
		c0,0,0,0,0-0.3l0,0v-0.3l0,0c0,0,0,0,0-0.3l0,0c0,0,0,0,0-0.3l0,0v-0.3l0,0c-0.7-1.4-1.4-3.1-1.4-5.5c0-1.4,0-3.1,0.7-5.5
		c0.7-3.4,1.4-6.8,3.1-9.5h-0.3c0.3-0.3,0-0.3,0-0.3l0,0c2-0.7,1.4-1.4,2-1.7c0,0,0.7,0,0.7-0.3c0.3-0.3,0.7-0.3,0.7-0.3h0.3
		c0.3-0.3,1-0.7,1.7-0.7l0,0l0,0l0,0c0,0,0.3,0.7,0.7,1.7c0,0.3,0,0.7,0.3,1c0,0,0,0.3,0.3,0.7l0,0c0.7,2,1.7,5.1,1.7,7.2v0.3
		c0,3.4-0.3,13.6,2.7,16.4c0,0,3.1,0.7,6.5,0.7l0,0V136l1.4-0.3l0,0c1,0,2,0,3.1-0.3h-0.3h0.3l0,0c0,0,1.7-0.3,2.4-0.7
		c0,0,1,0,0.7-1.7l0,0c0-0.3,0-0.7-0.3-1l0,0l0,0c-1-2-3.7-5.8-4.8-11.2l0,0c0-0.3,0-0.7,0-1.4c0-0.3,0-0.3,0-0.7s0-0.7,0-0.7
		c0-1,0-2,0-3.1v-0.3c0,0,0,0,0-0.3v-0.3c0-0.3,0-0.3,0-0.3l0,0c0.3-2.4,1-4.4,1.4-5.8c0-0.3,0-0.3,0-0.3c0.3-1,0.7-2,1-2.4l0.7-1.4
		c0-0.3,0.3-0.3,0.3-0.3l0,0l0,0c0,0,8.9,3.1,24.5,0.3c0,0,0,0-0.3,0c0,0,0.3,0,0.7,0c3.7-0.7,7.8-1.7,12.3-3.4l0,0c0,0,0,3.4,1,5.8
		l0,0l0,0c0,0.3-0.3,3.4,0,7.2c0,1,0,2,0,3.1c0,0.7,0,1.4,0,2c0,5.1-0.3,11.2-0.7,11.9c-0.3,0.3-1,2-0.7,3.4c0,1.4,1,2.4,3.1,2.4
		c2.4,0,5.5,0,8.9,0l0,0c1,0,2.4,0.3,3.4,0.3l0,0c0.3,0,0.7-0.3,1-0.3l0.3-0.3l0,0h0.3c1.4,0,2.4-1,1.4-2.7l0,0
		c0-0.3-0.3-0.3-0.3-0.7c0-0.3-0.3-0.3-0.3-0.7c-2-2.4-3.4-3.7-3.4-8.2l0,0l0,0V123v-0.3l0,0l0,0v-0.3c0-0.3,0-0.7,0-1.4l0,0
		c0-0.3,0-0.7,0-1c0.3-3.7,1.7-8.5,3.4-11.9l0,0l0,0c0.3-0.7,0.7-1.4,1-2l0,0l0,0c0-0.3,0.7-0.7,0.7-1l0,0l0,0l0,0l0.3,0.3
		c0.3,1,1.4,1.7,2.4,2.4l0,0l0,0l0,0l0,0l0,0c0.7,0.7,1.7,1.4,2.4,1.7l0,0v0.3l0,0c1.7,1,3.4,1.7,4.4,2.4c1.4,1,3.4,2.4,3.7,4.4
		l0.3,0.3l0,0h-0.3c0,0.7-0.3,1.4-0.3,1.7s0,0.7,0,0.7l0,0l0,0l0,0c-0.3,3.4,0.3,9.9,0,11.2c-0.3,1.7-2.4,4.8,2,4.8
		c2,0,4.8-0.3,7.8-0.3l0,0l0,0c1,0,1,0,1,0l0,0c2,0,2-0.3,3.1-0.3l0,0c0.3,0,1.4,0,1.4-0.3l0,0c1,0,1.4-0.3,1.7-0.3
		c1-0.3,1-1.4,0.7-2.4v0.3c0-0.3-0.3-0.7-0.3-0.7l0,0c0,0,0-0.3-0.3-0.3c-0.7-1-1.4-2.4-2.4-3.4c-2-2-3.1-9.9-3.7-14.7
		c-0.7-4.4-2.7-6.1-6.1-10.6c-2.4-3.4-5.5-7.8-6.5-11.6l0,0c-0.3-1-0.3-2.4-0.3-3.1c1.4-1,2.4-2.7,3.1-4.4c0.7-1.4,0.7-3.1,1-4.4
		c0-0.3,0-0.3,0-0.7c0.3-1,0.3-2.4,0.7-3.1l0,0c0,0,0-0.3,0.3-0.3l0,0c0.3-0.7,1-1,2.4-0.7c0.3,0.3,0.7,0.3,1.4,0.7
		c0,0,1.4,0.7,2.4,0.7c0,0,0.3,0,0.7,0.3c0.3,0,0.3,0,0.7,0c0,0,0.3,0.7,2.4,0.7l0,0l0,0c0,0,2,2,3.4,2.4c1,0.3,1.4-0.7,1.4-0.7l0,0
		l0,0l0,0l0,0c0,0,0,0,0.3,0.3l0,0c0,0,0.3,0,0.3,0.3l0,0l0.3,0.3l0,0l0.3,0.3l0,0c0.3,0,0.3,0.3,0.7,0.3l0,0c0.3,0,0.3,0.3,0.7,0.3
		l0,0c0.7,0.3,1.4,0.3,2,0.7c0,0,0,0,0.3,0c0.3,0,0.7,0.3,1,0.3l0,0c0.7,0.3,1.4,0.3,2.4,0.7c0.3,1.7,0.3,4.8,0,8.2l0,0l0,0l0,0
		c-0.3,2-0.7,4.1-1,6.1c-2.4,9.9-2.4,21.1,0.7,27.6c3.1,6.5,9.9,10.2,17,10.2c6.8,0,9.2-4.1,9.9-5.1c0.7-1,1-2.4,2-2.4
		c1,0,0.7-2-2-2c-0.3,0-0.7,0-0.7,0s0,0-0.3,0c-1.7-0.3-2.7-0.7-3.4-1.7c-0.7-1-3.1-0.3-2,2c1,2,0,3.7-2.4,3.4
		c-0.7,0-1.4-0.3-2.4-0.7l0,0l0,0l0,0l0,0c-0.3,0-1-0.3-1.4-0.3l0,0l0,0l0,0c-1,0-2.4-1.4-3.4-2l0,0l0,0c-0.3,0-0.7-0.7-1-1l0,0l0,0
		l0,0c-1.4-1-2-2.7-2.7-5.1c0-0.3,0-0.7,0-1l0,0h0.3l0,0c0-1.7-0.3-3.4-0.3-5.1h-0.3l0,0l0,0c0-0.3,0.3-1,0.3-1.4l0,0l0,0l-0.3,0.3
		c0-0.3,0-1.4,0.3-1.4l0,0v-0.3c0.3-2,1-4.1,1.4-5.8h0.3l0,0h-0.3c0-0.3,0-0.7,0-1l0,0h0.3l0,0c0-1.7,0.7-3.1,1-4.1
		c0.3-0.7,0.3-1.7,1-2.7c0,0,0,0,0.3,0l0,0v0.3l0,0v-0.3v-0.3c0.3-0.3,0.3-1,0.7-1.4l0,0l0,0l0,0c0.7-1.4,1.7-3.7,2.4-6.1l0,0v-0.3
		c0-0.3,0-0.3,0.3-0.7c0-0.3,0.3-0.7,0.3-1l0,0l0,0l0,0l0,0v-0.3c0-0.3,0.3-1,0.3-1.4l0,0l0,0v-0.3c0-0.3,0-0.7,0-1l0,0v0.3l0,0
		c0,0,0-0.3,0-0.7v-0.3l0,0l0,0c0-0.3,0-0.3,0-0.7l0,0c1-0.3,2-0.7,3.4-1.4c4.4-2,5.8-4.8,6.1-6.1l0,0c0,0,0,0,0-0.3l0,0l0,0
		c0,0,0,0,0-0.3l0,0v-0.3c-0.7-0.7-2.4,3.1-9.2,4.1c0,0,0-0.3,0-1c1-0.3,2-0.7,3.1-1c5.5-2,6.1-5.5,5.5-6.1c-0.3-0.7-2,2.7-8.2,3.1
		h-0.3c0-0.7,0-1-0.3-1.7l0,0l0,0l0,0c0-1-0.3-1.4-0.7-2l0,0l0,0l0,0c0-0.3-0.3-0.7-0.3-1.4c0-0.3-0.3-0.7-0.3-1l0,0v-0.3l0,0
		c-0.3,0-0.7-1-1-1.7v0.3l0,0l0,0c-0.3-0.7-0.7-1.4-1.4-2.4l0,0l0,0l0,0c-1-1.7-2-3.4-3.1-4.8l0,0l0,0l0,0c-0.7-1-1.7-2-2.4-3.1l0,0
		l0,0l0,0c-0.3-0.7-1-1-1.4-1.4l0,0l0,0l0,0c-1-1-2-1.7-3.1-2c-5.1-2.4-8.9-8.2-11.2-11.6c-2.4-3.7-4.4-8.2-11.6-6.5
		c-4.4,1-6.8,1.7-9.2,1.7c0,0,0,0-0.3,0c-1,0-2.4-0.3-3.7-0.7l0,0h-0.3h-0.3l0,0c-0.3,0-0.3,0-0.7-0.3c-0.7-0.3-1-0.3-1.7-0.7l0,0
		h-0.3h-0.3h-0.3l0,0l0,0c0,0,0,0-0.3,0c-4.1-1-8.2-0.7-11.6,2c-1,1-2.7,2-4.4,3.4c0,0,0,0-0.3,0c-5.1,0.3-6.8,2-9.9,3.1l0,0h-0.3
		c0,0-0.7,0-1,0.3c-0.3,0-0.3,0-0.7,0.3c-0.3,0-0.3,0-0.7,0c-1.4,0.3-3.1,0.3-5.5,0c-0.3,0-0.3,0-0.7,0c-1.4,0-2.7-0.3-4.1-0.3
		c-3.1-0.3-5.8-0.7-8.9-1l0,0l0,0c-4.1-0.3-8.9-0.3-14.7,0.3c-12.6,1.4-22.5,2.4-25.6,7.2c-3.1,4.8-3.7,8.5-5.1,9.9
		c-0.3,0.3-0.7,1.4-1.4,2.7c-1.4,2.7-2.7,6.1-3.7,8.9c-2,5.5-2.7,11.6-2.4,17.4c0,1.4,0.3,2.7,0.7,4.1c1,3.7,1,6.8,0.7,8.5
		c0,0-0.3,0.7-0.7,1.4l0,0c-0.7,1-1.4,2.4-2,3.7l0,0c-0.3,1-0.7,2.4-0.7,3.4C395.3,107.3,395.3,107.7,395.3,108.4z M442.3,105.6
		L442.3,105.6L442.3,105.6L442.3,105.6z M399.1,100.9c0,0,0,0-0.3,0.3C398.7,101.2,398.7,100.9,399.1,100.9L399.1,100.9z
		 M399.1,100.5c0,0-0.3,0.7-0.7,1.7c0,0.3-0.3,0.7-0.7,1.4c0,0.3-0.3,0.3-0.3,0.7c0.3-0.3,0.3-1,0.7-1.7
		C398.4,101.9,398.7,101.2,399.1,100.5L399.1,100.5z M399.1,101.9L399.1,101.9L399.1,101.9L399.1,101.9L399.1,101.9z M398,106
		c0-0.7,0.3-1,0.3-1.7c0-0.3,0-0.7,0.3-1l0,0l-0.3,1L398,106z M399.1,100.5C399.1,100.5,399.1,100.9,399.1,100.5
		c0,0.3,0,0.3-0.3,0.7C398.7,100.9,398.7,100.9,399.1,100.5z M399.1,100.9L399.1,100.9L399.1,100.9L399.1,100.9L399.1,100.9
		L399.1,100.9L399.1,100.9z M397.7,108.7c0-0.7,0.3-1.4,0.3-2c0.3-1,0.7-2,1-3.1C399.1,106,398,107.7,397.7,108.7L397.7,108.7z
		 M397,108.4c0-0.3,0-0.7,0.3-1C397.4,107.3,397.4,107.7,397,108.4C397.4,108,397,108.4,397,108.4z M397,108.7L397,108.7
		c0-0.7,0-2.4,0.7-4.8l0,0l0.3-0.3C397.4,106.3,397,107.7,397,108.7z M398.7,100.9c0,0,0-0.3,0.3-0.3
		C399.1,100.5,399.1,100.5,398.7,100.9C399.1,100.5,398.7,100.5,398.7,100.9z M398.7,101.2c0,0.3,0,0.7-0.3,0.7
		c0,0.3-0.3,0.3-0.3,0.7l0,0C398.4,101.9,398.7,101.6,398.7,101.2C399.1,101.2,398.7,101.2,398.7,101.2z M399.1,100.9L399.1,100.9
		L399.1,100.9L399.1,100.9z M399.1,100.5L399.1,100.5L399.1,100.5L399.1,100.5L399.1,100.5C399.1,100.9,399.1,100.9,399.1,100.5
		C399.1,100.9,399.1,100.5,399.1,100.5L399.1,100.5z M397.4,109.4C397.4,109.4,397.4,109.1,397.4,109.4L397.4,109.4L397.4,109.4
		c0-0.3,0-0.3,0.3-0.7L397.4,109.4L397.4,109.4z M397,109.4L397,109.4L397,109.4L397,109.4z M396.7,109.1L396.7,109.1
		C397,109.1,397,108.7,396.7,109.1C397,108.7,397,108.7,396.7,109.1C397,109.1,397,109.1,396.7,109.1z M396.7,109.1
		C396.7,109.1,396.7,109.4,396.7,109.1C396.7,109.4,396.7,109.4,396.7,109.1L396.7,109.1L396.7,109.1z M396.7,109.1c0,0,0-0.3,0-0.7
		C396.7,108.4,396.7,108.7,396.7,109.1L396.7,109.1z M396.7,109.1C396.7,109.1,396.3,109.4,396.7,109.1
		C396.3,109.4,396.3,109.4,396.7,109.1c-0.3,0,0-0.3,0-0.7C396.7,108.7,396.7,108.7,396.7,109.1z M396.3,109.4L396.3,109.4
		L396.3,109.4L396.3,109.4z M399.1,100.2L399.1,100.2c0,0.3,0,0.3-0.3,0.7C398.7,100.5,399.1,100.5,399.1,100.2z M399.7,105.3
		c0.3-2,0-3.7-0.3-4.8l0,0C400.1,102.2,400.1,103.9,399.7,105.3z M399.4,101.2L399.4,101.2c0-0.3,0-0.7,0-0.7
		S399.4,100.5,399.4,101.2C399.4,100.9,399.4,100.9,399.4,101.2z M397,109.7C397,109.4,397,109.4,397,109.7
		C397,109.4,397.4,109.4,397,109.7L397,109.7C397,109.4,397,109.4,397,109.7z M397,109.7L397,109.7L397,109.7L397,109.7L397,109.7z
		 M397,109.4L397,109.4L397,109.4L397,109.4L397,109.4z M396.3,109.7L396.3,109.7C396.3,109.4,396.3,109.4,396.3,109.7
		C396.3,109.4,396.3,109.7,396.3,109.7C396.3,109.4,396.3,109.4,396.3,109.7c0-0.3,0-0.7,0.3-0.7l0,0
		C396.7,109.4,396.7,109.4,396.3,109.7L396.3,109.7L396.3,109.7L396.3,109.7z"/>
</g>
<g class="st2">
	<path class="st3" d="M55.2,65.8l1.2-5c2.5,2.7,6.5,5.6,12.4,5.6c4.8,0,8.6-2.7,8.6-7.2c0-4.2-2-6.5-9.7-8.5
		c-7.7-2-11.4-6.2-11.4-11.9c0-5.8,4.8-10.6,13.2-10.6c4.7,0,8.9,1.9,11.1,3.7l-1.2,4.3c-2.7-2-6.5-3.6-9.9-3.6c-5.1,0-8,2.4-8,6.2
		c0,2.9,1.8,5.4,8.2,7.1c8.8,2.3,12.8,6.1,12.8,12.9c0,8-6.7,12.1-13.7,12.1C62.1,70.8,57.4,68.1,55.2,65.8z"/>
	<path class="st3" d="M102.6,29h3.5l17.6,40.9h-5.6l-4.9-11.5h-18l-4.9,11.5H85L102.6,29z M111.4,54l-7.2-16.8L97.1,54H111.4z"/>
	<path class="st3" d="M119.6,29h5.6l13.9,32.6L153,29h5.3l-17.6,40.9h-3.5L119.6,29z"/>
	<path class="st3" d="M171.9,29h3.5L193,69.9h-5.6l-4.9-11.5h-18l-4.9,11.5h-5.3L171.9,29z M180.7,54l-7.2-16.8L166.3,54H180.7z"/>
	<path class="st3" d="M198.3,29h3.1l24.3,30.5V29h5v40.9h-3.1l-24.3-30.5v30.5h-5V29z"/>
	<path class="st3" d="M240,29h3.1l24.3,30.5V29h5v40.9h-3.1L245,39.4v30.5h-5V29z"/>
	<path class="st3" d="M295.4,29h3.5l17.6,40.9h-5.6L306,58.4h-18l-4.9,11.5h-5.3L295.4,29z M304.2,54L297,37.2L289.8,54H304.2z"/>
</g>
<g class="st2">
	<path class="st3" d="M57.3,97.1H82v4.6H62.7v12.5h15.9v4.6H62.7v14.7H82v4.6H57.3V97.1z"/>
	<path class="st3" d="M90,97.1h5.5v36.3h19.3v4.6H90V97.1z"/>
	<path class="st3" d="M120.3,97.1H145v4.6h-19.3v12.5h15.9v4.6h-15.9v14.7H145v4.6h-24.7V97.1z"/>
	<path class="st3" d="M153,97.1h13.5c9.3,0,13.4,5.7,13.4,12.3s-4,12.3-13.4,12.3h-8V138H153V97.1z M166.5,117.3c6.1,0,8-4,8-7.8
		s-1.8-7.8-8-7.8h-8v15.5H166.5z"/>
	<path class="st3" d="M185.6,97.1h5.5v17h22.6v-17h5.5V138h-5.5v-19.3H191V138h-5.5V97.1z"/>
	<path class="st3" d="M241.9,97.1h3.5l17.6,40.9h-5.6l-4.9-11.5h-18l-4.9,11.5h-5.3L241.9,97.1z M250.7,122.2l-7.2-16.8l-7.2,16.8
		H250.7z"/>
	<path class="st3" d="M268.4,97.1h3.1l24.3,30.5V97.1h5V138h-3.1l-24.3-30.5V138h-5V97.1z"/>
	<path class="st3" d="M320.8,101.7h-14.5v-4.6h34.5v4.6h-14.5V138h-5.5V101.7z"/>
	<path class="st3" d="M342.7,134l1.2-5c2.5,2.7,6.5,5.6,12.4,5.6c4.8,0,8.6-2.7,8.6-7.2c0-4.2-2-6.5-9.7-8.5
		c-7.7-2-11.4-6.2-11.4-11.9c0-5.8,4.8-10.6,13.2-10.6c4.7,0,8.9,1.9,11.1,3.7l-1.2,4.3c-2.7-2-6.5-3.6-9.9-3.6c-5.1,0-8,2.4-8,6.2
		c0,2.9,1.8,5.4,8.2,7.1c8.8,2.3,12.8,6.1,12.8,12.9c0,8-6.7,12.1-13.7,12.1C349.7,138.9,345,136.3,342.7,134z"/>
</g>
</svg>
