<?xml version="1.0" encoding="utf-8"?>
<!-- Generator: Adobe Illustrator 23.0.6, SVG Export Plug-In . SVG Version: 6.00 Build 0)  -->
<svg version="1.1" id="jewelry" xmlns="http://www.w3.org/2000/svg" xmlns:xlink="http://www.w3.org/1999/xlink" x="0px" y="0px"
	 viewBox="0 0 108 168.2" style="enable-background:new 0 0 108 168.2;" xml:space="preserve">
<style type="text/css">
	.st0{fill:#F9F9FA;}
</style>
<g id="necklace">
	<path class="st0" d="M52.3,128c-5.4,0.5-10.3,3.2-13.7,7.6l13.7,6.4V128z"/>
	<path class="st0" d="M55.7,128v13.2l11.2-8.1C63.7,130.2,59.8,128.5,55.7,128z"/>
	<path class="st0" d="M56.4,145.1l8.5,12h6.4c1.5-2.9,2.4-6.1,2.4-9.3c0-4.4-1.5-8.5-4.2-12L56.4,145.1z"/>
	<path class="st0" d="M36.6,138.5c-1.5,2.9-2.2,5.9-2.2,9c0,2.9,0.7,5.9,2,8.5l14.4-11L36.6,138.5z"/>
	<path class="st0" d="M54,167.3c1,0,2.2,0,3.2-0.2v-6.6H39.1C42.7,164.9,48.1,167.3,54,167.3z"/>
	<path class="st0" d="M60.8,166.1c3.2-1.2,5.9-3.2,8.1-5.6h-8.1C60.8,160.5,60.8,166.1,60.8,166.1z"/>
	<path class="st0" d="M3.9,67.7c-0.2-0.7-0.5-1.2-0.7-2C3,64.7,2,64.2,1,64.5s-1.5,1.2-1.2,2.2c0.2,0.5,0.5,1.2,0.7,2
		c0.2,0.7,1,1.2,1.7,1.2c0.2,0,0.5,0,0.7,0C3.6,69.6,4.1,68.6,3.9,67.7z"/>
	<path class="st0" d="M107,64.5c-1-0.2-2,0.2-2.2,1c-0.2,0.5-0.5,1.2-0.7,2c-0.2,1,0.2,2,1,2.2c0.2,0,0.5,0,0.7,0
		c0.7,0,1.5-0.5,1.7-1.2s0.5-1.5,0.7-2C108.4,65.9,107.9,65,107,64.5z"/>
	<path class="st0" d="M104.3,72.1c-1-0.5-2,0-2.4,1c-3.9,9.3-11.2,22-23.4,31c-5.9,4.4-12,7.3-18.6,9c-1-2.4-3.2-4.2-6.1-4.2
		c-2.7,0-5.1,1.7-6.1,4.2c-6.6-1.7-12.7-4.6-18.6-9c-12-9-19.3-22-23.4-31c-0.5-1-1.5-1.2-2.4-1c-1,0.5-1.2,1.5-1,2.4
		C6.5,84,14,97.5,26.7,107c6.4,4.6,13.2,8.1,20.5,9.8c0.5,2.2,2.2,4.2,4.4,4.6v6.6h3.7v-6.6c2.2-0.7,3.9-2.4,4.4-4.6
		c7.3-1.7,14.2-4.9,20.5-9.8c12.7-9.5,20.3-23,24.4-32.5C105.5,73.5,105,72.5,104.3,72.1z M54,118c-1.5,0-2.9-1.2-2.9-2.9
		c0-1.5,1.2-2.9,2.9-2.9c1.5,0,2.9,1.2,2.9,2.9S55.4,118,54,118z"/>
	<polygon class="st0" points="41,156.8 60.6,156.8 53.5,147.3 	"/>
</g>
<g id="earrings">
	<g id="left_x5F_earring">
		<polygon class="st0" points="42,44.7 47.9,52.5 52.3,44.7 		"/>
		<polygon class="st0" points="52,42.3 46.9,35.4 42,42.3 		"/>
		<path class="st0" d="M46.4,34.4v-4.2c0-3.4-2.7-6.4-6.1-6.6c-1.7-1.5-4.9-4.6-5.4-8.8c-0.5-2.9,0.7-7.1,2.4-9
			c0.7-1,1.7-1.5,2.4-1.5c1.7,0,3.4,1.5,3.4,3.9c0,0.7-0.5,1.5-1.2,2.2c-0.7,1-1.7,2.2-2,4.2c0,1.5,0.5,2.9,1.5,4.4
			c0.5,0.5,1,0.7,1.7,0.2c0.5-0.5,0.7-1,0.2-1.7c-0.7-1-1-2-1-2.9c0-1.2,0.7-2,1.5-2.7c0.7-1,1.7-2,1.7-3.7c0-3.7-2.9-6.1-5.9-6.1
			c-1.5,0-2.9,0.7-4.2,2.2c-2.2,2.4-3.7,7.1-3.2,10.7c0.5,3.9,2.9,7.1,4.9,9c-2.4,1-3.9,3.4-3.9,6.1v4.2h1.5l5.1,7.1l5.1-7.1
			L46.4,34.4L46.4,34.4z"/>
		<polygon class="st0" points="32.5,35.4 27.6,42.3 37.6,42.3 		"/>
		<polygon class="st0" points="27.3,44.7 31.5,52.5 37.4,44.7 		"/>
		<path class="st0" d="M32.7,54.7l5.9,10.7V47.1l-5.4,7.3C33,54.5,33,54.7,32.7,54.7z"/>
		<path class="st0" d="M41,46.9v18.3l5.9-10.7c-0.2,0-0.2-0.2-0.5-0.2L41,46.9z"/>
	</g>
	<g id="right_x5F_earring">
		<path class="st0" d="M69.6,57.6v-4.2c0-3.4-2.7-6.4-6.1-6.6c-1.7-1.5-4.9-4.6-5.6-8.8c-0.5-2.9,0.7-7.1,2.4-9
			c0.7-1,1.7-1.5,2.4-1.5c1.7,0,3.4,1.5,3.4,3.9c0,0.7-0.5,1.5-1.2,2.2c-0.7,1-1.7,2.2-2,4.2c0,1.5,0.5,2.9,1.5,4.4
			c0.5,0.5,1,0.7,1.7,0.2c0.5-0.5,0.7-1,0.2-1.7c-0.7-1-1-2-1-2.9c0-1.2,0.7-2,1.5-2.7c0.7-1,1.7-2,1.7-3.7c0-3.7-2.9-6.1-5.9-6.1
			c-1.5,0-2.9,0.7-4.2,2.2c-2.2,2.4-3.7,7.1-3.2,10.7c0.5,3.9,2.9,7.1,4.9,9c-2.4,1-3.9,3.4-3.9,6.1v4.2h1.5l5.1,7.1l5.1-7.1
			L69.6,57.6L69.6,57.6z"/>
		<polygon class="st0" points="50.8,67.9 54.9,76 60.8,67.9 		"/>
		<polygon class="st0" points="65.4,67.9 71.3,76 75.5,67.9 		"/>
		<polygon class="st0" points="75.5,65.7 70.3,58.6 65.4,65.7 		"/>
		<polygon class="st0" points="55.9,58.6 50.8,65.7 60.8,65.7 		"/>
		<path class="st0" d="M64.2,70.3v18.3l5.9-10.7c-0.2,0-0.2-0.2-0.5-0.2L64.2,70.3z"/>
		<path class="st0" d="M56.2,77.9L62,88.7V70.3l-5.4,7.3C56.4,77.9,56.2,77.9,56.2,77.9z"/>
	</g>
</g>
</svg>
