<?xml version="1.0" encoding="utf-8"?>
<!-- Generator: Adobe Illustrator 23.0.6, SVG Export Plug-In . SVG Version: 6.00 Build 0)  -->
<svg version="1.1" id="sculpture" xmlns="http://www.w3.org/2000/svg" xmlns:xlink="http://www.w3.org/1999/xlink" x="0px" y="0px"
	 viewBox="0 0 69.5 165" style="enable-background:new 0 0 69.5 165;" xml:space="preserve">
<style type="text/css">
	.st0{fill:#F9F9FA;}
</style>
<polygon id="hold_1_" class="st0" points="52,130 52,72.7 17,72.7 17,130 0,130 0,165 69.5,165 69.5,130 "/>
<path id="bowl_1_" class="st0" d="M26,68c0,1.7-2,4.7-2,4.7h21c0,0-2-3-2-4.7c0-3.7,5.7-5.2,9.2-12.7C53.7,52,55,47.7,55,41.5
	c0-5.5-2.2-10.5-4.7-14.7c-4.2-6.7-9.5-12-9.5-15.2c0-6,5.7-11.5,5.7-11.5h-12H22.7c0,0,5.7,5.5,5.7,11.5C28.5,15,23,20,19,26.7
	c-2.7,4.2-4.7,9.2-4.7,14.7c0,6,1,10.5,2.7,13.7C20.2,62.7,26,64.2,26,68z"/>
</svg>
