<?xml version="1.0" encoding="utf-8"?>
<!-- Generator: Adobe Illustrator 23.0.6, SVG Export Plug-In . SVG Version: 6.00 Build 0)  -->
<svg version="1.1" id="tucks" xmlns="http://www.w3.org/2000/svg" xmlns:xlink="http://www.w3.org/1999/xlink" x="0px" y="0px"
	 viewBox="0 0 290.1 199.8" style="enable-background:new 0 0 290.1 199.8;" xml:space="preserve">
<style type="text/css">
	.st0{fill:#F9F9FA;stroke:#C4A992;stroke-width:0.2526;stroke-linecap:round;stroke-linejoin:round;stroke-miterlimit:10;}
</style>
<g id="left_x5F_tuck">
	<path id="left_x5F_tuck_1_" class="st0" d="M37.1,3.1c4.4,2.4,8.2,6.2,10.8,10.9c6.7,12.8,0.1,16-5.1,28.1
		C28.7,74,31.7,112.4,41.7,145.8c12.2,41,35.1,48.3,32.2,52c-2.8,3.7-24,5.5-46.4-29.2c-21.9-33.8-25.7-75-26-77.4
		c-2-22.9-3.5-64,10.1-83.8C17.6-1.3,28.4-1.5,37.1,3.1z"/>
</g>
<g id="right_x5F_tuck">
	<path id="right_x5F_tuck_1_" class="st0" d="M253,3.1c-4.4,2.4-8.2,6.2-10.8,10.9c-6.7,12.8-0.1,16,5.1,28.1
		c14.1,31.9,11.1,70.3,1.1,103.7c-12.2,41-35.1,48.3-32.2,52c2.8,3.7,24,5.5,46.4-29.2c21.9-33.8,25.7-75,26-77.4
		c2-22.9,3.5-64-10.1-83.8C272.5-1.3,261.8-1.5,253,3.1z"/>
</g>
</svg>
