<?xml version="1.0" encoding="utf-8"?>
<!-- Generator: Adobe Illustrator 23.0.6, SVG Export Plug-In . SVG Version: 6.00 Build 0)  -->
<svg version="1.1" id="white_x5F_elephant" xmlns="http://www.w3.org/2000/svg" xmlns:xlink="http://www.w3.org/1999/xlink" x="0px"
	 y="0px" viewBox="0 0 142.4 86.3" style="enable-background:new 0 0 142.4 86.3;" xml:space="preserve">
<style type="text/css">
	.st0{fill:#F9F9FA;}
</style>
<path id="elephant_1_" class="st0" d="M1.7,63.1c0,0,0-0.6,0-1.4c0,0.6,0,1.4,0.3,2.3c0-0.6-0.3-1.4,0-2.6v0.3c0,0,0-0.6,0.3-1.4
	c0,0.3,0,0.6,0,0.9v0.3c0,0,0,0,0-0.3l0,0c0,0.9,0,1.4,0.3,2c0,0,0-0.3,0-0.9l0,0l0,0V62l0,0c0,0.3,0,0.3,0,0.3V62c0,0,0,0,0-0.3
	c0,0,0,0,0,0.3c0,0,0.3-0.3,0.3-0.6c0,0.3,0,0.3,0,0.3v-0.3l0,0c0,0,0,0,0-0.3c0,0.3,0,0.3,0,0.3v0.3C2.6,62,2.6,62,2.6,62l0.3-0.3
	l0,0l0,0l0,0l0,0L2.6,62c0,0,0,0,0.3-0.3V62c0,0,0,0,0-0.3l0,0V62c0,0,0,0,0-0.3l0,0L2.3,64c0,0,0.3-1.1,0.8-2.6
	c0.3-0.3,0.3-0.6,0.6-0.6c1.4-2,1.1-4.2,1.1-5.4c0-0.3,0-0.3,0-0.3c0.6,3.4-1.1,6.2-1.1,6.2c0.6-0.9,0.8-1.7,1.1-2.6
	c-0.3,0.9-0.6,1.7-0.6,2c-0.3,0.6-0.6,0.9-0.6,0.9c0-0.3,0.3-0.3,0.3-0.6c0,0.3-0.3,0.3-0.3,0.3c0-0.3,0.3-0.3,0.3-0.6
	c2.5-3.1,1.1-6.2,0.6-6.8c0,0,0,0,0-0.3c0.3-1.1,0.3-3.4-0.3-6.5c-0.8-4.2,0.3-10.8,2-15c0,0.3,0,0.6,0,0.9c0,0.3,0,0.9,0,1.1
	C6.8,39,8.5,44.4,9.4,48.6l0,0c0,0,0,0,0,0.3s0,0.6,0,0.9c0,0.3,0,0.3,0,0.6v0.3l0,0c0,0.6,0,1.1,0,1.7C9.1,54.7,8.6,57.8,8,62l0,0
	v-0.3c0,0,0,0,0,0.3s0,0.6-0.3,0.9v0.3c-0.3,1.7,0,3.4-0.8,4.2l0,0l0,0c0,0,0,0.3,0,0.9v0.3c-0.6,2.6-2,5.7-3.1,7.1
	c-0.8,1.1-1.4,4.2-1.4,5.9c0,0.6,0.3,1.1,0.6,1.1c0.6,0.6,4.2,2,8.8,2.6l0,0l-0.6,0.3c0.3,0,0,0.6,0.6,0.6l0,0l0,0v-0.9l0,0
	c0.8,0,0.6,0,0.8,0l0,0l0.3-0.3c1.4,0,2.5-0.6,3.1-0.6l0,0c0.6,0,0.3,0.3,0.6,0.3V85H17l0,0c0.8-0.3,0.8-0.3,1.7-0.6l0,0h-0.6h-0.6
	l0,0l0,0c0,0,0,0,0-0.3l0,0v-0.3l0,0c0,0,0,0,0-0.3l0,0c0,0,0,0,0-0.3l0,0v-0.3l0,0c-0.6-1.1-1.1-2.6-1.1-4.5c0-1.1,0-2.6,0.6-4.5
	c0.6-2.8,1.1-5.7,2.5-7.9h-0.3c0.3-0.3,0-0.3,0-0.3l0,0c1.7-0.6,1.1-1.1,1.7-1.4c0,0,0.6,0,0.6-0.3c0.3-0.3,0.6-0.3,0.6-0.3h0.3
	c0.3-0.3,0.8-0.6,1.4-0.6l0,0l0,0l0,0c0,0,0.3,0.6,0.6,1.4c0,0.3,0,0.6,0.3,0.9c0,0,0,0.3,0.3,0.6l0,0c0.6,1.7,1.4,4.2,1.4,5.9v0.3
	c0,2.8-0.3,11.3,2.3,13.6c0,0,2.5,0.6,5.4,0.6l0,0V86l1.1-0.3l0,0c0.8,0,1.7,0,2.5-0.3h-0.3h0.3l0,0c0,0,1.4-0.3,2-0.6
	c0,0,0.8,0,0.6-1.4l0,0c0-0.3,0-0.6-0.3-0.9l0,0l0,0c-0.8-1.7-3.1-4.8-4-9.4l0,0c0-0.3,0-0.6,0-1.1c0-0.3,0-0.3,0-0.6
	c0-0.3,0-0.6,0-0.6c0-0.9,0-1.7,0-2.6v-0.3c0,0,0,0,0-0.3v-0.3c0-0.3,0-0.3,0-0.3l0,0c0.3-2,0.8-3.7,1.1-4.8c0-0.3,0-0.3,0-0.3
	c0.3-0.9,0.6-1.7,0.8-2l0.6-1.1c0-0.3,0.3-0.3,0.3-0.3l0,0l0,0c0,0,7.4,2.6,20.4,0.3c0,0,0,0-0.3,0c0,0,0.3,0,0.6,0
	c3.1-0.6,6.5-1.4,10.2-2.8l0,0c0,0,0,2.8,0.8,4.8l0,0l0,0c0,0.3-0.3,2.8,0,5.9c0,0.9,0,1.7,0,2.6c0,0.6,0,1.1,0,1.7
	c0,4.2-0.3,9.4-0.6,9.9c-0.3,0.3-0.8,1.7-0.6,2.8c0,1.1,0.8,2,2.5,2c2,0,4.5,0,7.4,0l0,0c0.8,0,2,0.3,2.8,0.3l0,0
	c0.3,0,0.6-0.3,0.8-0.3l0.3-0.3l0,0h0.3c1.1,0,2-0.9,1.1-2.3l0,0c0-0.3-0.3-0.3-0.3-0.6s-0.3-0.3-0.3-0.6c-1.7-2-2.8-3.1-2.8-6.8
	l0,0l0,0v-0.3V75l0,0l0,0v-0.3c0-0.3,0-0.6,0-1.1l0,0c0-0.3,0-0.6,0-0.9c0.3-3.1,1.4-7.1,2.8-9.9l0,0l0,0c0.3-0.6,0.6-1.1,0.8-1.7
	l0,0l0,0c0-0.3,0.6-0.6,0.6-0.9l0,0l0,0l0,0l0.3,0.3c0.3,0.9,1.1,1.4,2,2l0,0l0,0l0,0l0,0l0,0c0.6,0.6,1.4,1.1,2,1.4l0,0v0.3l0,0
	c1.4,0.9,2.8,1.4,3.7,2c1.1,0.9,2.8,2,3.1,3.7l0.3,0.3l0,0h-0.3c0,0.6-0.3,1.1-0.3,1.4s0,0.6,0,0.6l0,0l0,0l0,0
	c-0.3,2.8,0.3,8.2,0,9.4c-0.3,1.4-2,4,1.7,4c1.7,0,4-0.3,6.5-0.3l0,0l0,0c0.8,0,0.8,0,0.8,0l0,0c1.7,0,1.7-0.3,2.5-0.3l0,0
	c0.3,0,1.1,0,1.1-0.3l0,0c0.8,0,1.1-0.3,1.4-0.3c0.8-0.3,0.8-1.1,0.6-2v0.3c0-0.3-0.3-0.6-0.3-0.6l0,0c0,0,0-0.3-0.3-0.3
	c-0.6-0.9-1.1-2-2-2.8c-1.7-1.7-2.5-8.2-3.1-12.2c-0.6-3.7-2.3-5.1-5.1-8.8c-2-2.8-4.5-6.5-5.4-9.6l0,0c-0.3-0.9-0.3-2-0.3-2.6
	c1.1-0.9,2-2.3,2.5-3.7c0.6-1.1,0.6-2.6,0.8-3.7c0-0.3,0-0.3,0-0.6c0.3-0.9,0.3-2,0.6-2.6l0,0c0,0,0-0.3,0.3-0.3l0,0
	c0.3-0.6,0.8-0.9,2-0.6c0.3,0.3,0.6,0.3,1.1,0.6c0,0,1.1,0.6,2,0.6c0,0,0.3,0,0.6,0.3c0.3,0,0.3,0,0.6,0c0,0,0.3,0.6,2,0.6l0,0l0,0
	c0,0,1.7,1.7,2.8,2c0.8,0.3,1.1-0.6,1.1-0.6l0,0l0,0l0,0l0,0c0,0,0,0,0.3,0.3l0,0c0,0,0.3,0,0.3,0.3l0,0l0.3,0.3l0,0l0.3,0.3l0,0
	c0.3,0,0.3,0.3,0.6,0.3l0,0c0.3,0,0.3,0.3,0.6,0.3l0,0c0.6,0.3,1.1,0.3,1.7,0.6c0,0,0,0,0.3,0s0.6,0.3,0.8,0.3l0,0
	c0.6,0.3,1.1,0.3,2,0.6c0.3,1.4,0.3,4,0,6.8l0,0l0,0l0,0c-0.3,1.7-0.6,3.4-0.8,5.1c-2,8.2-2,17.6,0.6,22.9c2.5,5.4,8.2,8.5,14.2,8.5
	c5.7,0,7.7-3.4,8.2-4.2c0.6-0.9,0.8-2,1.7-2c0.8,0,0.6-1.7-1.7-1.7c-0.3,0-0.6,0-0.6,0s0,0-0.3,0c-1.4-0.3-2.3-0.6-2.8-1.4
	s-2.5-0.3-1.7,1.7c0.8,1.7,0,3.1-2,2.8c-0.6,0-1.1-0.3-2-0.6l0,0l0,0l0,0l0,0c-0.3,0-0.8-0.3-1.1-0.3l0,0l0,0l0,0
	c-0.8,0-2-1.1-2.8-1.7l0,0l0,0c-0.3,0-0.6-0.6-0.8-0.9l0,0l0,0l0,0c-1.1-0.9-1.7-2.3-2.3-4.2c0-0.3,0-0.6,0-0.9l0,0h0.3l0,0
	c0-1.4-0.3-2.8-0.3-4.2h-0.3l0,0l0,0c0-0.3,0.3-0.9,0.3-1.1l0,0l0,0l-0.3,0.3c0-0.3,0-1.1,0.3-1.1l0,0v-0.3c0.3-1.7,0.8-3.4,1.1-4.8
	h0.3l0,0l0,0c0-0.3,0-0.6,0-0.9l0,0h0.3l0,0c0-1.4,0.6-2.6,0.8-3.4c0.3-0.6,0.3-1.4,0.8-2.3c0,0,0,0,0.3,0l0,0v0.3l0,0v-0.3v-0.3
	c0.3-0.3,0.3-0.9,0.6-1.1l0,0l0,0l0,0c0.6-1.1,1.4-3.1,2-5.1l0,0v-0.3c0-0.3,0-0.3,0.3-0.6c0-0.3,0.3-0.6,0.3-0.9l0,0l0,0l0,0l0,0
	v-0.3c0-0.3,0.3-0.9,0.3-1.1l0,0l0,0v-0.3c0-0.3,0-0.6,0-0.9l0,0v0.3l0,0c0,0,0-0.3,0-0.6v-0.3l0,0l0,0c0-0.3,0-0.3,0-0.6l0,0
	c0.8-0.3,1.7-0.6,2.8-1.1c3.7-1.7,4.8-4,5.1-5.1l0,0c0,0,0,0,0-0.3l0,0l0,0c0,0,0,0,0-0.3l0,0V34c-0.6-0.6-2,2.6-7.7,3.4
	c0,0,0-0.3,0-0.9c0.8-0.3,1.7-0.6,2.5-0.9c4.5-1.7,5.1-4.5,4.5-5.1c-0.3-0.6-1.7,2.3-6.8,2.6h-0.3c0-0.6,0-0.9-0.3-1.4l0,0l0,0l0,0
	c0-0.9-0.3-1.1-0.6-1.7l0,0l0,0l0,0c0-0.3-0.3-0.6-0.3-1.1c0-0.3-0.3-0.6-0.3-0.9l0,0v-0.3l0,0c-0.3,0-0.6-0.9-0.8-1.4v0.3l0,0l0,0
	c-0.3-0.6-0.6-1.1-1.1-2l0,0l0,0l0,0c-0.8-1.4-1.7-2.8-2.5-4l0,0l0,0l0,0c-0.6-0.9-1.4-1.7-2-2.6l0,0l0,0l0,0
	c-0.3-0.6-0.8-0.9-1.1-1.1l0,0l0,0l0,0c-0.8-0.9-1.7-1.4-2.5-1.7c-4.2-2-7.4-6.8-9.3-9.6c-2-3.1-3.7-6.8-9.6-5.4
	c-3.7,0.9-5.7,1.4-7.7,1.4c0,0,0,0-0.3,0c-0.8,0-2-0.3-3.1-0.6l0,0H89h-0.3l0,0c-0.3,0-0.3,0-0.6-0.3c-0.6-0.3-0.8-0.3-1.4-0.6l0,0
	h-0.3h-0.3h-0.3l0,0l0,0c0,0,0,0-0.3,0c-3.4-0.9-6.8-0.6-9.6,1.7c-0.8,1.2-2.2,2-3.6,3.2c0,0,0,0-0.3,0c-4.2,0.3-5.7,1.7-8.2,2.6
	l0,0h-0.3c0,0-0.6,0-0.8,0.3c-0.3,0-0.3,0-0.6,0.3c-0.3,0-0.3,0-0.6,0c-1.1,0.3-2.5,0.3-4.5,0c-0.3,0-0.3,0-0.6,0
	c-1.1,0-2.3-0.3-3.4-0.3c-2.5-0.3-4.8-0.6-7.4-0.9l0,0l0,0c-3.4-0.3-7.4-0.3-12.2,0.3c-10.5,1.1-18.7,2-21.2,5.9S9.1,20.3,8,21.4
	c-0.3,0.3-0.6,1.1-1.1,2.3c-1.1,2.3-2.3,5.1-3.1,7.4c-1.7,4.5-2.3,9.6-2,14.4c0,1.1,0.3,2.3,0.6,3.4C3.1,52,3.1,54.6,2.8,56
	c0,0-0.3,0.6-0.6,1.1l0,0c-0.6,0.9-1.1,2-1.7,3.1l0,0c-0.3,0.9-0.6,2-0.6,2.8C1.7,62.2,1.7,62.5,1.7,63.1z M40.8,60.8L40.8,60.8
	L40.8,60.8L40.8,60.8z M4.8,56.8c0,0,0,0-0.3,0.3C4.5,57.1,4.5,56.8,4.8,56.8L4.8,56.8z M4.8,56.5c0,0-0.3,0.6-0.6,1.4
	c0,0.3-0.3,0.6-0.6,1.1c0,0.3-0.3,0.3-0.3,0.6c0.3-0.3,0.3-0.9,0.6-1.4C4.3,57.7,4.5,57.1,4.8,56.5L4.8,56.5z M4.8,57.7L4.8,57.7
	L4.8,57.7L4.8,57.7L4.8,57.7z M4,61.1c0-0.6,0.3-0.9,0.3-1.4c0-0.3,0-0.6,0.3-0.9l0,0l-0.3,0.9L4,61.1z M4.8,56.5
	C4.8,56.5,4.8,56.8,4.8,56.5c0,0.3,0,0.3-0.3,0.6C4.5,56.8,4.5,56.8,4.8,56.5z M4.8,56.8L4.8,56.8L4.8,56.8L4.8,56.8L4.8,56.8
	L4.8,56.8L4.8,56.8z M3.7,63.3c0-0.6,0.3-1.1,0.3-1.7c0.3-0.9,0.6-1.7,0.8-2.6C4.8,61.1,4,62.5,3.7,63.3L3.7,63.3z M3.1,63.1
	c0-0.3,0-0.6,0.3-0.9C3.4,62.2,3.4,62.5,3.1,63.1C3.4,62.8,3.1,63.1,3.1,63.1z M3.1,63.3L3.1,63.3c0-0.6,0-2,0.6-4l0,0L4,59.1
	C3.4,61.4,3.1,62.5,3.1,63.3z M4.5,56.8c0,0,0-0.3,0.3-0.3C4.8,56.5,4.8,56.5,4.5,56.8C4.8,56.5,4.5,56.5,4.5,56.8z M4.5,57.1
	c0,0.3,0,0.6-0.3,0.6C4.3,58,4,58,4,58.2l0,0C4.3,57.7,4.5,57.4,4.5,57.1C4.8,57.1,4.5,57.1,4.5,57.1z M4.8,56.8L4.8,56.8L4.8,56.8
	L4.8,56.8z M4.8,56.5L4.8,56.5L4.8,56.5L4.8,56.5L4.8,56.5C4.8,56.8,4.8,56.8,4.8,56.5C4.8,56.8,4.8,56.5,4.8,56.5L4.8,56.5z
	 M3.4,63.9C3.4,63.9,3.4,63.6,3.4,63.9L3.4,63.9L3.4,63.9c0-0.3,0-0.3,0.3-0.6L3.4,63.9L3.4,63.9z M3.1,63.9L3.1,63.9L3.1,63.9
	L3.1,63.9z M2.8,63.6L2.8,63.6C3.1,63.6,3.1,63.3,2.8,63.6C3.1,63.3,3.1,63.3,2.8,63.6C3.1,63.6,3.1,63.6,2.8,63.6z M2.8,63.6
	C2.8,63.6,2.8,63.9,2.8,63.6C2.8,63.9,2.8,63.9,2.8,63.6L2.8,63.6L2.8,63.6z M2.8,63.6c0,0,0-0.3,0-0.6C2.8,63.1,2.8,63.3,2.8,63.6
	L2.8,63.6z M2.8,63.6C2.8,63.6,2.6,63.9,2.8,63.6C2.6,63.9,2.6,63.9,2.8,63.6c-0.3,0,0-0.3,0-0.6C2.8,63.3,2.8,63.3,2.8,63.6z
	 M2.6,63.9L2.6,63.9L2.6,63.9L2.6,63.9z M4.8,56.3L4.8,56.3c0,0.3,0,0.3-0.3,0.6C4.5,56.5,4.8,56.5,4.8,56.3z M5.4,60.5
	c0.3-1.7,0-3.1-0.3-4l0,0C5.7,58,5.7,59.4,5.4,60.5z M5.1,57.1L5.1,57.1c0-0.3,0-0.6,0-0.6S5.1,56.5,5.1,57.1
	C5.1,56.8,5.1,56.8,5.1,57.1z M3.1,64.2C3.1,63.9,3.1,63.9,3.1,64.2C3.1,63.9,3.4,63.9,3.1,64.2L3.1,64.2
	C3.1,63.9,3.1,63.9,3.1,64.2z M3.1,64.2L3.1,64.2L3.1,64.2L3.1,64.2L3.1,64.2z M3.1,63.9L3.1,63.9L3.1,63.9L3.1,63.9L3.1,63.9z
	 M2.6,64.2L2.6,64.2C2.6,63.9,2.6,63.9,2.6,64.2C2.6,63.9,2.6,64.2,2.6,64.2C2.6,63.9,2.6,63.9,2.6,64.2c0-0.3,0-0.6,0.3-0.6l0,0
	C2.8,63.9,2.8,63.9,2.6,64.2L2.6,64.2L2.6,64.2L2.6,64.2z"/>
</svg>
